<?xml version="1.0" encoding="UTF-8"?>
<svg width="358px" height="217px" viewBox="0 0 358 217" version="1.1" xmlns="http://www.w3.org/2000/svg" xmlns:xlink="http://www.w3.org/1999/xlink">
    <title>ic_delivery</title>
    <g id="Page-1" stroke="none" stroke-width="1" fill="none" fill-rule="evenodd" opacity="0.24">
        <g id="408_splash" transform="translate(-2.000000, -523.000000)" fill="#FFFFFF">
            <g id="ic_delivery" transform="translate(2.000000, 523.000000)">
                <path d="M50.0193104,33.8939484 C50.5081208,34.0830438 51.1833708,33.8713245 51.2972684,33.3611048 C56.9602832,29.3691674 63.2338027,27.1192707 70.0690136,25.9353988 C76.9042244,24.7518647 83.8740107,24.6107185 90.8115938,24.5614187 C91.8742989,24.5536523 93.0909014,24.4770011 93.7434396,23.6419427 C94.3325884,22.8882627 94.1942842,21.7455867 93.6258132,20.9767116 C93.0570033,20.2078365 92.1519243,19.755696 91.2383707,19.465975 C88.8085557,18.6954115 84.6797683,18.8625583 82.4072404,20.0150268 C81.7086007,20.3692428 80.5116592,19.7408385 80.1892883,19.1009534 C79.6326817,17.9960965 79.0760751,16.8915772 78.5194684,15.7870578 C78.0242173,14.8034245 77.5110003,13.7964919 76.6943953,13.0556434 C75.704571,12.1574406 74.3716981,11.7441322 73.0672996,11.4429304 C66.5449682,9.93692116 59.5253517,10.6595354 53.450136,13.4628737 C52.0816702,14.094317 50.7416787,14.8412435 49.6749058,15.9028787 C48.2376268,17.3335875 47.3793271,19.2616845 46.9389909,21.2380683 C46.0661151,25.1553806 46.7878055,29.4056358 48.9227072,32.8086763 C49.2006715,33.2520373 49.5301609,33.7045154 50.0193104,33.8939484" id="Fill-3" opacity="0.422605969"></path>
                <path d="M186.16403,31.7705951 C186.64061,32.3628154 187.478734,31.5265647 187.006849,30.939635 C185.08007,28.5449621 185.051562,24.7846445 187.03368,22.4094808 C188.937653,20.1282258 192.423296,19.2804018 195.176125,20.465173 C195.444768,20.5809056 195.849576,20.570655 195.991778,20.2545397 C197.222972,17.5149836 198.859309,14.6954067 201.483351,13.0394385 C203.679108,11.6542845 206.492642,11.4109154 208.804107,12.7024913 C209.825015,13.2728877 210.676889,14.1521248 211.028036,15.2737391 C211.436533,16.5785415 211.224571,18.0040365 211.73469,19.2860231 C212.352131,20.837832 213.756718,21.1893285 215.295123,21.3503621 C216.80066,21.5080891 218.166008,22.1042774 219.242925,23.166372 C221.739521,25.6294925 221.526552,29.6824483 218.938061,32.002391 C218.36925,32.5119451 219.213746,33.3409213 219.78088,32.8333511 C222.194972,30.6698127 222.934828,27.0143158 221.432309,24.1398485 C220.714588,22.7659372 219.510225,21.6092725 218.105974,20.9247968 C217.361422,20.5617271 216.579307,20.3312539 215.756276,20.2274252 C214.925195,20.1226045 213.883158,20.1652602 213.256661,19.5224483 C212.235417,18.4742416 212.58254,16.549443 212.253528,15.2347206 C211.934243,13.9570327 211.122279,12.8774128 210.055423,12.1046497 C207.844909,10.5035718 204.711419,10.2512747 202.219518,11.3222973 C198.826106,12.7811894 196.668583,16.0015318 195.166399,19.2172449 C192.748953,18.3985194 190.006856,18.7219093 187.856376,20.1265725 C185.425179,21.7144238 184.140995,24.5373074 184.399241,27.3873054 C184.545803,29.0059086 185.139768,30.4981978 186.16403,31.7705951" id="Fill-4"></path>
                <path d="M2.64026678,58.1093665 C0.713155955,55.714703 0.684983782,51.9544002 2.66709742,49.5792458 C4.57106682,47.2979999 8.05670254,46.4501792 10.8095264,47.6349457 C11.0781682,47.7506779 11.4829755,47.7404273 11.6251779,47.4243132 C12.8563689,44.6844373 14.4923673,41.8652022 17.116404,40.2095711 C19.312492,38.8237613 22.1260202,38.5807238 24.43748,39.8722946 C25.4583859,40.4426887 26.3102587,41.3219224 26.6614048,42.4435322 C27.0695659,43.7479989 26.8579392,45.1738189 27.3680568,46.4558005 C27.9854969,48.0076033 29.390081,48.359429 30.9284829,48.5201313 C32.4340173,48.6778577 33.7993615,49.273713 34.8762764,50.3364647 C37.373203,52.7992449 37.1598994,56.8521847 34.5714133,59.1724489 C34.0022683,59.6816704 34.8470981,60.5116352 35.4138954,60.0024137 C37.8283178,57.8395452 38.5681727,54.1840627 37.0659922,51.3096068 C36.3479371,49.9357008 35.1435767,48.7790407 33.739328,48.0945677 C32.9947777,47.7314994 32.2126645,47.5010271 31.3892992,47.3968682 C30.5588908,47.2923786 29.5165204,47.3350341 28.8900249,46.6922247 C27.869119,45.6443528 28.2155697,43.7192312 27.8872297,42.404514 C27.5676097,41.1268311 26.7556474,40.0468848 25.688794,39.2744554 C23.4779491,37.6733838 20.344801,37.4210877 17.8529051,38.492106 C14.4594998,39.9509924 12.3023162,43.1713221 10.7998003,46.3870225 C8.38235945,45.5683002 5.64060327,45.8916889 3.48979197,47.2963465 C1.05860046,48.8841916 -0.225581115,51.707064 0.0326638097,54.5570508 C0.179561572,56.1756476 0.773524899,57.667931 1.79744926,58.9403233 C2.27402853,59.5328719 3.11215069,58.6959631 2.64026678,58.1093665" id="Fill-5"></path>
                <path d="M312.308924,60.8816673 C312.785174,61.4735634 313.623643,60.6369729 313.150747,60.0516902 C311.225623,57.6556686 311.195438,53.89531 313.177578,51.5201205 C315.082578,49.2388407 318.567253,48.3910075 321.320783,49.5761223 C321.589093,49.6915255 321.994912,49.6809441 322.135775,49.365156 C323.366646,46.6252395 325.003337,43.8059626 327.62942,42.1499763 C329.822853,40.7644766 332.636753,40.5214355 334.947572,41.8130254 C335.970504,42.383428 336.822388,43.2626747 337.174545,44.3843012 C337.580363,45.6891178 337.369069,47.1146284 337.878858,48.3966289 C338.495971,49.9484547 339.901244,50.2999549 341.440672,50.4609903 C342.946562,50.6187191 344.311588,51.2145831 345.388182,52.27702 C347.883464,54.7401672 347.67217,58.7918444 345.082979,61.1131351 C344.512821,61.6223641 345.357997,62.4523412 345.924801,61.9431122 C348.339591,59.7805423 349.080797,56.1250056 347.578261,53.2501764 C346.860532,51.8765808 345.656492,50.7199035 344.251218,50.0354204 C343.506658,49.6723467 342.725206,49.441871 341.900153,49.3380412 C341.071746,49.2328887 340.028691,49.2758756 339.401517,48.6330566 C338.381939,47.5851692 338.727388,45.660019 338.398709,44.3452824 C338.080091,43.0675805 337.268453,41.9876182 336.201921,41.2151774 C333.988365,39.614082 330.855846,39.3617822 328.363918,40.4328165 C324.969798,41.8917245 322.813257,45.1121019 321.310722,48.3278499 C318.892579,47.5091155 316.152464,47.832509 314.002631,49.2371874 C311.571072,50.825056 310.286538,53.6479702 310.544787,56.4979993 C310.692357,58.11662 311.285993,59.6085948 312.308924,60.8816673" id="Fill-6"></path>
                <path d="M239.67655,90.2425876 C239.999893,90.5674259 240.323557,90.8880997 240.6469,91.212938 C240.501123,91.0671772 240.357272,90.9130872 240.214706,90.7631619 C240.03425,90.5924135 239.853795,90.4175005 239.67655,90.2425876" id="Fill-7"></path>
                <path d="M237.252337,87.7974331 C237.087702,87.6464183 236.924729,87.4889773 236.765499,87.3315364 C237.088949,87.6560575 237.412399,87.9805787 237.735849,88.3018868 C237.570798,88.1380197 237.41032,87.9677264 237.252337,87.7974331" id="Fill-8"></path>
                <path d="M274.967153,82.1613651 C275.678464,82.4938794 259.471858,87.1439171 256.878378,79.969552 C252.158664,81.438682 248.959132,82.8776325 247.279783,84.2864034 C244.411541,86.6925112 234.523715,94.9075844 232.91267,114.197773 C232.462,119.593965 237.464263,128.261302 239.326486,141.159599 C239.894249,145.092093 239.555601,151.935329 238.310542,161.689306 C236.332894,171.930643 235.777314,177.147654 236.643803,177.340341 C239.784707,178.042337 253.662723,181.16079 256.878378,181.268789 C259.238986,181.349407 263.424441,181.862702 267.2485,180.738917 C269.98412,179.934994 272.50139,177.958074 274.186866,175.926261 C275.866151,173.90191 280.104863,165.619002 281.773571,165.419874 C287.867316,164.687503 291.025337,172.215447 297.037227,170.980204 C301.393768,170.085834 307.483923,161.326421 310.132561,159.642239 C310.182496,159.816384 313.022541,154.233165 313.00074,147.481508 C312.985085,142.633139 310.10229,137.648288 310.132561,131.589118 C310.207189,116.651346 305.579257,100.32225 305.638821,100.616845 C306.212139,103.45858 306.309214,106.580438 308.112375,108.851801 C310.294028,111.602411 314.308945,112.166033 317.782677,111.599036 C326.468699,110.181544 333.737492,102.513585 334.667654,93.7791317 C335.601198,85.0446784 330.111551,76.0199766 321.919361,72.8137437 C315.543524,70.3162571 307.50016,70.7651297 303.061427,65.5609075 C299.50009,61.3860548 299.833934,55.2834124 300.081188,49.8061541 C300.329118,44.3288959 299.9212,38.0237546 295.583939,34.6568726 C291.95766,31.8421376 286.628002,32.0257366 283.053135,29.145527 C279.595639,26.3594794 278.696933,21.4930929 276.032273,17.9439619 C273.458938,14.5163302 269.146368,12.4629912 264.857476,12.6233028 C260.568246,12.7832769 256.421414,15.1528518 254.112245,18.7627325 C253.279496,20.0648005 252.467042,21.669942 250.944621,21.9493905 C249.923472,22.1363645 248.91653,21.6388921 247.894028,21.4610306 C245.683287,21.0772951 243.407603,22.2703513 242.032654,24.0398543 C240.658044,25.8096948 240.060711,28.0645203 239.803986,30.2889709 C239.591571,32.1273236 239.603071,34.0561258 240.361745,35.7449668 C241.119743,37.4338077 242.768666,38.8256503 244.62324,38.8216003 C245.347413,34.7395596 247.654215,30.9578923 250.955783,28.4415058 L252.311113,28.2457568 C253.077905,32.9302318 256.182617,37.1742716 260.420096,39.3308851 C261.940826,40.1047685 263.611397,40.6356531 264.939669,41.7055224 C266.920406,43.3015514 267.838053,45.8351504 268.65964,48.2394875 C270.390756,53.3060104 272.118151,58.435983 274.967153,62.9722963 C279.333841,69.9247591 280.994602,74.9231074 288.582695,78.0820906" id="Fill-9" opacity="0.422605969"></path>
                <path d="M76.9146157,146.344393 C69.4264961,143.978134 62.3285486,139.627054 58.0336078,133.071741 C56.532868,130.779744 55.402656,128.275088 54.2782019,125.777183 C53.9845568,125.125702 52.1058377,123.869998 52.48043,123.259024 C52.810315,122.722312 55.0995276,123.042989 55.7203482,122.928221 C62.3779974,121.689395 69.4569783,118.401612 75.0304776,114.56699 C77.32748,117.905406 76.5650866,123.019361 78.6012969,126.516428 C80.3431848,129.510538 83.4872535,131.488609 86.795926,132.535029 C89.3283187,133.335033 91.9765437,133.652335 94.6335747,133.851492 C93.4925247,125.591528 91.9474163,117.388948 90.0002817,109.280883 C87.482114,98.7930572 84.1686998,88.2107163 77.5750632,79.6638304 C73.5937503,74.0401685 67.9768986,69.5338128 61.3734399,67.6333797 C59.5783775,66.6207155 57.6000833,65.9557326 55.7518465,65.0342082 C53.9337531,64.126186 52.174592,62.8839845 51.1923881,61.1320755 C45.9254041,66.7726151 40.9110837,72.6528186 36.1717804,78.742306 C36.338755,78.7625593 30.467885,87.2318076 32.4194226,100.092643 C33.6698698,108.328978 35.6275039,116.423541 38.2642134,124.332448 C40.9005843,132.241356 43.6199344,140.207648 44.5103531,148.491241 C45.4007718,156.77821 44.3122188,165.541131 39.8116927,172.562269 C38.8416816,174.07789 37.6776006,175.634017 37.6938578,177.429808 C37.7250173,180.852613 41.7368124,182.634902 45.0813861,183.411278 C59.7941237,186.830708 75.2072743,187.229022 90.0778419,184.569091 C91.9260787,184.241663 93.8908253,183.796091 95.1792059,182.435745 C96.6826553,180.849238 96.8580973,178.462726 96.9231259,176.278747 C97.1900145,167.320044 96.9786713,158.351215 96.2985797,149.412765 C89.7323771,149.034704 83.1699,148.319088 76.9146157,146.344393" id="Fill-14" opacity="0.422605969"></path>
                <path d="M320.826562,200.24682 C321.590894,200.131157 321.268176,198.967727 320.507241,199.079988 C314.32125,200.012093 308.057128,200.365885 301.806253,200.168578 C302.921158,197.260002 304.215766,194.419464 305.684302,191.667373 C306.599802,189.952844 307.581883,188.275736 308.624431,186.632646 C315.370932,184.819464 322.358623,184.07446 329.339519,184.418046 C330.114041,184.455467 330.110644,183.244411 329.339519,183.20699 C322.708517,182.880413 316.046941,183.533567 309.606173,185.132433 C310.469019,183.839733 311.369231,182.574248 312.310209,181.339379 C312.503839,181.281547 312.653309,181.131866 312.656706,180.890335 C314.168384,178.937678 315.771782,177.056459 317.4669,175.256884 C321.302146,174.984737 325.14079,174.709187 328.976036,174.43704 C329.747162,174.382611 329.750559,173.171555 328.976036,173.225984 C325.558625,173.470917 322.137816,173.715849 318.720404,173.95738 C321.550129,171.103234 324.600662,168.47361 327.858414,166.116133 C328.48007,165.66709 327.878796,164.61592 327.246948,165.071767 C323.530598,167.762625 320.075819,170.786863 316.913184,174.100258 C316.665201,174.161491 316.515731,174.355396 316.468173,174.569712 C315.068597,176.063121 313.72677,177.607557 312.449487,179.206423 C312.130166,176.716275 311.810845,174.222724 311.491525,171.732575 C311.393011,170.970562 310.183668,170.960357 310.282182,171.732575 C310.659252,174.664964 311.036323,177.597352 311.413393,180.533142 C308.644814,184.152703 306.204727,188.013794 304.11963,192.061987 C301.995807,189.340513 300.624087,186.047529 300.214745,182.611668 C300.123365,181.849655 298.915381,181.83945 299.007101,182.611668 C299.474192,186.530591 301.028673,190.201179 303.524131,193.242426 C302.477506,195.361774 301.526678,197.53215 300.67776,199.739945 C300.111815,201.209541 299.593428,202.699549 299.12226,204.203163 C297.425783,202.492036 296.073766,200.484949 295.113765,198.260144 C294.807013,197.545757 293.766503,198.16149 294.071556,198.869074 C295.152151,201.376232 296.742641,203.638457 298.727525,205.506069 C298.123533,207.564183 297.608204,209.646111 297.183915,211.751852 C297.030709,212.510463 298.193852,212.833638 298.348077,212.071625 C298.759118,210.033921 299.258141,208.02003 299.838014,206.026551 C300.171263,205.87687 300.381539,205.458443 300.102643,205.135268 C300.488545,203.866381 300.908079,202.611101 301.360903,201.366026 C307.870291,201.597352 314.385794,201.216345 320.826562,200.24682" id="Fill-15"></path>
                <path d="M358.645309,179.002596 C358.059124,174.976714 356.785687,171.068744 354.905851,167.46398 C354.781202,167.228154 354.478003,167.123717 354.228706,167.187727 C347.477467,168.919361 341.251774,172.564553 336.420797,177.587641 C335.595421,178.443352 334.81721,179.342858 334.079425,180.272686 C334.291664,178.743187 334.456739,177.21032 334.581388,175.677453 C335.042925,170.054694 335.012605,164.404983 334.968809,158.765379 C334.968809,158.465544 334.69593,158.138757 334.372517,158.169077 C327.493261,158.772117 320.789187,160.786743 314.674667,163.993973 C308.597204,167.184358 303.103569,171.537027 298.651592,176.76562 C296.127963,179.730286 293.935158,182.967837 292.147966,186.427737 C291.794907,187.111632 292.827469,187.718041 293.181876,187.030777 C296.281247,181.034066 300.60049,175.731356 305.768017,171.392162 C310.908257,167.076552 316.891391,163.734564 323.272052,161.649191 C326.684729,160.537441 330.20858,159.77943 333.776225,159.422322 C333.843603,168.885672 333.857078,178.503993 331.401164,187.714672 C329.352884,195.389115 325.374235,202.649178 319.195706,207.766596 C315.917784,210.48533 312.050308,212.439315 307.869526,213.281549 C307.114896,213.433152 307.43494,214.585329 308.186201,214.433726 C315.961579,212.870539 322.379299,207.588042 326.735263,201.123049 C330.457877,195.604727 332.546583,189.298073 333.685265,182.79939 L333.688634,182.796021 C337.539266,177.264223 342.94969,172.884602 349.121481,170.19282 C350.728438,169.492081 352.385927,168.92273 354.077106,168.467923 C357.149526,174.558965 358.379168,181.509086 357.634645,188.29076 C356.92718,194.708589 354.326403,200.893961 350.330909,205.954107 C348.124292,208.743589 345.51004,211.202914 342.575744,213.207433 C341.942394,213.642026 342.542055,214.679659 343.178774,214.241697 C348.58246,210.552709 352.951899,205.408339 355.707645,199.472269 C358.67226,193.088129 359.655974,185.962823 358.645309,179.002596" id="Fill-16"></path>
                <path d="M348.785859,203.304008 C349.545595,203.293773 349.545595,202.082689 348.785859,202.092923 C344.021748,202.150919 339.25432,202.208915 334.490209,202.270322 C335.478862,200.192715 336.504008,198.135577 337.565649,196.098908 C337.698354,195.986328 337.794565,195.822576 337.811153,195.638355 C338.759994,193.833668 339.735376,192.042628 340.740616,190.272056 C340.813604,190.30276 340.90318,190.316406 341.002709,190.306171 C345.51468,189.907025 350.043239,189.814915 354.565163,190.033251 C355.321582,190.067366 355.321582,188.856281 354.565163,188.818755 C350.189215,188.610653 345.803313,188.692529 341.437318,189.05756 C343.165801,186.062258 344.977225,183.111306 346.864954,180.218349 C347.000976,180.010247 347.136999,179.805557 347.273022,179.597455 C349.718112,178.676349 352.206331,177.884879 354.727727,177.226459 C355.46424,177.035414 355.152383,175.865268 354.41587,176.056312 C352.385483,176.585096 350.381637,177.202578 348.404332,177.901937 C349.830911,175.786803 351.300619,173.702373 352.806822,171.648647 C353.264654,171.027753 352.242825,170.423916 351.791628,171.037987 C349.117622,174.674652 346.57632,178.410251 344.167724,182.234549 C343.205612,180.74031 342.455829,179.126667 341.941597,177.41068 C341.719316,176.666972 340.58137,176.984242 340.803651,177.731362 C341.384236,179.665685 342.233548,181.494252 343.351588,183.159067 C343.391399,183.223886 343.441164,183.275058 343.494246,183.315996 C341.297978,186.853728 339.221144,190.463101 337.260427,194.144115 C336.55709,192.4793 335.853754,190.814486 335.150417,189.149671 C334.851831,188.433255 333.833319,189.050737 334.135223,189.76033 C334.941406,191.670774 335.744272,193.581217 336.550455,195.49166 C335.24331,197.995705 333.989248,200.530454 332.791585,203.095906 C332.184459,204.402513 331.590604,205.715942 331.013338,207.039607 C330.008097,205.879695 329.002856,204.719783 327.997616,203.559871 C327.490019,202.976503 326.660612,203.836203 327.164892,204.41957 C328.183403,205.593128 329.201914,206.766686 330.220425,207.943656 C330.316636,208.056235 330.426118,208.114231 330.535599,208.131288 C329.875392,209.663054 329.23509,211.205055 328.611376,212.753879 C328.322743,213.473706 329.464006,213.787565 329.749322,213.07456 C331.049831,209.840453 332.439917,206.643872 333.91626,203.488229 C338.872793,203.426822 343.829326,203.365415 348.785859,203.304008" id="Fill-17"></path>
                <path d="M38.7712181,174.172232 C34.5860697,163.365528 27.8274178,153.589794 19.1740626,145.845773 C16.7388831,143.666299 14.1555956,141.654734 11.4522023,139.814437 C11.1843259,139.633094 10.7865596,139.764064 10.6320415,140.029363 C5.5032526,148.747263 1.26108768,158.240908 0.233777983,168.389403 C-0.8232208,178.830062 1.83159038,189.193482 5.62774432,198.85168 C7.80112005,204.382643 10.3469588,209.755771 12.9181007,215.112108 C13.250416,215.803898 14.2848106,215.199421 13.9531701,214.507631 C9.47990266,205.19197 4.99820084,195.728549 2.68380197,185.60692 C1.55392999,180.667 0.988487933,175.592752 1.26581095,170.525221 C1.54144708,165.497989 2.68548885,160.554711 4.37000686,155.816284 C6.18272772,150.718529 8.62195568,145.862565 11.3425552,141.187943 C20.5309886,147.551742 28.1786261,156.058075 33.5658449,165.820376 C35.1083277,168.617761 36.4625546,171.512534 37.6150308,174.487903 C37.8896548,175.196484 39.0495532,174.890888 38.7712181,174.172232" id="Fill-18"></path>
                <path d="M31.8683674,201.941543 C30.8920563,203.79759 29.5027958,205.379294 27.7826287,206.578273 C26.0368233,200.607086 24.3504989,194.618963 22.7233138,188.613906 C25.0704257,182.944156 28.2130124,177.599554 32.0379228,172.786702 C32.5165066,172.183825 31.6625763,171.326927 31.1788648,171.933191 C27.5665823,176.481861 24.5597084,181.447126 22.2166987,186.737537 C22.1602941,186.524159 22.1025222,186.314169 22.0461177,186.104178 C20.5700284,180.597002 19.1445323,175.072891 17.7689456,169.538619 C17.8807291,169.47088 17.9733692,169.365885 18.0249879,169.213472 C19.5513285,164.688511 21.0773273,160.16355 22.6036679,155.638588 C22.8518478,154.900234 21.6786337,154.585248 21.4318212,155.316828 C20.0514486,159.411647 18.6707342,163.50308 17.2900199,167.597899 C16.6066705,164.823989 15.9346021,162.046692 15.2765493,159.266009 C14.0783804,154.202523 12.9226005,149.125489 11.807842,144.045068 C11.6420468,143.286392 10.470542,143.608152 10.6363371,144.363441 C12.6122047,153.376108 14.7189991,162.358291 16.9584296,171.309993 C17.6075944,173.901007 18.2687238,176.492022 18.9401086,179.079649 C13.2928193,177.020386 8.15727279,173.718112 3.94573499,169.457333 C3.39775649,168.90526 2.53904034,169.755384 3.086677,170.307456 C7.56143591,174.835805 13.0483997,178.290491 19.0741121,180.403946 C19.1523947,180.431041 19.2258915,180.444589 19.2939188,180.441202 C19.9998299,183.147373 20.7173639,185.850157 21.4475461,188.549554 C21.3699471,188.739223 21.2902971,188.928892 21.2144074,189.118561 C21.0373313,189.562251 21.4157544,189.850141 21.7986215,189.839981 C22.5448704,192.583408 23.3017166,195.323448 24.0725784,198.060101 C24.4643335,199.44875 24.8605325,200.840785 25.2587827,202.229433 C18.6334731,199.773897 12.6798901,195.70956 7.98395707,190.469953 C7.46366807,189.887398 6.60734484,190.740909 7.12489908,191.320076 C12.1343045,196.911926 18.556216,201.165932 25.6700229,203.655338 C26.5755719,206.791651 27.4951366,209.924577 28.4324772,213.054116 C28.6546769,213.795858 29.8275491,213.480872 29.6043239,212.735743 C29.1110407,211.089687 28.6239108,209.440244 28.1395155,207.794187 C30.1516188,206.469891 31.7993145,204.674809 32.9174915,202.547806 C33.2781386,201.863643 32.23004,201.253992 31.8683674,201.941543" id="Fill-19"></path>
                <path d="M107.850375,207.135802 C108.132395,204.068149 108.540885,201.014039 109.072124,197.980245 C113.898587,197.736458 118.620899,196.608943 123.043946,194.658646 C123.750348,194.347141 123.139305,193.311046 122.437298,193.619166 C118.285113,195.450954 113.818783,196.510751 109.291923,196.764696 C109.88031,193.609008 110.604635,190.477022 111.458134,187.382281 C111.757062,187.250229 111.977538,186.901478 111.781409,186.52564 C111.763148,186.491781 111.745226,186.457921 111.726966,186.424062 C112.554765,183.522319 113.498213,180.654436 114.555281,177.823797 C117.631124,176.909596 120.707306,175.995395 123.783487,175.081193 C124.523029,174.861108 124.208208,173.699733 123.463932,173.919819 C120.674505,174.749372 117.885077,175.578925 115.09565,176.408478 C115.339459,175.782081 115.586649,175.15907 115.841616,174.536058 C117.327124,170.913112 119.012481,167.371428 120.870296,163.92455 C121.23753,163.243978 120.200414,162.634511 119.832503,163.318469 C117.470501,167.699863 115.40337,172.237011 113.637871,176.885894 C113.460678,177.021332 113.398796,177.234645 113.427539,177.441187 C112.509453,179.895987 111.675567,182.384646 110.927909,184.897007 C109.563461,182.293226 108.199012,179.689445 106.834901,177.085664 C106.475444,176.401706 105.437651,177.007788 105.797108,177.695132 C107.346527,180.65105 108.896284,183.606968 110.445703,186.566271 C108.935172,191.939744 107.814193,197.424952 107.099675,202.967721 C106.984365,203.864993 106.88089,204.765651 106.787221,205.662922 C104.566906,202.598655 102.346591,199.534387 100.125937,196.47012 C99.6761934,195.847108 98.6333283,196.446418 99.0881446,197.076201 C101.596566,200.540009 104.104988,204.00043 106.61341,207.464238 C106.397668,209.915652 106.262069,212.377224 106.205597,214.838796 C106.188013,215.610788 107.38981,215.610788 107.407394,214.838796 C107.461499,212.475416 107.592364,210.115422 107.795595,207.7622 C107.949454,207.606447 108.00525,207.372818 107.850375,207.135802" id="Fill-20"></path>
                <path d="M147.908643,166.400071 C147.757235,166.26467 147.529109,166.169889 147.324303,166.24436 C140.288573,168.854218 134.619907,174.500449 131.770196,181.429607 C131.657654,181.703794 131.551195,181.977982 131.448455,182.255554 C131.266292,178.670807 130.804971,175.092829 130.180752,171.558858 C129.295963,166.552397 128.088757,161.606868 126.87986,156.671493 C126.80517,156.366841 126.443211,156.150199 126.141071,156.25175 C115.793634,159.680786 106.830497,166.87736 101.094913,176.148959 C99.4784325,178.758818 98.1360403,181.534543 97.0748341,184.418589 C96.8071667,185.14637 97.9677344,185.457793 98.2333739,184.736781 C101.883383,174.818642 109.159067,166.362836 118.284427,161.085573 C120.699854,159.690941 123.240328,158.529875 125.87408,157.612532 C127.907608,165.919397 129.921872,174.307502 130.289577,182.88517 C130.336892,183.985305 130.354128,185.088825 130.340609,186.19573 C130.255442,186.629014 130.178725,187.069067 130.116201,187.505736 C130.084771,187.729148 130.16115,187.91194 130.287211,188.043956 C130.028669,193.757888 128.879592,199.437969 126.459771,204.640761 C124.760489,208.296594 122.454562,211.634234 119.518333,214.399804 C118.953933,214.931254 119.80425,215.780896 120.367636,215.249447 C123.756399,212.060748 126.302618,208.137497 128.097882,203.875744 C128.271595,207.193074 129.311172,210.415623 131.138542,213.191348 C131.56201,213.834504 132.602601,213.235353 132.175753,212.585428 C130.398401,209.884173 129.391269,206.763175 129.281093,203.527086 C129.264871,203.056567 128.809295,202.873775 128.463896,202.978711 C129.314551,200.808906 129.977298,198.564631 130.461262,196.293276 C131.159158,193.013181 131.483265,189.695851 131.528552,186.368366 C132.859453,179.855567 136.797069,173.958844 142.27918,170.198075 C143.861864,169.111481 145.563512,168.207677 147.353706,167.517131 C151.922638,171.701029 155.238063,177.167853 156.849474,183.159357 C158.518678,189.360733 158.223297,195.961543 156.134005,202.027517 C154.939303,205.497174 153.153841,208.773883 150.86515,211.641004 C150.386931,212.240154 151.231503,213.096567 151.714453,212.490647 C155.918722,207.223539 158.474066,200.761516 159.029341,194.04223 C159.575828,187.427881 158.034038,180.73229 154.78384,174.960813 C152.979113,171.755189 150.650543,168.847448 147.908643,166.400071" id="Fill-21"></path>
                <path d="M155.927638,191.043153 C156.61031,190.674008 156.001376,189.643758 155.318024,190.012903 C151.519663,192.056623 147.720622,194.100343 143.922261,196.144063 C144.427554,191.690834 145.092216,187.254385 145.918966,182.844782 C146.446686,180.029214 147.040668,177.22707 147.695137,174.434993 C147.870477,173.689991 146.706299,173.371184 146.530618,174.119542 C145.449693,178.72714 144.542408,183.371653 143.808086,188.046368 C143.80095,188.022877 143.792794,187.999386 143.78294,187.975895 C142.455314,184.875079 141.127689,181.774262 139.800064,178.67009 C139.498655,177.965359 138.458166,178.57277 138.757536,179.274145 C140.084822,182.374962 141.412447,185.475778 142.740073,188.576594 C142.944297,189.056483 143.487988,188.92896 143.723814,188.583306 C142.918471,193.801671 142.329246,199.053595 141.963954,204.322298 C141.928614,204.832389 141.898031,205.339124 141.866769,205.849215 C139.112974,203.137679 136.810782,200.026795 135.024078,196.610527 C134.66762,195.925932 133.625093,196.529987 133.98155,197.211227 C135.927964,200.932878 138.494186,204.318942 141.558564,207.218407 C141.629244,207.285524 141.704681,207.32915 141.781477,207.355997 C141.683613,209.205077 141.610555,211.054157 141.56604,212.903237 C141.54735,213.668373 142.755024,213.668373 142.773374,212.903237 C142.896384,207.785547 143.226676,202.677926 143.764251,197.587083 C147.818826,195.405773 151.873062,193.224463 155.927638,191.043153" id="Fill-22"></path>
                <path d="M219.95473,170.012684 C217.785782,168.752825 215.489189,167.721102 213.113368,166.924326 C212.811354,166.82558 212.447379,167.043502 212.37323,167.346549 C209.22409,180.306077 206.020778,194.477795 211.930366,207.164921 C213.33717,210.185179 215.262001,212.95687 217.675066,215.248452 C218.237787,215.783041 219.090334,214.92838 218.52592,214.393791 C214.271314,210.34862 211.749226,204.873338 210.582815,199.16311 C209.253886,192.656106 209.762772,185.93799 210.926475,179.448011 C211.598219,175.702482 212.483269,171.994409 213.381524,168.296551 C221.238629,171.085267 228.025141,176.679725 232.405361,183.796229 C233.671991,185.856269 234.734458,188.035486 235.565335,190.306638 C235.830444,191.031909 236.993807,190.718646 236.725651,189.983161 C233.665897,181.620417 227.627986,174.466458 219.95473,170.012684" id="Fill-23"></path>
                <path d="M233.688642,199.89139 C231.975008,202.293927 230.261039,204.693081 228.547405,207.095619 C228.005044,201.969077 227.042962,196.88991 225.67152,191.925793 C226.899602,189.546942 228.128019,187.168092 229.356435,184.789241 C229.709989,184.102318 228.685418,183.496608 228.330861,184.183531 C227.284903,186.207077 226.239613,188.234006 225.193654,190.257552 C224.617875,188.315219 223.979607,186.393189 223.27818,184.491462 C223.289541,184.315501 223.235406,184.139541 223.1004,184.014338 C222.806329,183.229284 222.5029,182.450997 222.187776,181.676094 C220.987096,178.721988 219.640048,175.835559 218.147636,173.020191 C217.785727,172.340036 216.759819,172.945746 217.122062,173.629285 C218.819656,176.827028 220.327106,180.129672 221.637729,183.513527 C219.484992,182.863827 217.332256,182.214127 215.179519,181.564427 C214.445678,181.341092 214.13189,182.501755 214.864061,182.721705 C217.30051,183.459386 219.737292,184.193683 222.174075,184.927979 C223.006164,187.185011 223.749696,189.472498 224.404339,191.787055 C224.396319,191.803974 224.388299,191.81751 224.380613,191.834429 C224.199492,192.182966 224.379945,192.514584 224.646614,192.663474 C225.311617,195.106618 225.877704,197.576832 226.33953,200.06735 C222.786612,199.8474 219.28616,198.998052 216.026646,197.53961 C215.333907,197.231679 214.728721,198.267139 215.427141,198.578454 C218.954327,200.15533 222.708082,201.072355 226.556408,201.282154 C226.786986,202.628929 226.988492,203.979087 227.158586,205.33263 C227.293591,206.405312 227.407878,207.481378 227.504788,208.560828 C227.370785,208.784163 227.419574,209.000729 227.55625,209.156387 C227.71398,211.044578 227.814565,212.939538 227.858008,214.837881 C227.875719,215.6094 229.063367,215.612784 229.045655,214.837881 C229.000542,212.854941 228.8906,210.872002 228.719838,208.89583 C230.718187,206.097381 232.715867,203.298932 234.714216,200.500484 C235.162341,199.871087 234.132757,199.26876 233.688642,199.89139" id="Fill-24"></path>
                <path d="M202.641555,51.6850171 C207.953504,53.192631 212.706143,56.416747 216.169119,60.7859943 C219.683976,65.2231643 221.733779,70.803759 221.971093,76.4969895 C222.007242,77.3639442 222.000548,78.230899 221.961051,79.101267 C221.925906,79.8794783 223.115488,79.8794783 223.150634,79.101267 C223.428113,72.9711459 221.773945,66.8376116 218.361511,61.7724113 C215.102378,56.9365786 210.408649,53.2086731 205.004988,51.1877128 C199.422587,49.0998536 193.171424,48.9339717 187.484257,50.6975761 C181.997251,52.3990602 177.113404,55.8614181 173.61294,60.4890452 C170.023106,65.2368171 168.001419,71.0972948 167.87657,77.0908876 C167.856487,78.0465858 167.88795,79.002284 167.960249,79.9579821 C168.018825,80.7293671 169.208741,80.7361935 169.149831,79.9579821 C168.697629,73.9848686 170.126534,68.011755 173.330774,62.9806868 C176.312762,58.3004964 180.745747,54.588633 185.847829,52.557433 C191.177518,50.4357831 197.128106,50.1204027 202.641555,51.6850171" id="Fill-25"></path>
                <path d="M213.211734,79.0052005 C213.161887,79.7803901 214.358879,79.777005 214.408726,79.0052005 C214.938178,70.8335518 209.991913,63.135818 202.337428,60.2990982 C194.727064,57.4806579 186.010308,60.1941599 181.183271,66.6935657 C178.372326,70.4781155 177.151085,75.2849677 177.704113,79.966571 C177.793702,80.724835 178.991704,80.7349903 178.900768,79.966571 C178.432951,76.0059956 179.243295,72.0047989 181.333484,68.6061512 C183.235738,65.5121633 186.12381,63.0342648 189.479362,61.6632964 C196.520868,58.7842627 204.767113,60.9727345 209.511971,66.923753 C212.225916,70.3291708 213.492626,74.6722633 213.211734,79.0052005" id="Fill-26"></path>
                <path d="M199.772006,66.7879694 C194.983202,64.8568668 189.368545,66.5097597 186.382332,70.610898 C184.587788,73.0755086 183.998995,76.171819 184.585776,79.1208418 C184.731969,79.8540062 185.880383,79.5430659 185.734861,78.8099015 C184.83256,74.2767199 187.3413,69.5995239 191.74987,67.8517124 C195.996824,66.1660889 201.057559,67.5833218 203.69271,71.258963 C205.274001,73.4650022 205.851393,76.2012765 205.318261,78.839359 C205.171063,79.5725234 206.319142,79.8834637 206.467681,79.1502993 C207.503769,74.0181486 204.756627,68.7976254 199.772006,66.7879694" id="Fill-27"></path>
                <path d="M99.3993014,94.409796 C106.452166,95.927084 113.505031,97.4443719 120.557895,98.9616599 C121.296666,99.1209932 121.612668,97.8789174 120.870261,97.7195841 C113.817397,96.2022961 106.764532,94.6850081 99.711337,93.1677202 C98.9728967,93.0083868 98.6568946,94.2504627 99.3993014,94.409796" id="Fill-28"></path>
                <path d="M98.428917,98.2191494 C104.342694,99.0772384 110.148577,100.618366 115.735711,102.815074 C116.440641,103.093095 116.745244,101.912364 116.046565,101.637776 C110.459101,99.4445004 104.653547,97.8999403 98.7397702,97.0418514 C98.0039198,96.9354484 97.6858298,98.109314 98.428917,98.2191494" id="Fill-29"></path>
                <path d="M96.4913765,103.014813 C102.093716,103.966041 107.572858,105.525271 112.826193,107.663082 C113.527524,107.94747 113.833027,106.826263 113.139999,106.541875 C107.886332,104.404064 102.40719,102.844835 96.8051819,101.896875 C96.0623431,101.769391 95.7432245,102.890598 96.4913765,103.014813" id="Fill-30"></path>
                <path d="M94.566127,106.119473 C97.7194872,106.966464 100.872847,107.813455 104.026208,108.656647 C104.80068,108.865546 105.131401,107.562776 104.355533,107.353877 C101.202173,106.510684 98.0488126,105.663693 94.8958012,104.820501 C94.1209795,104.611602 93.7906076,105.910574 94.566127,106.119473" id="Fill-31"></path>
                <path d="M119.936577,40.754717 C124.313464,40.754717 128.690691,40.754717 133.067918,40.754717 C139.985017,40.754717 146.901776,40.754717 153.818536,40.754717 C155.397247,40.754717 156.975618,40.754717 158.553989,40.754717 C159.331279,40.754717 159.332638,39.7843666 158.553989,39.7843666 C154.176762,39.7843666 149.799535,39.7843666 145.422308,39.7843666 C138.505549,39.7843666 131.58845,39.7843666 124.67169,39.7843666 C123.093319,39.7843666 121.514948,39.7843666 119.936577,39.7843666 C119.159287,39.7843666 119.157928,40.754717 119.936577,40.754717" id="Fill-32"></path>
                <path d="M119.936577,44.6361186 C124.313464,44.6361186 128.690691,44.6361186 133.067918,44.6361186 C139.985017,44.6361186 146.901776,44.6361186 153.818536,44.6361186 C155.397247,44.6361186 156.975618,44.6361186 158.553989,44.6361186 C159.331279,44.6361186 159.332638,43.6657682 158.553989,43.6657682 C154.176762,43.6657682 149.799535,43.6657682 145.422308,43.6657682 C138.505549,43.6657682 131.58845,43.6657682 124.67169,43.6657682 C123.093319,43.6657682 121.514948,43.6657682 119.936577,43.6657682 C119.159287,43.6657682 119.157928,44.6361186 119.936577,44.6361186" id="Fill-33"></path>
                <path d="M119.936577,49.4878706 C124.313464,49.4878706 128.690691,49.4878706 133.067918,49.4878706 C139.985017,49.4878706 146.901776,49.4878706 153.818536,49.4878706 C155.397247,49.4878706 156.975618,49.4878706 158.553989,49.4878706 C159.331279,49.4878706 159.332638,48.5175202 158.553989,48.5175202 C154.176762,48.5175202 149.799535,48.5175202 145.422308,48.5175202 C138.505549,48.5175202 131.58845,48.5175202 124.67169,48.5175202 C123.093319,48.5175202 121.514948,48.5175202 119.936577,48.5175202 C119.159287,48.5175202 119.157928,49.4878706 119.936577,49.4878706" id="Fill-34"></path>
                <path d="M119.936577,54.3396226 C124.313464,54.3396226 128.690691,54.3396226 133.067918,54.3396226 C139.985017,54.3396226 146.901776,54.3396226 153.818536,54.3396226 C155.397247,54.3396226 156.975618,54.3396226 158.553989,54.3396226 C159.331279,54.3396226 159.332638,53.3692722 158.553989,53.3692722 C154.176762,53.3692722 149.799535,53.3692722 145.422308,53.3692722 C138.505549,53.3692722 131.58845,53.3692722 124.67169,53.3692722 C123.093319,53.3692722 121.514948,53.3692722 119.936577,53.3692722 C119.159287,53.3692722 119.157928,54.3396226 119.936577,54.3396226" id="Fill-35"></path>
                <path d="M119.941537,59.1913747 C124.978082,59.1913747 130.014628,59.1913747 135.051174,59.1913747 C135.76789,59.1913747 136.484605,59.1913747 137.201321,59.1913747 C137.985217,59.1913747 137.986588,58.2210243 137.201321,58.2210243 C132.164775,58.2210243 127.128229,58.2210243 122.091683,58.2210243 C121.374968,58.2210243 120.657909,58.2210243 119.941537,58.2210243 C119.15764,58.2210243 119.156269,59.1913747 119.941537,59.1913747" id="Fill-36"></path>
                <path d="M157.77775,94.1239892 C166.034329,94.1239892 174.290907,94.1239892 182.547485,94.1239892 C184.900705,94.1239892 187.254263,94.1239892 189.607821,94.1239892 C190.381621,94.1239892 190.382975,93.1536388 189.607821,93.1536388 C181.350904,93.1536388 173.094326,93.1536388 164.837748,93.1536388 C162.484528,93.1536388 160.13097,93.1536388 157.77775,93.1536388 C157.003612,93.1536388 157.002596,94.1239892 157.77775,94.1239892" id="Fill-37"></path>
                <path d="M194.665952,94.1239892 C196.85632,94.1239892 199.047035,94.1239892 201.237404,94.1239892 C202.030683,94.1239892 202.032071,93.1536388 201.237404,93.1536388 C199.047035,93.1536388 196.85632,93.1536388 194.665952,93.1536388 C193.871978,93.1536388 193.870937,94.1239892 194.665952,94.1239892" id="Fill-38"></path>
                <path d="M208.223234,94.1239892 C215.930587,94.1239892 223.63827,94.1239892 231.345623,94.1239892 C232.102459,94.1239892 232.103783,93.1536388 231.345623,93.1536388 C223.63827,93.1536388 215.930587,93.1536388 208.223234,93.1536388 C207.466067,93.1536388 207.465074,94.1239892 208.223234,94.1239892" id="Fill-39"></path>
                <path d="M173.749172,100.916442 C171.338256,100.916442 168.927339,100.916442 166.516081,100.916442 C165.735215,100.916442 165.733849,101.886792 166.516081,101.886792 C175.035245,101.886792 183.554066,101.886792 192.072888,101.886792 C194.483804,101.886792 196.895062,101.886792 199.305637,101.886792 C200.087186,101.886792 200.088211,100.916442 199.305637,100.916442 C190.787157,100.916442 182.268335,100.916442 173.749172,100.916442" id="Fill-40"></path>
                <path d="M204.360352,101.886792 C209.79139,101.886792 215.222428,101.886792 220.653125,101.886792 C221.434798,101.886792 221.436165,100.916442 220.653125,100.916442 C215.222428,100.916442 209.79139,100.916442 204.360352,100.916442 C203.578679,100.916442 203.577312,101.886792 204.360352,101.886792" id="Fill-41"></path>
                <path d="M50.6456297,42.5713411 C51.6161566,43.5233043 53.028858,44.0498717 54.3471741,43.8200289 C54.1433566,49.5141542 53.0500605,55.1407185 51.1127685,60.5085825 C50.8484213,61.2385115 52.0224237,61.5542482 52.284719,60.8277142 C53.955954,56.1982668 55.0030834,51.3644393 55.4086665,46.4688225 C56.1654586,49.2765029 57.4731735,51.9286914 59.3855013,54.1565026 C61.9763088,57.1746742 65.6098001,59.0792796 69.6160448,59.2829807 C69.7733536,59.2897708 69.9313463,59.2931658 70.0889971,59.2965608 C69.781219,63.3298429 69.9604143,67.3733101 70.5981989,71.369247 C70.7202842,72.1331262 71.8918927,71.8105994 71.7701494,71.0501153 C71.1480957,67.1526339 71.0024141,63.1940422 71.3067724,59.2626106 C74.5548571,59.0283543 77.7099244,57.6306252 79.7539129,55.045658 C82.6159071,51.4269077 83.1374199,46.4321563 83.375093,41.9928299 C83.6869748,36.1686755 83.0232,30.3020833 81.4490861,24.6846855 C81.240139,23.9377814 80.0671626,24.2548762 80.2774776,25.0055148 C81.577327,29.6458262 82.2434956,34.4402715 82.2352882,39.2581424 C82.2315264,41.6570626 82.0803732,44.0688838 81.7260864,46.4430203 C81.4196762,48.4925931 80.9463819,50.5666099 79.9963736,52.4250431 C78.2868373,55.770834 75.0445662,57.782722 71.2958292,58.057379 C71.1905007,58.0648481 71.0855142,58.0709591 70.9808696,58.0760516 C70.8522868,58.0414224 70.707973,58.045836 70.5756285,58.0896317 C67.1107312,58.1517605 63.8096403,56.8263453 61.3029588,54.4230116 C58.1376322,51.3882044 56.3832971,47.0843393 55.949672,42.7825113 C55.907267,42.3632265 55.4541493,41.9840029 55.0352291,42.2617154 C53.8550712,43.0432487 52.3753425,42.6100443 51.4400392,41.6543466 C50.5170469,40.7108709 49.9589426,39.3294378 49.7804313,38.0383122 C49.6244904,36.9094686 49.8009499,35.4536846 50.9168164,34.8534453 C51.7013085,34.4314445 52.8523986,34.438574 53.3123558,35.3036247 C53.6413364,35.9218576 54.5827954,35.4889928 54.4230927,34.8385072 C54.1399369,33.6862379 53.8567811,32.5339686 53.5736252,31.3816992 C53.3882744,30.6280051 52.2163239,30.9471369 52.4016747,31.7025285 C52.5490662,32.3020888 52.6964577,32.9013096 52.8435072,33.5008699 C52.1763127,33.3097303 51.4249922,33.3518285 50.7622434,33.6033994 C49.1002418,34.2338544 48.4258658,35.986363 48.5274326,37.6546751 C48.6348129,39.4098998 49.3727964,41.3226533 50.6456297,42.5713411" id="Fill-42"></path>
                <path d="M74.0439219,115.049099 C74.4892209,115.799249 75.5826352,115.477267 75.6795593,114.65861 C75.7440604,114.110556 75.3925812,113.596755 75.1621708,113.124058 C74.878297,112.538324 74.5944232,111.956016 74.3105494,111.370283 C73.1926454,109.068454 72.0750864,106.77005 70.9575273,104.468221 C68.704473,99.8303089 66.4514188,95.192397 64.1983645,90.5544851 C63.8558533,89.8488649 62.7983113,90.4654263 63.1397877,91.1676212 C65.0382584,95.0759354 66.9363842,98.9842496 68.83451,102.892564 C69.7747773,104.827882 70.7150446,106.763199 71.6553119,108.698517 C72.1164774,109.647336 72.5779879,110.596156 73.0391535,111.544975 C73.2875,112.058777 73.5358464,112.569152 73.7841929,113.079528 C73.8907749,113.29875 73.997012,113.517972 74.103594,113.737194 C74.1746487,113.884483 74.2457034,114.028348 74.3164132,114.175637 C74.3191726,114.185913 74.3240015,114.196189 74.3271059,114.206465 C74.0318495,114.346904 73.830068,114.689439 74.0439219,115.049099" id="Fill-43"></path>
                <path d="M146.914276,155.040545 C145.560101,155.000471 144.247801,154.72997 143.046267,154.095462 C142.034519,153.561139 141.13894,152.849822 140.213306,152.188597 C137.731216,150.411974 134.994499,149.476909 131.9265,149.316612 C130.132979,149.223105 128.336418,149.336649 126.543572,149.390081 C124.561951,149.450193 122.57898,149.47023 120.596347,149.453532 C116.71044,149.426816 112.826559,149.266519 108.949094,149.019395 C101.18167,148.525146 93.4432878,147.680248 85.7099711,146.825332 C82.1702058,146.431269 78.518662,146.097317 75.2092078,144.698059 C72.4684393,143.539246 69.8428263,141.969673 67.4073381,140.276538 C61.7738365,136.365963 56.9346038,131.079506 54.5653047,124.610861 C54.304263,123.896204 53.1442656,124.203439 53.4080088,124.924775 C55.5375413,130.742215 59.538604,135.661324 64.3869545,139.508449 C66.7653715,141.395276 69.3271593,143.048337 72.0189614,144.460953 C73.4511446,145.215684 74.908993,145.920322 76.4556563,146.414571 C78.1681301,146.962252 79.9430782,147.289525 81.7227541,147.536649 C85.5228857,148.064293 89.3540855,148.421621 93.1697513,148.822363 C97.1583191,149.239803 101.150264,149.630527 105.1493,149.937762 C113.037283,150.548894 120.90568,150.745925 128.813249,150.498801 C130.673635,150.442029 132.562388,150.421992 134.392381,150.806037 C135.893118,151.119951 137.297272,151.704367 138.587284,152.519209 C140.601998,153.794905 142.313121,155.431269 144.71923,155.968931 C145.438867,156.132567 146.177416,156.206037 146.914276,156.226074 C147.686594,156.249451 147.685919,155.063922 146.914276,155.040545" id="Fill-44"></path>
                <path d="M154.936012,156.033111 C151.641983,154.465381 148.482681,152.621415 145.485261,150.515562 C144.825898,150.052777 144.205874,151.154134 144.860711,151.616919 C147.85848,153.722772 151.017433,155.566738 154.311462,157.130881 C155.029659,157.475279 155.658735,156.373922 154.936012,156.033111" id="Fill-45"></path>
                <path d="M161.63029,155.949913 C157.418847,154.44799 153.328437,152.618182 149.383402,150.481643 C148.690124,150.107925 148.073648,151.190297 148.768641,151.564015 C152.804878,153.749913 156.997463,155.618503 161.30628,157.159209 C162.048518,157.423632 162.367455,156.214337 161.63029,155.949913" id="Fill-46"></path>
                <path d="M165.639578,155.143618 C162.317243,153.3746 158.902085,151.444463 156.177868,148.797511 C155.52484,148.162901 154.920839,147.49212 154.437442,146.725984 C154.107006,146.20317 153.908287,145.772424 153.752057,145.331813 C153.46313,144.519643 153.467052,143.710761 153.662503,142.872286 C153.812196,142.227811 154.070073,141.652386 154.670479,141.326861 C155.200288,141.040793 155.827168,140.955301 156.413847,140.863233 C157.150219,140.751436 156.837759,139.623605 156.105309,139.73869 C155.008759,139.909673 153.855012,140.176012 153.159168,141.126284 C152.476398,142.056827 152.251531,143.474015 152.378999,144.605135 C152.462997,145.351542 152.769247,146.101238 153.115371,146.765442 C154.229244,148.892867 156.209245,150.51392 158.10394,151.904802 C160.296387,153.512702 162.658137,154.877279 165.053226,156.153077 C165.713771,156.504908 166.30143,155.495449 165.639578,155.143618" id="Fill-47"></path>
                <path d="M38.5781138,180.885086 C35.1147931,189.212348 33.5609772,198.334143 34.0504292,207.357048 C34.1892593,209.914561 34.495969,212.461844 34.9543448,214.981846 C35.0938504,215.74569 36.2511055,215.421739 36.1122754,214.657895 C34.5240053,205.928251 34.9418467,196.857606 37.2904733,188.305283 C37.9542229,185.887581 38.7740297,183.517619 39.7357067,181.205628 C40.0343096,180.489524 38.8730011,180.175803 38.5781138,180.885086" id="Fill-48"></path>
                <path d="M95.9913451,189.105161 C95.7999948,186.743474 95.6082815,184.385122 95.4169312,182.023434 C95.3552053,181.269562 94.0644078,181.262891 94.1261337,182.023434 C94.7967674,190.282669 95.4674012,198.541904 96.1380349,206.801139 C96.3293852,209.159491 96.5210986,211.517843 96.712812,213.879531 C96.7741748,214.633403 98.0649722,214.640074 98.0032463,213.879531 C97.3326126,205.620296 96.6619789,197.361061 95.9913451,189.105161" id="Fill-49"></path>
                <path d="M93.0072339,201.441701 C92.7980796,206.66307 91.5453519,211.793192 89.3385538,216.450181 C89.0128886,217.136225 89.9754382,217.744539 90.3023596,217.055116 C92.600859,212.205495 93.9057182,206.87936 94.1233518,201.441701 C94.1544423,200.667789 93.0380104,200.671169 93.0072339,201.441701" id="Fill-50"></path>
                <path d="M195.561496,136.492361 C195.556425,136.315545 195.488475,136.179533 195.388071,136.080924 C195.689283,136.077523 195.852566,135.859904 195.879611,135.608281 C196.072644,135.689889 196.302187,135.669487 196.492853,135.468869 C200.080016,131.745535 203.667517,128.0188 207.254679,124.292066 C206.096483,130.228999 204.938287,136.169332 203.780429,142.109665 C203.753722,142.245677 203.769273,142.368088 203.813221,142.470097 C200.617871,146.502859 197.42252,150.532221 194.22717,154.561583 C195.278201,148.604248 195.730188,142.544904 195.561496,136.492361 Z M204.710096,143.265769 C204.856814,143.082152 204.878112,142.871333 204.823684,142.687717 C204.877098,142.623111 204.918003,142.538103 204.938625,142.429294 C206.163081,136.15233 207.387875,129.871966 208.612331,123.591603 C208.678929,123.251572 208.480488,122.996549 208.228632,122.89114 C208.123157,122.486504 207.600515,122.194077 207.22662,122.585112 C207.217155,122.591913 207.207689,122.602114 207.198223,122.612315 C207.130611,122.500105 207.012628,122.411697 206.834808,122.381094 C198.12332,120.847556 189.386816,119.460232 180.629352,118.225921 C171.896567,116.995011 163.143836,115.910313 154.37454,114.975229 C149.428035,114.448182 144.476121,113.968739 139.520489,113.5335 C138.750386,113.468894 138.755119,114.676002 139.520489,114.744009 C148.25226,115.505677 156.970847,116.413558 165.672192,117.471053 C174.43777,118.535349 183.184754,119.752658 191.908749,121.116181 C196.724087,121.871048 201.531649,122.67012 206.331773,123.513396 C202.768613,127.212928 199.205791,130.91586 195.642969,134.615392 C195.554059,134.7072 195.503349,134.80921 195.482728,134.911219 C195.42999,134.890817 195.372858,134.877216 195.309641,134.870415 C185.5265,133.870725 175.750798,132.792829 165.984223,131.640125 C156.257201,130.490822 146.539306,129.263312 136.831215,127.964395 C131.657872,127.267333 126.487233,126.553269 121.319974,125.815402 C126.540308,122.11587 131.760304,118.419738 136.980638,114.723607 C137.607741,114.278167 137.008359,113.230873 136.374157,113.679713 C130.850583,117.593464 125.327008,121.503815 119.803095,125.414166 C119.531633,125.607984 119.490389,125.914011 119.582004,126.162233 C119.53907,126.308447 119.544141,126.46146 119.607696,126.587272 C119.583694,126.655278 119.571862,126.736885 119.577947,126.825293 C119.831831,130.592831 119.741906,134.373971 119.309189,138.124507 C119.301413,138.192513 119.30378,138.253719 119.31426,138.308124 C113.79508,137.339037 108.282999,136.318945 102.7672,135.329456 C99.4795591,134.741204 96.1919182,134.14955 92.9042774,133.561298 C91.2724582,133.268871 89.6403008,132.976445 88.0091577,132.680619 C86.6133049,132.428996 85.1741802,132.170573 83.8770411,131.572119 C81.2560561,130.36161 79.0938195,127.770578 78.2199325,125.026532 C77.7692975,123.612005 77.454563,122.139672 77.093176,120.697943 C76.6878412,119.082798 76.291634,117.464253 75.8957648,115.845707 C75.7111837,115.09084 74.5519733,115.410468 74.7368926,116.165336 C75.412676,118.929784 76.0918401,121.690832 76.809205,124.441679 C77.4839742,127.029311 78.8666427,129.293915 80.9024446,131.02807 C81.9649695,131.935952 83.1143761,132.633014 84.43856,133.081855 C85.8601055,133.564698 87.3556863,133.785718 88.8279409,134.050942 C92.1936737,134.656196 95.5594066,135.25805 98.9254775,135.863304 C105.657281,137.070413 112.389085,138.277521 119.120889,139.48803 C125.415918,140.616931 131.774165,141.752633 138.13444,140.443515 C144.661379,139.100395 151.216039,136.380151 157.941757,138.161911 C158.690224,138.362529 159.009353,137.196224 158.261225,136.999006 C152.414802,135.448467 146.558914,137.114617 140.878141,138.559746 C138.040121,139.280611 135.227455,139.838261 132.288355,139.858663 C128.983811,139.882465 125.702256,139.416623 122.452478,138.855573 C121.749649,138.736562 121.047497,138.614151 120.345007,138.49174 C120.431212,138.399932 120.493077,138.277521 120.510318,138.124507 C120.938303,134.414774 121.030594,130.677839 120.78719,126.947704 C130.270809,128.304426 139.764569,129.586341 149.267456,130.796849 C159.062767,132.044761 168.867881,133.214466 178.681784,134.305964 C183.986634,134.894217 189.294188,135.458668 194.60377,136.006117 C194.456375,136.097925 194.353605,136.26114 194.360028,136.492361 C194.54799,143.238566 193.965173,149.981372 192.622058,156.584764 C192.601098,156.611967 192.580138,156.639169 192.559178,156.666372 C192.392514,156.87719 192.387105,157.118612 192.470944,157.31583 C192.359384,157.842877 192.244106,158.369924 192.122742,158.893571 C184.206373,157.516448 176.290681,156.139324 168.374312,154.7588 C167.61807,154.629589 167.293532,155.792493 168.054845,155.925105 C176.046939,157.31583 184.039033,158.706555 192.031127,160.09728 C192.380344,160.158485 192.63727,159.944266 192.738012,159.682442 C192.974993,159.682442 193.203184,159.553231 193.273839,159.250604 C193.43915,158.536539 193.593306,157.819075 193.741039,157.101611 C197.397504,152.490797 201.053631,147.876583 204.710096,143.265769 L204.710096,143.265769 Z" id="Fill-51"></path>
                <path d="M72.8707152,115.578779 C66.7031169,119.849839 59.4684787,122.43774 52.0059619,122.987412 C51.2391538,123.045452 51.2330681,124.260878 52.0059619,124.202838 C59.6764095,123.636095 67.1321643,121.020881 73.4772645,116.623499 C74.1108616,116.186492 73.5107363,115.134944 72.8707152,115.578779" id="Fill-52"></path>
                <path d="M74.1494105,44.435062 C75.3029596,44.7866139 76.5164038,44.6770605 77.5844808,44.1070559 C78.6901137,43.5167757 78.782061,42.462447 78.3799538,41.3636429 C77.4035002,38.6928295 76.3655327,36.0429457 75.3586459,33.3835781 C75.0967259,32.6922472 73.9839703,32.9921292 74.2491279,33.6926168 C75.0384494,35.7774014 75.827771,37.8625129 76.6170925,39.9472975 C76.8077859,40.450589 76.9994505,40.9532265 77.1888488,41.456845 C77.3371299,41.8509102 77.6718954,42.4794523 77.3546128,42.8695932 C77.0868651,43.1985803 76.4924458,43.3447605 76.0981087,43.4261898 C75.5418928,43.5416296 74.9940946,43.4788408 74.4553616,43.3146742 C73.745037,43.0981837 73.4413522,44.2195525 74.1494105,44.435062" id="Fill-53"></path>
                <path d="M64.3428425,48.6279808 C68.2204206,50.7324948 73.0804578,51.0548898 77.220025,49.4246966 C77.9429337,49.1397137 77.6252023,48.0202775 76.8907967,48.3098149 C73.0396962,49.8264704 68.5876234,49.5941899 64.9675054,47.62989 C64.2773452,47.255118 63.6533792,48.2538594 64.3428425,48.6279808" id="Fill-54"></path>
                <path d="M63.2450187,31.5895532 C63.8723365,28.9681354 66.6381037,27.5827335 68.9826017,28.8139745 C69.6498844,29.1645883 70.2401855,28.1192272 69.5702822,27.7675902 C66.5758633,26.1946031 62.9397131,27.8514919 62.1220707,31.2672478 C61.9412459,32.0244098 63.0635388,32.3473974 63.2450187,31.5895532" id="Fill-55"></path>
                <path d="M74.9053697,28.7822458 C75.6078278,27.2895333 77.4210589,27.0127723 78.508713,28.2585564 C79.048272,28.876057 79.9395935,27.9695747 79.4028799,27.355309 C77.8055436,25.5265295 74.8537969,25.9272939 73.8141589,28.1374285 C73.4666644,28.876057 74.5560969,29.524828 74.9053697,28.7822458" id="Fill-56"></path>
                <path d="M70.8355795,33.9622642 C70.8355795,32.8903434 70.183823,32.0215633 69.3802456,32.0215633 C68.5762848,32.0215633 67.9245283,32.8903434 67.9245283,33.9622642 C67.9245283,35.0341849 68.5762848,35.902965 69.3802456,35.902965 C70.183823,35.902965 70.8355795,35.0341849 70.8355795,33.9622642" id="Fill-57"></path>
                <path d="M78.1130159,31.0512129 C77.3094384,31.0512129 76.6576819,31.9202607 76.6576819,32.9917413 C76.6576819,34.0635668 77.3094384,34.9326146 78.1130159,34.9326146 C78.9169767,34.9326146 79.5687332,34.0635668 79.5687332,32.9917413 C79.5687332,31.9202607 78.9169767,31.0512129 78.1130159,31.0512129" id="Fill-58"></path>
                <path d="M49.3769571,187.13623 C47.0768739,186.716152 44.8081389,186.140751 42.5774218,185.413558 C40.750895,184.820506 39.9698605,187.845773 41.7897175,188.438824 C44.0204346,189.166017 46.2891697,189.737888 48.5892528,190.157966 C49.3769571,190.302699 50.1850043,189.935572 50.4117777,189.063646 C50.6075366,188.308211 50.1696637,187.280962 49.3769571,187.13623" id="Fill-59"></path>
                <path d="M64.4695528,187.98318 C62.0152893,188.134591 59.5852243,187.930362 57.196058,187.328238 C55.3027885,186.852878 54.495039,189.870539 56.3906942,190.345899 C59.0300243,191.007883 61.7579683,191.279015 64.4695528,191.109998 C65.2861637,191.05718 65.9838275,190.426887 65.9838275,189.546589 C65.9838275,188.736715 65.2902535,187.930362 64.4695528,187.98318" id="Fill-60"></path>
                <path d="M81.993892,188.254148 C78.430982,188.667493 74.8513525,188.826764 71.2713951,188.735752 C69.3961793,188.686454 69.396835,192.057686 71.2713951,192.103192 C74.8513525,192.197996 78.430982,192.034933 81.993892,191.621587 C82.776434,191.530575 83.4501348,190.912453 83.4501348,189.937867 C83.4501348,189.096007 82.7813515,188.163136 81.993892,188.254148" id="Fill-61"></path>
                <path d="M93.1004859,187.44412 C92.9001366,186.693835 92.0357343,186.098425 91.2786738,186.377201 C89.6785461,186.965727 88.0784184,187.554254 86.4782907,188.139338 C85.7252306,188.418114 85.2211903,189.185608 85.4438748,190.021935 C85.6445575,190.775662 86.5086264,191.36763 87.2656869,191.088854 C88.8658146,190.503769 90.4659423,189.915243 92.06607,189.326716 C92.8191301,189.051382 93.3235037,188.283889 93.1004859,187.44412" id="Fill-62"></path>
                <path d="M42.8333239,103.323558 C42.3764924,101.121267 42.0821558,98.8917041 41.927901,96.6450952 C41.8748347,95.8746345 40.7030915,95.8678163 40.7564874,96.6450952 C41.2841838,104.332657 43.5963578,111.600896 47.135978,118.347541 C48.1310533,120.24642 49.2058928,122.097571 50.3232513,123.921449 C50.7256981,124.579409 51.7398904,123.972586 51.3348068,123.311217 C47.5394137,117.11685 44.3303865,110.537252 42.8333239,103.323558" id="Fill-63"></path>
                <path d="M272.04907,190.715935 C270.472214,192.623126 269.154361,194.723066 268.222827,197.015754 C266.850552,194.956393 265.530347,192.815875 264.917275,190.401451 C264.287406,187.919397 264.470488,185.028175 266.186419,183.009393 C267.051439,181.991547 268.154633,181.227318 269.214492,180.436036 C270.248485,179.661663 271.248549,178.843329 272.203934,177.97089 C274.125118,176.222631 275.858853,174.268098 277.39842,172.171539 C278.981322,170.014113 280.332769,167.694373 281.438987,165.256279 C282.410496,166.24369 283.811997,166.541266 285.132874,166.764448 C286.630786,167.018064 287.90564,167.366363 289.120027,168.323341 C290.193996,169.168727 291.146693,170.189954 292.342268,170.869644 C293.389698,171.461415 294.547649,171.677834 295.700897,171.49523 C288.677272,178.927867 278.621205,182.752395 272.04907,190.715935 Z M311.837297,143.438547 C311.269575,139.512573 310.681698,135.58998 310.100539,131.667387 C308.79713,122.821264 307.493722,113.975141 306.189977,105.129018 C306.07744,104.364789 304.92688,104.689418 305.038745,105.446884 C306.121447,112.794982 307.204822,120.139699 308.286516,127.484416 C308.824005,131.116196 309.358133,134.751357 309.892262,138.383137 C310.419672,141.940523 311.098251,145.521579 311.239342,149.119544 C311.366995,152.37259 310.896693,155.581677 309.280869,158.445846 C307.859885,160.965098 305.807353,163.051511 303.62851,164.914743 C302.511207,165.87172 301.350233,166.771211 300.177501,167.657176 C298.935568,168.593864 297.653323,169.669196 296.153059,170.149375 C293.234835,171.089445 291.429546,168.472129 289.314195,166.977485 C288.027247,166.071231 286.609622,165.810852 285.093906,165.54371 C283.627907,165.283331 282.079605,164.833586 281.599897,163.237496 C280.574975,159.825517 284.038749,157.651183 286.782962,156.839612 C287.203882,156.714495 287.377894,156.153158 287.046331,155.835293 C286.787329,155.58844 286.528327,155.338206 286.268989,155.087972 C288.443464,153.8368 290.687813,152.325249 291.709712,149.954785 C292.386275,148.385748 292.348987,146.694976 292.037244,145.0414 C291.694259,143.218747 291.129561,141.429909 290.649181,139.644453 C290.646158,139.630927 290.64347,139.620782 290.640447,139.610638 C290.638767,139.509191 290.611893,139.414508 290.566878,139.336733 C289.605782,135.759057 288.64435,132.181382 287.683255,128.603707 C286.756759,125.157912 285.90081,121.668157 284.253073,118.482742 C282.646319,115.375101 280.352253,112.30804 280.387526,108.649207 C280.395252,107.874833 279.201357,107.874833 279.193966,108.649207 C279.163732,111.770374 280.69255,114.51957 282.169635,117.157176 C282.957391,118.56728 283.726334,119.980766 284.310181,121.488936 C284.935011,123.101933 285.410688,124.772416 285.864193,126.4429 C286.837719,130.027338 287.792432,133.615158 288.756215,137.202977 C288.978601,138.028075 289.200315,138.853172 289.422028,139.68165 C288.535173,143.671874 287.786385,147.692532 287.177344,151.73686 C287.063464,152.490945 288.213688,152.818954 288.328576,152.054725 C288.825753,148.754337 289.41699,145.467475 290.099599,142.200902 C290.125802,142.298966 290.151669,142.397031 290.177535,142.491715 C290.624994,144.158816 291.166177,145.87326 291.059687,147.621519 C290.851411,151.040262 287.632529,152.950835 284.972971,154.445478 C284.642416,154.631463 284.576909,155.125169 284.852036,155.388929 C285.066023,155.595203 285.280011,155.801478 285.493998,156.00437 C283.065896,156.910625 280.739244,158.557437 280.319668,161.296489 C280.175554,162.243322 280.268942,163.227351 280.653246,164.089646 C278.500942,169.036847 275.336481,173.493724 271.359741,177.122122 C270.332803,178.05881 269.251444,178.924486 268.136157,179.749583 C267.759579,180.030251 267.381658,180.310919 267.013143,180.605114 C266.900942,180.368406 266.658736,180.195947 266.336243,180.266959 C258.61254,181.964495 250.741699,179.955857 243.487625,177.267528 C241.393437,176.489773 239.322764,175.654531 237.252427,174.815908 C236.808664,174.636686 236.521108,175.018801 236.537568,175.404297 C236.491546,175.387389 236.444852,175.380626 236.397149,175.373863 C236.495577,175.306232 236.570153,175.191259 236.597364,175.028945 C237.886327,167.27168 239.163869,159.477218 239.471581,151.60498 C239.625101,147.679005 239.531377,143.742886 239.059395,139.840583 C238.592788,135.989003 237.684769,132.262539 236.603746,128.542839 C235.55027,124.914441 234.429271,121.255609 234.130293,117.468278 C233.827956,113.630224 234.537105,109.869945 235.704798,106.228021 C236.853007,102.643583 238.314302,99.1369199 239.813222,95.691125 C241.242605,92.4042628 242.901763,89.1376898 245.337592,86.4797951 C247.531215,84.0890424 250.258631,82.2866787 253.452654,81.6238958 C254.666705,81.3736614 255.962052,81.2417811 257.232203,81.0185991 C257.243625,82.8108182 258.827535,84.0011222 260.480311,84.5049725 C262.579538,85.1407031 264.837995,85.1880447 266.999033,84.9073764 C271.488403,84.3257506 275.572976,82.3407834 279.729103,80.6635369 C282.072887,79.7167041 284.464709,78.8814624 286.961005,78.4553876 C287.716848,78.3268889 287.396706,77.1670188 286.643551,77.2955175 C278.728703,78.6481357 271.737999,84.4407232 263.462026,83.8286634 C262.376636,83.7475063 261.2422,83.5615213 260.228027,83.1489728 C259.282048,82.7634766 258.250743,81.9180902 258.430802,80.7751279 C259.538027,80.5079858 260.597886,80.1157265 261.534795,79.4529436 C262.103189,79.0505397 262.570468,78.5737417 262.9887,78.0191683 C263.04648,77.9413927 263.081081,77.8636172 263.096534,77.7892232 C263.394504,77.7892232 263.68206,77.5998566 263.659217,77.2109789 C263.499314,74.4854532 263.194962,71.7700722 262.754893,69.078362 C262.881203,69.0344019 263.007177,68.9870603 263.131471,68.9397186 C266.912363,67.4924172 269.796995,64.4862232 272.154552,61.273755 C272.611417,60.6515506 271.575744,60.0530171 271.123583,60.6684584 C269.140923,63.3703132 266.761195,65.8929462 263.725395,67.3808262 C263.278272,67.6006266 262.812673,67.7933747 262.333973,67.9556889 C262.09647,67.8643872 261.783048,67.9590705 261.607692,68.1788709 C259.164809,68.8382723 256.476025,68.7266813 254.267956,67.4552202 C251.328568,65.7610659 249.840062,62.389665 248.794312,59.302314 C247.592354,55.7537202 246.932588,52.0434885 246.581205,48.3183779 C246.358483,45.9594118 246.251658,43.5926681 246.197237,41.2245718 C246.450192,41.4616182 246.900674,41.5089598 247.135825,41.1241399 C247.840271,39.9730618 249.459454,39.8540314 250.258967,40.9807624 C250.701723,41.6046575 251.737395,41.0054477 251.289601,40.3744513 C250.001981,38.5595758 247.414983,38.5528127 246.18044,40.4025181 C246.150879,38.7726132 246.142816,37.1420319 246.135762,35.5131415 C246.133074,34.739782 244.938843,34.7384294 244.942202,35.5131415 C244.975459,43.5527659 245.024505,51.8152341 247.608143,59.5153514 C248.703947,62.7853059 250.235788,66.214193 253.182566,68.1923971 C255.63452,69.8392097 258.772106,70.1063518 261.606684,69.4165166 C262.022902,71.979728 262.30777,74.5632288 262.461962,77.1568742 C262.279216,77.1568742 262.093111,77.2312682 261.957731,77.4104901 C260.210895,79.7369934 256.827071,79.8350582 254.218239,80.267896 C251.068223,80.788654 248.300495,82.0973121 245.905986,84.2344489 C243.317309,86.5440445 241.426022,89.523186 239.909634,92.6274448 C238.27567,95.9717933 236.889959,99.4818375 235.582183,102.968211 C234.258619,106.495163 233.165838,110.153995 232.911875,113.934563 C232.65724,117.721894 233.39931,121.472028 234.382913,125.107189 C235.388016,128.826889 236.603075,132.48234 237.314239,136.273052 C237.890023,139.346877 238.195047,142.461281 238.301201,145.582447 C232.615585,146.691594 226.835572,147.222497 221.044138,147.171774 C220.275866,147.16501 220.275194,148.365459 221.044138,148.372222 C226.843971,148.422945 232.636077,147.888661 238.332778,146.796422 C238.339833,147.215734 238.344872,147.631664 238.345544,148.047594 C238.350583,150.573608 238.238046,153.096241 238.041863,155.60873 C235.593941,155.399074 233.159792,155.087972 230.734713,154.688949 C228.299556,154.289927 225.797549,153.88076 223.347611,154.401518 C218.683222,155.395692 216.131497,160.065606 211.723423,161.526434 C209.764279,162.175691 207.19643,161.942364 205.952481,160.082514 C205.52585,159.446784 204.491185,160.045317 204.921847,160.691192 C205.709939,161.86797 206.916264,162.591621 208.247219,162.89596 C208.221352,162.906105 208.195822,162.916249 208.169619,162.933157 C204.85063,164.694942 201.358637,162.114823 198.805569,160.156908 C198.194848,159.686873 197.599244,160.731771 198.203246,161.195043 C201.167157,163.467441 205.001127,165.973166 208.772278,163.96791 C209.198237,163.741346 209.120301,163.251022 208.835432,163.004169 C209.171363,163.04813 209.51166,163.068419 209.853301,163.061656 C212.134266,163.024459 214.175041,161.837536 215.941025,160.481537 C217.840709,159.020709 219.566046,157.27245 221.741193,156.217408 C224.186092,155.030485 226.934336,155.294246 229.531411,155.703413 C232.329708,156.146395 235.121287,156.552181 237.942428,156.802415 C237.499336,161.810484 236.743493,166.794882 235.933902,171.752228 C235.773327,172.736257 235.609394,173.723669 235.445796,174.707698 C235.37693,175.123629 235.69136,175.407678 236.010158,175.45502 C235.858318,175.546322 235.754179,175.712017 235.768288,175.948726 C236.340041,185.640235 237.447603,195.297929 239.089965,204.864321 C239.559259,207.599991 240.073904,210.325517 240.629196,213.04428 C240.78406,213.801746 241.935292,213.480499 241.780764,212.726414 C239.850174,203.281758 238.439268,193.735655 237.571561,184.135447 C237.326668,181.420066 237.125446,178.704685 236.964535,175.985923 C244.335177,178.968446 251.923836,181.991547 259.982127,182.092994 C261.964786,182.120046 263.945765,181.950969 265.89248,181.578999 C265.609627,181.856286 265.340547,182.147099 265.095654,182.464964 C263.466057,184.561522 263.130463,187.320863 263.585312,189.884075 C264.160425,193.123595 266.055406,195.940423 267.858343,198.611843 C268.152617,199.048063 268.778455,198.970287 268.949443,198.469819 C272.270112,188.71406 282.06516,183.756714 289.890987,178.055428 C291.763125,187.019906 291.526294,196.400313 289.224166,205.266725 C288.561376,207.81641 287.727261,210.318754 286.73526,212.76023 C286.444344,213.473736 287.598936,213.784838 287.886492,213.078095 C291.466499,204.272551 292.925443,194.604712 292.125929,185.122859 C291.903544,182.481872 291.507482,179.857792 290.945135,177.27091 C293.320833,175.471928 295.580634,173.520776 297.532388,171.25514 C297.656682,171.113116 297.698337,170.950801 297.68322,170.798632 C298.790446,170.227151 299.78883,169.442632 300.779824,168.695311 C305.692465,164.985755 310.826148,160.677666 312.082526,154.293308 C312.791338,150.702107 312.354629,147.026367 311.837297,143.438547 L311.837297,143.438547 Z" id="Fill-64"></path>
                <path d="M204.032962,165.328929 C200.679138,166.464835 197.551743,164.153729 194.912669,162.160534 C194.298121,161.69617 193.71936,162.796356 194.329027,163.257149 C197.240728,165.457522 200.664173,167.797204 204.340073,166.554136 C205.049292,166.31481 204.746735,165.089602 204.032962,165.328929" id="Fill-65"></path>
                <path d="M218.366437,149.129351 C219.076327,149.449534 219.697353,148.396028 218.981973,148.072402 C215.233518,146.381972 211.63157,148.716211 208.695252,150.91618 C207.16053,152.066085 205.576057,153.267633 203.72053,153.839143 C202.818499,154.114569 201.792949,154.12834 200.977724,154.648208 C200.307634,155.075119 199.827283,155.79467 199.899336,156.610621 C199.968301,157.3887 201.188393,157.395586 201.119085,156.610621 C201.037082,155.687942 202.103805,155.450387 202.805804,155.305788 C203.602843,155.143975 204.358024,154.944291 205.107372,154.620665 C206.638663,153.959642 207.982274,152.968107 209.310788,151.973129 C211.798321,150.107115 215.112058,147.659262 218.366437,149.129351" id="Fill-66"></path>
                <path d="M206.455533,159.083128 C206.93689,158.864273 207.386436,158.554858 207.808366,158.222803 C208.248474,157.879427 208.84449,157.403984 208.543861,156.739873 C208.228199,156.038029 207.510184,156.20783 206.958214,156.370084 C206.656535,156.460645 206.351711,156.539885 206.045837,156.611579 C205.903562,156.641766 205.759889,156.66818 205.616916,156.698366 C205.543856,156.71346 205.349495,156.683273 205.517288,156.72478 C204.741244,156.521019 204.409503,157.81528 205.187295,158.019041 C205.400182,158.075642 205.627403,158.056775 205.850428,158.019041 C205.514492,158.498258 205.838193,159.362357 206.455533,159.083128" id="Fill-67"></path>
                <path d="M243.384644,198.87996 C241.411979,196.907278 241.304098,193.781904 241.203452,191.083329 C241.066636,187.420256 240.931079,183.753824 240.794892,180.090751 C240.766271,179.324531 239.648469,179.32117 239.67709,180.090751 C239.820511,183.948739 239.946319,187.810088 240.107982,191.671437 C240.227499,194.514519 240.536357,197.666777 242.593942,199.726835 C243.118875,200.251091 243.911149,199.407577 243.384644,198.87996" id="Fill-68"></path>
                <path d="M244.565442,199.367339 C244.45438,198.5859 243.455993,198.919314 243.566472,199.69728 C244.198152,204.139327 244.829832,208.584847 245.461512,213.030368 C245.572574,213.811807 246.570961,213.481866 246.460482,212.7039 C245.828802,208.258379 245.197122,203.812859 244.565442,199.367339" id="Fill-69"></path>
                <path d="M251.498624,56.9827379 C252.626271,57.43499 253.850913,57.2918679 254.912719,56.7251864 C255.569523,56.3750667 254.99205,55.3274403 254.336531,55.6772184 C253.888491,55.915983 253.414436,56.0495408 252.911796,56.0420261 C252.548225,56.0365608 251.88018,55.9877148 251.610072,55.6864411 C251.330649,55.3756031 251.509222,54.80209 251.575063,54.435916 C251.674628,53.8822146 251.776762,53.3285131 251.877932,52.7748116 C252.267197,50.6389108 252.655819,48.5030099 253.045084,46.3667674 C253.184153,45.6036773 252.084448,45.2767851 251.944736,46.0443157 C251.429571,48.8712333 250.839893,51.6957598 250.398919,54.5366822 C250.232229,55.6133429 250.470541,56.5704506 251.498624,56.9827379" id="Fill-70"></path>
                <path d="M253.210814,60.3827888 C252.513917,60.0534741 251.899709,61.0644704 252.600349,61.3937851 C254.018302,62.0622941 255.602653,62.3224527 257.140046,61.8910504 C258.732223,61.4398892 259.979015,60.36303 260.91513,59.0721162 C261.363281,58.4530044 260.314873,57.8678121 259.871146,58.4803376 C258.307892,60.6363612 255.735703,61.5749082 253.210814,60.3827888" id="Fill-71"></path>
                <path d="M256.039414,40.8277405 C258.080171,39.2731375 260.86657,40.0121012 261.902202,42.385357 C262.206955,43.0838067 263.211751,42.4791086 262.908639,41.7850117 C261.635503,38.8656527 257.960107,37.8886267 255.450905,39.8001556 C254.856819,40.2528421 255.437127,41.2864539 256.039414,40.8277405" id="Fill-72"></path>
                <path d="M257.994677,47.5334925 C258.772457,47.4073467 259.238807,46.4421848 259.036219,45.3780131 C258.834028,44.3138414 258.039167,43.5532997 257.261387,43.6794455 C256.483607,43.8055913 256.017257,44.7707532 256.219846,45.8349249 C256.422037,46.8990966 257.216897,47.6596383 257.994677,47.5334925" id="Fill-73"></path>
                <path d="M250.303203,45.3780131 C250.100633,44.3138414 249.305845,43.5532997 248.528135,43.6794455 C247.750426,43.8055913 247.284118,44.7707532 247.486688,45.8349249 C247.689258,46.8990966 248.483649,47.6596383 249.261756,47.5334925 C250.039465,47.4073467 250.505376,46.4421848 250.303203,45.3780131" id="Fill-74"></path>
                <path d="M90.3704476,105.558207 C92.7814908,100.401945 95.1928714,95.2490588 97.6039146,90.0927963 C97.7247367,89.836165 97.6579133,89.589664 97.5097543,89.4174509 C97.5890649,89.464725 97.6845752,89.4984923 97.7966225,89.5052458 C105.817796,89.9712341 113.814332,90.8356763 121.747083,92.1154559 C123.936394,92.4666356 126.119967,92.8515825 128.298816,93.2669199 C123.521954,99.9494632 118.745091,106.635383 113.968566,113.317926 C112.575737,115.266298 111.183244,117.21467 109.790415,119.163041 C109.708742,119.095507 109.625044,119.027972 109.536958,118.963814 C107.113428,117.2248 104.039888,118.16353 101.537384,119.173172 C100.830339,119.456817 101.139144,120.618411 101.856314,120.331389 C103.817143,119.541235 106.106014,118.656532 108.182265,119.568249 C109.009796,119.929558 109.713804,120.57789 109.938911,121.4761 C110.065471,121.979232 110.048596,122.553276 109.844751,123.042901 C109.532571,123.022641 109.185292,123.215114 109.150192,123.616945 C109.139055,123.741884 109.12488,123.866822 109.108006,123.991761 C109.049957,124.109947 109.033083,124.238262 109.048607,124.359825 C108.369911,128.013444 105.150237,130.724956 101.385513,130.768853 C100.614344,130.778983 100.612319,131.977721 101.385513,131.967655 C105.784384,131.920317 109.428961,128.752947 110.223755,124.525284 C111.4637,123.316416 111.458975,121.455839 110.577446,120.068004 C110.627058,120.03086 110.672956,119.983586 110.71413,119.926182 C115.685051,112.970124 120.655971,106.014065 125.626554,99.0613839 C127.056508,97.0589847 128.486462,95.0599621 129.916415,93.0575629 C130.300144,92.5206632 129.600185,92.0040239 129.109134,92.2539018 C129.047373,92.2100043 128.970425,92.176237 128.876602,92.1559767 C120.879053,90.6330727 112.805231,89.5086225 104.694285,88.8028865 C102.397314,88.6036596 100.097981,88.4382 97.7966225,88.3031309 C97.2205236,88.2693636 97.0764145,88.9312021 97.3612578,89.2891352 C97.0997015,89.1169221 96.738585,89.1236756 96.5681515,89.4883621 C94.1571083,94.6412479 91.7457277,99.7975105 89.3346845,104.950396 C89.0096797,105.646002 90.0430803,106.25719 90.3704476,105.558207" id="Fill-75"></path>
                <path d="M100.770911,123.115873 C102.587718,121.63613 104.883275,121.221656 107.011013,122.014246 C107.709563,122.276019 108.009262,121.028963 107.313921,120.770825 C104.926593,119.880071 102.237962,120.334538 100.195257,121.999703 C99.6045216,122.47962 100.173116,123.599426 100.770911,123.115873" id="Fill-76"></path>
                <path d="M98.9080063,126.063623 C100.542492,125.162977 102.342839,124.586303 104.221359,124.388679 C104.985751,124.310926 104.994248,123.157579 104.221359,123.238573 C102.123277,123.455635 100.128178,124.061466 98.2982605,125.069024 C97.625297,125.438354 98.2326636,126.436193 98.9080063,126.063623" id="Fill-77"></path>
                <path d="M97.8352609,128.074263 C99.6792193,127.773022 101.523178,127.471781 103.367136,127.167587 C104.173283,127.037639 103.831903,126.024642 103.027195,126.157543 C101.183596,126.458784 99.3396375,126.760025 97.4956791,127.064219 C96.6891721,127.194167 97.0305526,128.207164 97.8352609,128.074263" id="Fill-78"></path>
                <path d="M288.509357,78.7296025 C295.974338,82.0202372 301.764436,88.6592965 304.199673,96.4371602 C304.891768,98.65018 305.308112,100.931188 305.422895,103.24619 C305.461609,104.017858 306.66853,104.024657 306.629816,103.24619 C306.208718,94.7578487 301.890765,86.6230464 295.227569,81.3777476 C293.34757,79.8990016 291.307961,78.651416 289.118591,77.6859818 C288.413931,77.3732356 287.799264,78.4134569 288.509357,78.7296025" id="Fill-79"></path>
                <path d="M55.3899473,8.59873393 C62.2537387,3.35411908 70.8142909,2.06016394 79.079812,1.27507921 C79.8765288,1.19937091 79.6306696,-0.0724594262 78.8379397,0.00324887613 C70.3245659,0.8118412 61.6337747,2.22437144 54.5762862,7.61729161 C53.9287462,8.11198832 54.7470587,9.09031935 55.3899473,8.59873393" id="Fill-81"></path>
            </g>
        </g>
    </g>
</svg>