<?xml version="1.0" encoding="utf-8"?>
<!-- Generator: Adobe Illustrator 25.1.0, SVG Export Plug-In . SVG Version: 6.00 Build 0)  -->
<svg version="1.1" xmlns="http://www.w3.org/2000/svg" xmlns:xlink="http://www.w3.org/1999/xlink" x="0px" y="0px"
	 viewBox="0 0 358 217" style="enable-background:new 0 0 358 217;" xml:space="preserve">
<style type="text/css">
	.st0{opacity:0.24;}
	.st1{fill-rule:evenodd;clip-rule:evenodd;fill:#2B2B2B;enable-background:new    ;}
	.st2{fill-rule:evenodd;clip-rule:evenodd;fill:#2B2B2B;}
</style>
<g id="Layer_2">
</g>
<g id="Layer_1">
	<g id="Page-1" class="st0">
		<g id="_x34_08_x5F_splash" transform="translate(-2.000000, -523.000000)">
			<g id="ic_delivery" transform="translate(2.000000, 523.000000)">
				<path id="Fill-3" class="st1" d="M50,33.9c0.5,0.2,1.2,0,1.3-0.5c5.7-4,11.9-6.2,18.8-7.4c6.8-1.2,13.8-1.3,20.7-1.4
					c1.1,0,2.3-0.1,2.9-0.9c0.6-0.8,0.5-1.9-0.1-2.7c-0.6-0.8-1.5-1.2-2.4-1.5c-2.4-0.8-6.6-0.6-8.8,0.5c-0.7,0.4-1.9-0.3-2.2-0.9
					c-0.6-1.1-1.1-2.2-1.7-3.3c-0.5-1-1-2-1.8-2.7c-1-0.9-2.3-1.3-3.6-1.6c-6.5-1.5-13.5-0.8-19.6,2c-1.4,0.6-2.7,1.4-3.8,2.4
					c-1.4,1.4-2.3,3.4-2.7,5.3c-0.9,3.9-0.2,8.2,2,11.6C49.2,33.3,49.5,33.7,50,33.9"/>
				<path id="Fill-4" class="st2" d="M186.2,31.8c0.5,0.6,1.3-0.2,0.8-0.8c-1.9-2.4-2-6.2,0-8.5c1.9-2.3,5.4-3.1,8.1-1.9
					c0.3,0.1,0.7,0.1,0.8-0.2c1.2-2.7,2.9-5.6,5.5-7.2c2.2-1.4,5-1.6,7.3-0.3c1,0.6,1.9,1.4,2.2,2.6c0.4,1.3,0.2,2.7,0.7,4
					c0.6,1.6,2,1.9,3.6,2.1c1.5,0.2,2.9,0.8,3.9,1.8c2.5,2.5,2.3,6.5-0.3,8.8c-0.6,0.5,0.3,1.3,0.8,0.8c2.4-2.2,3.2-5.8,1.7-8.7
					c-0.7-1.4-1.9-2.5-3.3-3.2c-0.7-0.4-1.5-0.6-2.3-0.7c-0.8-0.1-1.9-0.1-2.5-0.7c-1-1-0.7-3-1-4.3c-0.3-1.3-1.1-2.4-2.2-3.1
					c-2.2-1.6-5.3-1.9-7.8-0.8c-3.4,1.5-5.6,4.7-7.1,7.9c-2.4-0.8-5.2-0.5-7.3,0.9c-2.4,1.6-3.7,4.4-3.5,7.3
					C184.5,29,185.1,30.5,186.2,31.8"/>
				<path id="Fill-5" class="st2" d="M2.6,58.1c-1.9-2.4-2-6.2,0-8.5c1.9-2.3,5.4-3.1,8.1-1.9c0.3,0.1,0.7,0.1,0.8-0.2
					c1.2-2.7,2.9-5.6,5.5-7.2c2.2-1.4,5-1.6,7.3-0.3c1,0.6,1.9,1.4,2.2,2.6c0.4,1.3,0.2,2.7,0.7,4c0.6,1.6,2,1.9,3.6,2.1
					c1.5,0.2,2.9,0.8,3.9,1.8c2.5,2.5,2.3,6.5-0.3,8.8c-0.6,0.5,0.3,1.3,0.8,0.8c2.4-2.2,3.2-5.8,1.7-8.7c-0.7-1.4-1.9-2.5-3.3-3.2
					c-0.7-0.4-1.5-0.6-2.4-0.7c-0.8-0.1-1.9-0.1-2.5-0.7c-1-1-0.7-3-1-4.3c-0.3-1.3-1.1-2.4-2.2-3.1c-2.2-1.6-5.3-1.9-7.8-0.8
					c-3.4,1.5-5.6,4.7-7.1,7.9c-2.4-0.8-5.2-0.5-7.3,0.9c-2.4,1.6-3.7,4.4-3.5,7.3c0.1,1.6,0.7,3.1,1.8,4.4
					C2.3,59.5,3.1,58.7,2.6,58.1"/>
				<path id="Fill-6" class="st2" d="M312.3,60.9c0.5,0.6,1.3-0.2,0.8-0.8c-1.9-2.4-2-6.2,0-8.5c1.9-2.3,5.4-3.1,8.1-1.9
					c0.3,0.1,0.7,0.1,0.8-0.2c1.2-2.7,2.9-5.6,5.5-7.2c2.2-1.4,5-1.6,7.3-0.3c1,0.6,1.9,1.4,2.2,2.6c0.4,1.3,0.2,2.7,0.7,4
					c0.6,1.6,2,1.9,3.6,2.1c1.5,0.2,2.9,0.8,3.9,1.8c2.5,2.5,2.3,6.5-0.3,8.8c-0.6,0.5,0.3,1.3,0.8,0.8c2.4-2.2,3.2-5.8,1.7-8.7
					c-0.7-1.4-1.9-2.5-3.3-3.2c-0.7-0.4-1.5-0.6-2.4-0.7c-0.8-0.1-1.9-0.1-2.5-0.7c-1-1-0.7-3-1-4.3c-0.3-1.3-1.1-2.4-2.2-3.1
					c-2.2-1.6-5.3-1.9-7.8-0.8c-3.4,1.5-5.6,4.7-7.1,7.9c-2.4-0.8-5.2-0.5-7.3,0.9c-2.4,1.6-3.7,4.4-3.5,7.3
					C310.7,58.1,311.3,59.6,312.3,60.9"/>
				<path id="Fill-7" class="st2" d="M239.7,90.2c0.3,0.3,0.6,0.6,1,1c-0.1-0.1-0.3-0.3-0.4-0.4C240,90.6,239.9,90.4,239.7,90.2"/>
				<path id="Fill-8" class="st2" d="M237.3,87.8c-0.2-0.2-0.3-0.3-0.5-0.5c0.3,0.3,0.6,0.6,1,1C237.6,88.1,237.4,88,237.3,87.8"/>
				<path id="Fill-9" class="st1" d="M275,82.2c0.7,0.3-15.5,5-18.1-2.2c-4.7,1.5-7.9,2.9-9.6,4.3c-2.9,2.4-12.8,10.6-14.4,29.9
					c-0.5,5.4,4.6,14.1,6.4,27c0.6,3.9,0.2,10.8-1,20.5c-2,10.2-2.5,15.5-1.7,15.7c3.1,0.7,17,3.8,20.2,3.9
					c2.4,0.1,6.5,0.6,10.4-0.5c2.7-0.8,5.3-2.8,6.9-4.8c1.7-2,5.9-10.3,7.6-10.5c6.1-0.7,9.3,6.8,15.3,5.6
					c4.4-0.9,10.4-9.7,13.1-11.3c0,0.2,2.9-5.4,2.9-12.2c0-4.8-2.9-9.8-2.9-15.9c0.1-14.9-4.6-31.3-4.5-31c0.6,2.8,0.7,6,2.5,8.2
					c2.2,2.8,6.2,3.3,9.7,2.7c8.7-1.4,16-9.1,16.9-17.8c0.9-8.7-4.6-17.8-12.7-21c-6.4-2.5-14.4-2-18.9-7.3
					c-3.6-4.2-3.2-10.3-3-15.8c0.2-5.5-0.2-11.8-4.5-15.1c-3.6-2.8-9-2.6-12.5-5.5c-3.5-2.8-4.4-7.7-7-11.2
					c-2.6-3.4-6.9-5.5-11.2-5.3c-4.3,0.2-8.4,2.5-10.7,6.1c-0.8,1.3-1.6,2.9-3.2,3.2c-1,0.2-2-0.3-3.1-0.5c-2.2-0.4-4.5,0.8-5.9,2.6
					c-1.4,1.8-2,4-2.2,6.2c-0.2,1.8-0.2,3.8,0.6,5.5c0.8,1.7,2.4,3.1,4.3,3.1c0.7-4.1,3-7.9,6.3-10.4l1.4-0.2
					c0.8,4.7,3.9,8.9,8.1,11.1c1.5,0.8,3.2,1.3,4.5,2.4c2,1.6,2.9,4.1,3.7,6.5c1.7,5.1,3.5,10.2,6.3,14.7c4.4,7,6,12,13.6,15.1"/>
				<path id="Fill-14" class="st1" d="M76.9,146.3c-7.5-2.4-14.6-6.7-18.9-13.3c-1.5-2.3-2.6-4.8-3.8-7.3c-0.3-0.7-2.2-1.9-1.8-2.5
					c0.3-0.5,2.6-0.2,3.2-0.3c6.7-1.2,13.7-4.5,19.3-8.4c2.3,3.3,1.5,8.5,3.6,11.9c1.7,3,4.9,5,8.2,6c2.5,0.8,5.2,1.1,7.8,1.3
					c-1.1-8.3-2.7-16.5-4.6-24.6c-2.5-10.5-5.8-21.1-12.4-29.6c-4-5.6-9.6-10.1-16.2-12c-1.8-1-3.8-1.7-5.6-2.6
					c-1.8-0.9-3.6-2.2-4.6-3.9c-5.3,5.6-10.3,11.5-15,17.6c0.2,0-5.7,8.5-3.8,21.4c1.3,8.2,3.2,16.3,5.8,24.2
					c2.6,7.9,5.4,15.9,6.2,24.2c0.9,8.3-0.2,17-4.7,24.1c-1,1.5-2.1,3.1-2.1,4.9c0,3.4,4,5.2,7.4,6c14.7,3.4,30.1,3.8,45,1.2
					c1.8-0.3,3.8-0.8,5.1-2.1c1.5-1.6,1.7-4,1.7-6.2c0.3-9,0.1-17.9-0.6-26.9C89.7,149,83.2,148.3,76.9,146.3"/>
				<path id="Fill-15" class="st2" d="M320.8,200.2c0.8-0.1,0.4-1.3-0.3-1.2c-6.2,0.9-12.5,1.3-18.7,1.1c1.1-2.9,2.4-5.7,3.9-8.5
					c0.9-1.7,1.9-3.4,2.9-5c6.7-1.8,13.7-2.6,20.7-2.2c0.8,0,0.8-1.2,0-1.2c-6.6-0.3-13.3,0.3-19.7,1.9c0.9-1.3,1.8-2.6,2.7-3.8
					c0.2-0.1,0.3-0.2,0.3-0.4c1.5-2,3.1-3.8,4.8-5.6c3.8-0.3,7.7-0.5,11.5-0.8c0.8-0.1,0.8-1.3,0-1.2c-3.4,0.2-6.8,0.5-10.3,0.7
					c2.8-2.9,5.9-5.5,9.1-7.8c0.6-0.4,0-1.5-0.6-1c-3.7,2.7-7.2,5.7-10.3,9c-0.2,0.1-0.4,0.3-0.4,0.5c-1.4,1.5-2.7,3-4,4.6
					c-0.3-2.5-0.6-5-1-7.5c-0.1-0.8-1.3-0.8-1.2,0c0.4,2.9,0.8,5.9,1.1,8.8c-2.8,3.6-5.2,7.5-7.3,11.5c-2.1-2.7-3.5-6-3.9-9.5
					c-0.1-0.8-1.3-0.8-1.2,0c0.5,3.9,2,7.6,4.5,10.6c-1,2.1-2,4.3-2.8,6.5c-0.6,1.5-1.1,3-1.6,4.5c-1.7-1.7-3-3.7-4-5.9
					c-0.3-0.7-1.3-0.1-1,0.6c1.1,2.5,2.7,4.8,4.7,6.6c-0.6,2.1-1.1,4.1-1.5,6.2c-0.2,0.8,1,1.1,1.2,0.3c0.4-2,0.9-4.1,1.5-6
					c0.3-0.1,0.5-0.6,0.3-0.9c0.4-1.3,0.8-2.5,1.3-3.8C307.9,201.6,314.4,201.2,320.8,200.2"/>
				<path id="Fill-16" class="st2" d="M358.6,179c-0.6-4-1.9-7.9-3.7-11.5c-0.1-0.2-0.4-0.3-0.7-0.3c-6.8,1.7-13,5.4-17.8,10.4
					c-0.8,0.9-1.6,1.8-2.3,2.7c0.2-1.5,0.4-3.1,0.5-4.6c0.5-5.6,0.4-11.3,0.4-16.9c0-0.3-0.3-0.6-0.6-0.6
					c-6.9,0.6-13.6,2.6-19.7,5.8c-6.1,3.2-11.6,7.5-16,12.8c-2.5,3-4.7,6.2-6.5,9.7c-0.4,0.7,0.7,1.3,1,0.6
					c3.1-6,7.4-11.3,12.6-15.6c5.1-4.3,11.1-7.7,17.5-9.7c3.4-1.1,6.9-1.9,10.5-2.2c0.1,9.5,0.1,19.1-2.4,28.3
					c-2,7.7-6,14.9-12.2,20.1c-3.3,2.7-7.1,4.7-11.3,5.5c-0.8,0.2-0.4,1.3,0.3,1.2c7.8-1.6,14.2-6.8,18.5-13.3
					c3.7-5.5,5.8-11.8,7-18.3l0,0c3.9-5.5,9.3-9.9,15.4-12.6c1.6-0.7,3.3-1.3,5-1.7c3.1,6.1,4.3,13,3.6,19.8
					c-0.7,6.4-3.3,12.6-7.3,17.7c-2.2,2.8-4.8,5.2-7.8,7.3c-0.6,0.4,0,1.5,0.6,1c5.4-3.7,9.8-8.8,12.5-14.8
					C358.7,193.1,359.7,186,358.6,179"/>
				<path id="Fill-17" class="st2" d="M348.8,203.3c0.8,0,0.8-1.2,0-1.2c-4.8,0.1-9.5,0.1-14.3,0.2c1-2.1,2-4.1,3.1-6.2
					c0.1-0.1,0.2-0.3,0.2-0.5c0.9-1.8,1.9-3.6,2.9-5.4c0.1,0,0.2,0,0.3,0c4.5-0.4,9-0.5,13.6-0.3c0.8,0,0.8-1.2,0-1.2
					c-4.4-0.2-8.8-0.1-13.1,0.2c1.7-3,3.5-5.9,5.4-8.8c0.1-0.2,0.3-0.4,0.4-0.6c2.4-0.9,4.9-1.7,7.5-2.4c0.7-0.2,0.4-1.4-0.3-1.2
					c-2,0.5-4,1.1-6,1.8c1.4-2.1,2.9-4.2,4.4-6.3c0.5-0.6-0.6-1.2-1-0.6c-2.7,3.6-5.2,7.4-7.6,11.2c-1-1.5-1.7-3.1-2.2-4.8
					c-0.2-0.7-1.4-0.4-1.1,0.3c0.6,1.9,1.4,3.8,2.5,5.4c0,0.1,0.1,0.1,0.1,0.2c-2.2,3.5-4.3,7.1-6.2,10.8c-0.7-1.7-1.4-3.3-2.1-5
					c-0.3-0.7-1.3-0.1-1,0.6c0.8,1.9,1.6,3.8,2.4,5.7c-1.3,2.5-2.6,5-3.8,7.6c-0.6,1.3-1.2,2.6-1.8,3.9c-1-1.2-2-2.3-3-3.5
					c-0.5-0.6-1.3,0.3-0.8,0.9c1,1.2,2,2.3,3.1,3.5c0.1,0.1,0.2,0.2,0.3,0.2c-0.7,1.5-1.3,3.1-1.9,4.6c-0.3,0.7,0.9,1,1.1,0.3
					c1.3-3.2,2.7-6.4,4.2-9.6C338.9,203.4,343.8,203.4,348.8,203.3"/>
				<path id="Fill-18" class="st2" d="M38.8,174.2c-4.2-10.8-10.9-20.6-19.6-28.3c-2.4-2.2-5-4.2-7.7-6c-0.3-0.2-0.7-0.1-0.8,0.2
					c-5.1,8.7-9.4,18.2-10.4,28.4c-1.1,10.4,1.6,20.8,5.4,30.5c2.2,5.5,4.7,10.9,7.3,16.3c0.3,0.7,1.4,0.1,1-0.6
					c-4.5-9.3-9-18.8-11.3-28.9c-1.1-4.9-1.7-10-1.4-15.1c0.3-5,1.4-10,3.1-14.7c1.8-5.1,4.3-10,7-14.6c9.2,6.4,16.8,14.9,22.2,24.6
					c1.5,2.8,2.9,5.7,4,8.7C37.9,175.2,39,174.9,38.8,174.2"/>
				<path id="Fill-19" class="st2" d="M31.9,201.9c-1,1.9-2.4,3.4-4.1,4.6c-1.7-6-3.4-12-5.1-18c2.3-5.7,5.5-11,9.3-15.8
					c0.5-0.6-0.4-1.5-0.9-0.9c-3.6,4.5-6.6,9.5-9,14.8c-0.1-0.2-0.1-0.4-0.2-0.6c-1.5-5.5-2.9-11-4.3-16.6c0.1-0.1,0.2-0.2,0.3-0.3
					c1.5-4.5,3.1-9,4.6-13.6c0.2-0.7-0.9-1.1-1.2-0.3c-1.4,4.1-2.8,8.2-4.1,12.3c-0.7-2.8-1.4-5.6-2-8.3c-1.2-5.1-2.4-10.1-3.5-15.2
					c-0.2-0.8-1.3-0.4-1.2,0.3c2,9,4.1,18,6.3,26.9c0.6,2.6,1.3,5.2,2,7.8c-5.6-2.1-10.8-5.4-15-9.6c-0.5-0.6-1.4,0.3-0.9,0.9
					c4.5,4.5,10,8,16,10.1c0.1,0,0.2,0,0.2,0c0.7,2.7,1.4,5.4,2.2,8.1c-0.1,0.2-0.2,0.4-0.2,0.6c-0.2,0.4,0.2,0.7,0.6,0.7
					c0.7,2.7,1.5,5.5,2.3,8.2c0.4,1.4,0.8,2.8,1.2,4.2c-6.6-2.5-12.6-6.5-17.3-11.8c-0.5-0.6-1.4,0.3-0.9,0.9
					c5,5.6,11.4,9.8,18.5,12.3c0.9,3.1,1.8,6.3,2.8,9.4c0.2,0.7,1.4,0.4,1.2-0.3c-0.5-1.6-1-3.3-1.5-4.9c2-1.3,3.7-3.1,4.8-5.2
					C33.3,201.9,32.2,201.3,31.9,201.9"/>
				<path id="Fill-20" class="st2" d="M107.9,207.1c0.3-3.1,0.7-6.1,1.2-9.2c4.8-0.2,9.5-1.4,14-3.3c0.7-0.3,0.1-1.3-0.6-1
					c-4.2,1.8-8.6,2.9-13.1,3.1c0.6-3.2,1.3-6.3,2.2-9.4c0.3-0.1,0.5-0.5,0.3-0.9c0,0,0-0.1-0.1-0.1c0.8-2.9,1.8-5.8,2.8-8.6
					c3.1-0.9,6.2-1.8,9.2-2.7c0.7-0.2,0.4-1.4-0.3-1.2c-2.8,0.8-5.6,1.7-8.4,2.5c0.2-0.6,0.5-1.2,0.7-1.9c1.5-3.6,3.2-7.2,5-10.6
					c0.4-0.7-0.7-1.3-1-0.6c-2.4,4.4-4.4,8.9-6.2,13.6c-0.2,0.1-0.2,0.3-0.2,0.6c-0.9,2.5-1.8,4.9-2.5,7.5c-1.4-2.6-2.7-5.2-4.1-7.8
					c-0.4-0.7-1.4-0.1-1,0.6c1.5,3,3.1,5.9,4.6,8.9c-1.5,5.4-2.6,10.9-3.3,16.4c-0.1,0.9-0.2,1.8-0.3,2.7c-2.2-3.1-4.4-6.1-6.7-9.2
					c-0.4-0.6-1.5,0-1,0.6c2.5,3.5,5,6.9,7.5,10.4c-0.2,2.5-0.4,4.9-0.4,7.4c0,0.8,1.2,0.8,1.2,0c0.1-2.4,0.2-4.7,0.4-7.1
					C107.9,207.6,108,207.4,107.9,207.1"/>
				<path id="Fill-21" class="st2" d="M147.9,166.4c-0.2-0.1-0.4-0.2-0.6-0.2c-7,2.6-12.7,8.3-15.6,15.2c-0.1,0.3-0.2,0.5-0.3,0.8
					c-0.2-3.6-0.6-7.2-1.3-10.7c-0.9-5-2.1-10-3.3-14.9c-0.1-0.3-0.4-0.5-0.7-0.4c-10.3,3.4-19.3,10.6-25,19.9c-1.6,2.6-3,5.4-4,8.3
					c-0.3,0.7,0.9,1,1.2,0.3c3.7-9.9,10.9-18.4,20.1-23.7c2.4-1.4,5-2.6,7.6-3.5c2,8.3,4,16.7,4.4,25.3c0,1.1,0.1,2.2,0.1,3.3
					c-0.1,0.4-0.2,0.9-0.2,1.3c0,0.2,0,0.4,0.2,0.5c-0.3,5.7-1.4,11.4-3.8,16.6c-1.7,3.7-4,7-6.9,9.8c-0.6,0.5,0.3,1.4,0.8,0.8
					c3.4-3.2,5.9-7.1,7.7-11.4c0.2,3.3,1.2,6.5,3,9.3c0.4,0.6,1.5,0,1-0.6c-1.8-2.7-2.8-5.8-2.9-9.1c0-0.5-0.5-0.7-0.8-0.5
					c0.9-2.2,1.5-4.4,2-6.7c0.7-3.3,1-6.6,1.1-9.9c1.3-6.5,5.3-12.4,10.8-16.2c1.6-1.1,3.3-2,5.1-2.7c4.6,4.2,7.9,9.7,9.5,15.6
					c1.7,6.2,1.4,12.8-0.7,18.9c-1.2,3.5-3,6.7-5.3,9.6c-0.5,0.6,0.4,1.5,0.8,0.8c4.2-5.3,6.8-11.7,7.3-18.4
					c0.5-6.6-1-13.3-4.2-19.1C153,171.8,150.7,168.8,147.9,166.4"/>
				<path id="Fill-22" class="st2" d="M155.9,191c0.7-0.4,0.1-1.4-0.6-1c-3.8,2-7.6,4.1-11.4,6.1c0.5-4.5,1.2-8.9,2-13.3
					c0.5-2.8,1.1-5.6,1.8-8.4c0.2-0.7-1-1.1-1.2-0.3c-1.1,4.6-2,9.3-2.7,13.9c0,0,0,0,0-0.1c-1.3-3.1-2.7-6.2-4-9.3
					c-0.3-0.7-1.3-0.1-1,0.6c1.3,3.1,2.7,6.2,4,9.3c0.2,0.5,0.7,0.4,1,0c-0.8,5.2-1.4,10.5-1.8,15.7c0,0.5-0.1,1-0.1,1.5
					c-2.8-2.7-5.1-5.8-6.8-9.2c-0.4-0.7-1.4-0.1-1,0.6c1.9,3.7,4.5,7.1,7.6,10c0.1,0.1,0.1,0.1,0.2,0.1c-0.1,1.8-0.2,3.7-0.2,5.5
					c0,0.8,1.2,0.8,1.2,0c0.1-5.1,0.5-10.2,1-15.3C147.8,195.4,151.9,193.2,155.9,191"/>
				<path id="Fill-23" class="st2" d="M220,170c-2.2-1.3-4.5-2.3-6.8-3.1c-0.3-0.1-0.7,0.1-0.7,0.4c-3.1,13-6.4,27.1-0.4,39.8
					c1.4,3,3.3,5.8,5.7,8.1c0.6,0.5,1.4-0.3,0.9-0.9c-4.3-4-6.8-9.5-7.9-15.2c-1.3-6.5-0.8-13.2,0.3-19.7c0.7-3.7,1.6-7.5,2.5-11.2
					c7.9,2.8,14.6,8.4,19,15.5c1.3,2.1,2.3,4.2,3.2,6.5c0.3,0.7,1.4,0.4,1.2-0.3C233.7,181.6,227.6,174.5,220,170"/>
				<path id="Fill-24" class="st2" d="M233.7,199.9c-1.7,2.4-3.4,4.8-5.1,7.2c-0.5-5.1-1.5-10.2-2.9-15.2c1.2-2.4,2.5-4.8,3.7-7.1
					c0.4-0.7-0.7-1.3-1-0.6c-1,2-2.1,4.1-3.1,6.1c-0.6-1.9-1.2-3.9-1.9-5.8c0-0.2,0-0.4-0.2-0.5c-0.3-0.8-0.6-1.6-0.9-2.3
					c-1.2-3-2.5-5.8-4-8.7c-0.4-0.7-1.4-0.1-1,0.6c1.7,3.2,3.2,6.5,4.5,9.9c-2.2-0.6-4.3-1.3-6.5-1.9c-0.7-0.2-1,0.9-0.3,1.2
					c2.4,0.7,4.9,1.5,7.3,2.2c0.8,2.3,1.6,4.5,2.2,6.9c0,0,0,0,0,0c-0.2,0.3,0,0.7,0.3,0.8c0.7,2.4,1.2,4.9,1.7,7.4
					c-3.6-0.2-7.1-1.1-10.3-2.5c-0.7-0.3-1.3,0.7-0.6,1c3.5,1.6,7.3,2.5,11.1,2.7c0.2,1.3,0.4,2.7,0.6,4.1c0.1,1.1,0.2,2.1,0.3,3.2
					c-0.1,0.2-0.1,0.4,0.1,0.6c0.2,1.9,0.3,3.8,0.3,5.7c0,0.8,1.2,0.8,1.2,0c0-2-0.2-4-0.3-5.9c2-2.8,4-5.6,6-8.4
					C235.2,199.9,234.1,199.3,233.7,199.9"/>
				<path id="Fill-25" class="st2" d="M202.6,51.7c5.3,1.5,10.1,4.7,13.5,9.1c3.5,4.4,5.6,10,5.8,15.7c0,0.9,0,1.7,0,2.6
					c0,0.8,1.2,0.8,1.2,0c0.3-6.1-1.4-12.3-4.8-17.3c-3.3-4.8-8-8.6-13.4-10.6c-5.6-2.1-11.8-2.3-17.5-0.5
					c-5.5,1.7-10.4,5.2-13.9,9.8c-3.6,4.7-5.6,10.6-5.7,16.6c0,1,0,1.9,0.1,2.9c0.1,0.8,1.2,0.8,1.2,0c-0.5-6,1-11.9,4.2-17
					c3-4.7,7.4-8.4,12.5-10.4C191.2,50.4,197.1,50.1,202.6,51.7"/>
				<path id="Fill-26" class="st2" d="M213.2,79c0,0.8,1.1,0.8,1.2,0c0.5-8.2-4.4-15.9-12.1-18.7c-7.6-2.8-16.3-0.1-21.2,6.4
					c-2.8,3.8-4,8.6-3.5,13.3c0.1,0.8,1.3,0.8,1.2,0c-0.5-4,0.3-8,2.4-11.4c1.9-3.1,4.8-5.6,8.1-6.9c7-2.9,15.3-0.7,20,5.3
					C212.2,70.3,213.5,74.7,213.2,79"/>
				<path id="Fill-27" class="st2" d="M199.8,66.8c-4.8-1.9-10.4-0.3-13.4,3.8c-1.8,2.5-2.4,5.6-1.8,8.5c0.1,0.7,1.3,0.4,1.1-0.3
					c-0.9-4.5,1.6-9.2,6-11c4.2-1.7,9.3-0.3,11.9,3.4c1.6,2.2,2.2,4.9,1.6,7.6c-0.1,0.7,1,1,1.1,0.3C207.5,74,204.8,68.8,199.8,66.8
					"/>
				<path id="Fill-28" class="st2" d="M99.4,94.4c7.1,1.5,14.1,3,21.2,4.6c0.7,0.2,1.1-1.1,0.3-1.2c-7.1-1.5-14.1-3-21.2-4.6
					C99,93,98.7,94.3,99.4,94.4"/>
				<path id="Fill-29" class="st2" d="M98.4,98.2c5.9,0.9,11.7,2.4,17.3,4.6c0.7,0.3,1-0.9,0.3-1.2c-5.6-2.2-11.4-3.7-17.3-4.6
					C98,96.9,97.7,98.1,98.4,98.2"/>
				<path id="Fill-30" class="st2" d="M96.5,103c5.6,1,11.1,2.5,16.3,4.6c0.7,0.3,1-0.8,0.3-1.1c-5.3-2.1-10.7-3.7-16.3-4.6
					C96.1,101.8,95.7,102.9,96.5,103"/>
				<path id="Fill-31" class="st2" d="M94.6,106.1c3.2,0.8,6.3,1.7,9.5,2.5c0.8,0.2,1.1-1.1,0.3-1.3c-3.2-0.8-6.3-1.7-9.5-2.5
					C94.1,104.6,93.8,105.9,94.6,106.1"/>
				<path id="Fill-32" class="st2" d="M119.9,40.8c4.4,0,8.8,0,13.1,0c6.9,0,13.8,0,20.8,0c1.6,0,3.2,0,4.7,0c0.8,0,0.8-1,0-1
					c-4.4,0-8.8,0-13.1,0c-6.9,0-13.8,0-20.8,0c-1.6,0-3.2,0-4.7,0C119.2,39.8,119.2,40.8,119.9,40.8"/>
				<path id="Fill-33" class="st2" d="M119.9,44.6c4.4,0,8.8,0,13.1,0c6.9,0,13.8,0,20.8,0c1.6,0,3.2,0,4.7,0c0.8,0,0.8-1,0-1
					c-4.4,0-8.8,0-13.1,0c-6.9,0-13.8,0-20.8,0c-1.6,0-3.2,0-4.7,0C119.2,43.7,119.2,44.6,119.9,44.6"/>
				<path id="Fill-34" class="st2" d="M119.9,49.5c4.4,0,8.8,0,13.1,0c6.9,0,13.8,0,20.8,0c1.6,0,3.2,0,4.7,0c0.8,0,0.8-1,0-1
					c-4.4,0-8.8,0-13.1,0c-6.9,0-13.8,0-20.8,0c-1.6,0-3.2,0-4.7,0C119.2,48.5,119.2,49.5,119.9,49.5"/>
				<path id="Fill-35" class="st2" d="M119.9,54.3c4.4,0,8.8,0,13.1,0c6.9,0,13.8,0,20.8,0c1.6,0,3.2,0,4.7,0c0.8,0,0.8-1,0-1
					c-4.4,0-8.8,0-13.1,0c-6.9,0-13.8,0-20.8,0c-1.6,0-3.2,0-4.7,0C119.2,53.4,119.2,54.3,119.9,54.3"/>
				<path id="Fill-36" class="st2" d="M119.9,59.2c5,0,10.1,0,15.1,0c0.7,0,1.4,0,2.2,0c0.8,0,0.8-1,0-1c-5,0-10.1,0-15.1,0
					c-0.7,0-1.4,0-2.2,0C119.2,58.2,119.2,59.2,119.9,59.2"/>
				<path id="Fill-37" class="st2" d="M157.8,94.1c8.3,0,16.5,0,24.8,0c2.4,0,4.7,0,7.1,0c0.8,0,0.8-1,0-1c-8.3,0-16.5,0-24.8,0
					c-2.4,0-4.7,0-7.1,0C157,93.2,157,94.1,157.8,94.1"/>
				<path id="Fill-38" class="st2" d="M194.7,94.1c2.2,0,4.4,0,6.6,0c0.8,0,0.8-1,0-1c-2.2,0-4.4,0-6.6,0
					C193.9,93.2,193.9,94.1,194.7,94.1"/>
				<path id="Fill-39" class="st2" d="M208.2,94.1c7.7,0,15.4,0,23.1,0c0.8,0,0.8-1,0-1c-7.7,0-15.4,0-23.1,0
					C207.5,93.2,207.5,94.1,208.2,94.1"/>
				<path id="Fill-40" class="st2" d="M173.7,100.9c-2.4,0-4.8,0-7.2,0c-0.8,0-0.8,1,0,1c8.5,0,17,0,25.6,0c2.4,0,4.8,0,7.2,0
					c0.8,0,0.8-1,0-1C190.8,100.9,182.3,100.9,173.7,100.9"/>
				<path id="Fill-41" class="st2" d="M204.4,101.9c5.4,0,10.9,0,16.3,0c0.8,0,0.8-1,0-1c-5.4,0-10.9,0-16.3,0
					C203.6,100.9,203.6,101.9,204.4,101.9"/>
				<path id="Fill-42" class="st2" d="M50.6,42.6c1,1,2.4,1.5,3.7,1.2c-0.2,5.7-1.3,11.3-3.2,16.7c-0.3,0.7,0.9,1,1.2,0.3
					c1.7-4.6,2.7-9.5,3.1-14.4c0.8,2.8,2.1,5.5,4,7.7c2.6,3,6.2,4.9,10.2,5.1c0.2,0,0.3,0,0.5,0c-0.3,4-0.1,8.1,0.5,12.1
					c0.1,0.8,1.3,0.4,1.2-0.3c-0.6-3.9-0.8-7.9-0.5-11.8c3.2-0.2,6.4-1.6,8.4-4.2c2.9-3.6,3.4-8.6,3.6-13.1
					c0.3-5.8-0.4-11.7-1.9-17.3c-0.2-0.7-1.4-0.4-1.2,0.3c1.3,4.6,2,9.4,2,14.3c0,2.4-0.2,4.8-0.5,7.2c-0.3,2-0.8,4.1-1.7,6
					c-1.7,3.3-5,5.4-8.7,5.6c-0.1,0-0.2,0-0.3,0c-0.1,0-0.3,0-0.4,0c-3.5,0.1-6.8-1.3-9.3-3.7c-3.2-3-4.9-7.3-5.4-11.6
					c0-0.4-0.5-0.8-0.9-0.5c-1.2,0.8-2.7,0.3-3.6-0.6c-0.9-0.9-1.5-2.3-1.7-3.6c-0.2-1.1,0-2.6,1.1-3.2c0.8-0.4,1.9-0.4,2.4,0.5
					c0.3,0.6,1.3,0.2,1.1-0.5c-0.3-1.2-0.6-2.3-0.8-3.5c-0.2-0.8-1.4-0.4-1.2,0.3c0.1,0.6,0.3,1.2,0.4,1.8c-0.7-0.2-1.4-0.1-2.1,0.1
					c-1.7,0.6-2.3,2.4-2.2,4.1C48.6,39.4,49.4,41.3,50.6,42.6"/>
				<path id="Fill-43" class="st2" d="M74,115c0.4,0.8,1.5,0.4,1.6-0.4c0.1-0.5-0.3-1.1-0.5-1.5c-0.3-0.6-0.6-1.2-0.9-1.8
					c-1.1-2.3-2.2-4.6-3.4-6.9c-2.3-4.6-4.5-9.3-6.8-13.9c-0.3-0.7-1.4-0.1-1.1,0.6c1.9,3.9,3.8,7.8,5.7,11.7
					c0.9,1.9,1.9,3.9,2.8,5.8c0.5,0.9,0.9,1.9,1.4,2.8c0.2,0.5,0.5,1,0.7,1.5c0.1,0.2,0.2,0.4,0.3,0.7c0.1,0.1,0.1,0.3,0.2,0.4
					c0,0,0,0,0,0C74,114.3,73.8,114.7,74,115"/>
				<path id="Fill-44" class="st2" d="M146.9,155c-1.4,0-2.7-0.3-3.9-0.9c-1-0.5-1.9-1.2-2.8-1.9c-2.5-1.8-5.2-2.7-8.3-2.9
					c-1.8-0.1-3.6,0-5.4,0.1c-2,0.1-4,0.1-5.9,0.1c-3.9,0-7.8-0.2-11.6-0.4c-7.8-0.5-15.5-1.3-23.2-2.2c-3.5-0.4-7.2-0.7-10.5-2.1
					c-2.7-1.2-5.4-2.7-7.8-4.4c-5.6-3.9-10.5-9.2-12.8-15.7c-0.3-0.7-1.4-0.4-1.2,0.3c2.1,5.8,6.1,10.7,11,14.6
					c2.4,1.9,4.9,3.5,7.6,5c1.4,0.8,2.9,1.5,4.4,2c1.7,0.5,3.5,0.9,5.3,1.1c3.8,0.5,7.6,0.9,11.4,1.3c4,0.4,8,0.8,12,1.1
					c7.9,0.6,15.8,0.8,23.7,0.6c1.9-0.1,3.7-0.1,5.6,0.3c1.5,0.3,2.9,0.9,4.2,1.7c2,1.3,3.7,2.9,6.1,3.4c0.7,0.2,1.5,0.2,2.2,0.3
					C147.7,156.2,147.7,155.1,146.9,155"/>
				<path id="Fill-45" class="st2" d="M154.9,156c-3.3-1.6-6.5-3.4-9.5-5.5c-0.7-0.5-1.3,0.6-0.6,1.1c3,2.1,6.2,3.9,9.5,5.5
					C155,157.5,155.7,156.4,154.9,156"/>
				<path id="Fill-46" class="st2" d="M161.6,155.9c-4.2-1.5-8.3-3.3-12.2-5.5c-0.7-0.4-1.3,0.7-0.6,1.1c4,2.2,8.2,4.1,12.5,5.6
					C162,157.4,162.4,156.2,161.6,155.9"/>
				<path id="Fill-47" class="st2" d="M165.6,155.1c-3.3-1.8-6.7-3.7-9.5-6.3c-0.7-0.6-1.3-1.3-1.7-2.1c-0.3-0.5-0.5-1-0.7-1.4
					c-0.3-0.8-0.3-1.6-0.1-2.5c0.1-0.6,0.4-1.2,1-1.5c0.5-0.3,1.2-0.4,1.7-0.5c0.7-0.1,0.4-1.2-0.3-1.1c-1.1,0.2-2.3,0.4-2.9,1.4
					c-0.7,0.9-0.9,2.3-0.8,3.5c0.1,0.7,0.4,1.5,0.7,2.2c1.1,2.1,3.1,3.7,5,5.1c2.2,1.6,4.6,3,6.9,4.2
					C165.7,156.5,166.3,155.5,165.6,155.1"/>
				<path id="Fill-48" class="st2" d="M38.6,180.9c-3.5,8.3-5,17.4-4.5,26.5c0.1,2.6,0.4,5.1,0.9,7.6c0.1,0.8,1.3,0.4,1.2-0.3
					c-1.6-8.7-1.2-17.8,1.2-26.4c0.7-2.4,1.5-4.8,2.4-7.1C40,180.5,38.9,180.2,38.6,180.9"/>
				<path id="Fill-49" class="st2" d="M96,189.1c-0.2-2.4-0.4-4.7-0.6-7.1c-0.1-0.8-1.4-0.8-1.3,0c0.7,8.3,1.3,16.5,2,24.8
					c0.2,2.4,0.4,4.7,0.6,7.1c0.1,0.8,1.4,0.8,1.3,0C97.3,205.6,96.7,197.4,96,189.1"/>
				<path id="Fill-50" class="st2" d="M93,201.4c-0.2,5.2-1.5,10.4-3.7,15c-0.3,0.7,0.6,1.3,1,0.6c2.3-4.8,3.6-10.2,3.8-15.6
					C94.2,200.7,93,200.7,93,201.4"/>
				<path id="Fill-51" class="st2" d="M195.6,136.5c0-0.2-0.1-0.3-0.2-0.4c0.3,0,0.5-0.2,0.5-0.5c0.2,0.1,0.4,0.1,0.6-0.1
					c3.6-3.7,7.2-7.5,10.8-11.2c-1.2,5.9-2.3,11.9-3.5,17.8c0,0.1,0,0.3,0,0.4c-3.2,4-6.4,8.1-9.6,12.1
					C195.3,148.6,195.7,142.5,195.6,136.5z M204.7,143.3c0.1-0.2,0.2-0.4,0.1-0.6c0.1-0.1,0.1-0.1,0.1-0.3
					c1.2-6.3,2.4-12.6,3.7-18.8c0.1-0.3-0.1-0.6-0.4-0.7c-0.1-0.4-0.6-0.7-1-0.3c0,0,0,0,0,0c-0.1-0.1-0.2-0.2-0.4-0.2
					c-8.7-1.5-17.4-2.9-26.2-4.2c-8.7-1.2-17.5-2.3-26.3-3.3c-4.9-0.5-9.9-1-14.9-1.4c-0.8-0.1-0.8,1.1,0,1.2
					c8.7,0.8,17.5,1.7,26.2,2.7c8.8,1.1,17.5,2.3,26.2,3.6c4.8,0.8,9.6,1.6,14.4,2.4c-3.6,3.7-7.1,7.4-10.7,11.1
					c-0.1,0.1-0.1,0.2-0.2,0.3c-0.1,0-0.1,0-0.2,0c-9.8-1-19.6-2.1-29.3-3.2c-9.7-1.1-19.4-2.4-29.2-3.7c-5.2-0.7-10.3-1.4-15.5-2.1
					c5.2-3.7,10.4-7.4,15.7-11.1c0.6-0.4,0-1.5-0.6-1c-5.5,3.9-11,7.8-16.6,11.7c-0.3,0.2-0.3,0.5-0.2,0.7c0,0.1,0,0.3,0,0.4
					c0,0.1,0,0.1,0,0.2c0.3,3.8,0.2,7.5-0.3,11.3c0,0.1,0,0.1,0,0.2c-5.5-1-11-2-16.5-3c-3.3-0.6-6.6-1.2-9.9-1.8
					c-1.6-0.3-3.3-0.6-4.9-0.9c-1.4-0.3-2.8-0.5-4.1-1.1c-2.6-1.2-4.8-3.8-5.7-6.5c-0.5-1.4-0.8-2.9-1.1-4.3
					c-0.4-1.6-0.8-3.2-1.2-4.9c-0.2-0.8-1.3-0.4-1.2,0.3c0.7,2.8,1.4,5.5,2.1,8.3c0.7,2.6,2.1,4.9,4.1,6.6c1.1,0.9,2.2,1.6,3.5,2.1
					c1.4,0.5,2.9,0.7,4.4,1c3.4,0.6,6.7,1.2,10.1,1.8c6.7,1.2,13.5,2.4,20.2,3.6c6.3,1.1,12.7,2.3,19,1c6.5-1.3,13.1-4.1,19.8-2.3
					c0.7,0.2,1.1-1,0.3-1.2c-5.8-1.6-11.7,0.1-17.4,1.6c-2.8,0.7-5.7,1.3-8.6,1.3c-3.3,0-6.6-0.4-9.8-1c-0.7-0.1-1.4-0.2-2.1-0.4
					c0.1-0.1,0.1-0.2,0.2-0.4c0.4-3.7,0.5-7.4,0.3-11.2c9.5,1.4,19,2.6,28.5,3.8c9.8,1.2,19.6,2.4,29.4,3.5
					c5.3,0.6,10.6,1.2,15.9,1.7c-0.1,0.1-0.3,0.3-0.2,0.5c0.2,6.7-0.4,13.5-1.7,20.1c0,0,0,0.1-0.1,0.1c-0.2,0.2-0.2,0.5-0.1,0.6
					c-0.1,0.5-0.2,1.1-0.3,1.6c-7.9-1.4-15.8-2.8-23.7-4.1c-0.8-0.1-1.1,1-0.3,1.2c8,1.4,16,2.8,24,4.2c0.3,0.1,0.6-0.2,0.7-0.4
					c0.2,0,0.5-0.1,0.5-0.4c0.2-0.7,0.3-1.4,0.5-2.1C197.4,152.5,201.1,147.9,204.7,143.3L204.7,143.3z"/>
				<path id="Fill-52" class="st2" d="M72.9,115.6c-6.2,4.3-13.4,6.9-20.9,7.4c-0.8,0.1-0.8,1.3,0,1.2c7.7-0.6,15.1-3.2,21.5-7.6
					C74.1,116.2,73.5,115.1,72.9,115.6"/>
				<path id="Fill-53" class="st2" d="M74.1,44.4c1.2,0.4,2.4,0.2,3.4-0.3c1.1-0.6,1.2-1.6,0.8-2.7c-1-2.7-2-5.3-3-8
					c-0.3-0.7-1.4-0.4-1.1,0.3c0.8,2.1,1.6,4.2,2.4,6.3c0.2,0.5,0.4,1,0.6,1.5c0.1,0.4,0.5,1,0.2,1.4c-0.3,0.3-0.9,0.5-1.3,0.6
					c-0.6,0.1-1.1,0.1-1.6-0.1C73.7,43.1,73.4,44.2,74.1,44.4"/>
				<path id="Fill-54" class="st2" d="M64.3,48.6c3.9,2.1,8.7,2.4,12.9,0.8c0.7-0.3,0.4-1.4-0.3-1.1c-3.9,1.5-8.3,1.3-11.9-0.7
					C64.3,47.3,63.7,48.3,64.3,48.6"/>
				<path id="Fill-55" class="st2" d="M63.2,31.6c0.6-2.6,3.4-4,5.7-2.8c0.7,0.4,1.3-0.7,0.6-1c-3-1.6-6.6,0.1-7.4,3.5
					C61.9,32,63.1,32.3,63.2,31.6"/>
				<path id="Fill-56" class="st2" d="M74.9,28.8c0.7-1.5,2.5-1.8,3.6-0.5c0.5,0.6,1.4-0.3,0.9-0.9c-1.6-1.8-4.5-1.4-5.6,0.8
					C73.5,28.9,74.6,29.5,74.9,28.8"/>
				<path id="Fill-57" class="st2" d="M70.8,34c0-1.1-0.7-1.9-1.5-1.9c-0.8,0-1.5,0.9-1.5,1.9c0,1.1,0.7,1.9,1.5,1.9
					C70.2,35.9,70.8,35,70.8,34"/>
				<path id="Fill-58" class="st2" d="M78.1,31.1c-0.8,0-1.5,0.9-1.5,1.9c0,1.1,0.7,1.9,1.5,1.9c0.8,0,1.5-0.9,1.5-1.9
					C79.6,31.9,78.9,31.1,78.1,31.1"/>
				<path id="Fill-59" class="st2" d="M49.4,187.1c-2.3-0.4-4.6-1-6.8-1.7c-1.8-0.6-2.6,2.4-0.8,3c2.2,0.7,4.5,1.3,6.8,1.7
					c0.8,0.1,1.6-0.2,1.8-1.1C50.6,188.3,50.2,187.3,49.4,187.1"/>
				<path id="Fill-60" class="st2" d="M64.5,188c-2.5,0.2-4.9-0.1-7.3-0.7c-1.9-0.5-2.7,2.5-0.8,3c2.6,0.7,5.4,0.9,8.1,0.8
					c0.8-0.1,1.5-0.7,1.5-1.6C66,188.7,65.3,187.9,64.5,188"/>
				<path id="Fill-61" class="st2" d="M82,188.3c-3.6,0.4-7.1,0.6-10.7,0.5c-1.9,0-1.9,3.3,0,3.4c3.6,0.1,7.2-0.1,10.7-0.5
					c0.8-0.1,1.5-0.7,1.5-1.7C83.5,189.1,82.8,188.2,82,188.3"/>
				<path id="Fill-62" class="st2" d="M93.1,187.4c-0.2-0.8-1.1-1.3-1.8-1.1c-1.6,0.6-3.2,1.2-4.8,1.8c-0.8,0.3-1.3,1-1,1.9
					c0.2,0.8,1.1,1.3,1.8,1.1c1.6-0.6,3.2-1.2,4.8-1.8C92.8,189.1,93.3,188.3,93.1,187.4"/>
				<path id="Fill-63" class="st2" d="M42.8,103.3c-0.5-2.2-0.8-4.4-0.9-6.7c-0.1-0.8-1.2-0.8-1.2,0c0.5,7.7,2.8,15,6.4,21.7
					c1,1.9,2.1,3.8,3.2,5.6c0.4,0.7,1.4,0.1,1-0.6C47.5,117.1,44.3,110.5,42.8,103.3"/>
				<path id="Fill-64" class="st2" d="M272,190.7c-1.6,1.9-2.9,4-3.8,6.3c-1.4-2.1-2.7-4.2-3.3-6.6c-0.6-2.5-0.4-5.4,1.3-7.4
					c0.9-1,2-1.8,3-2.6c1-0.8,2-1.6,3-2.5c1.9-1.7,3.7-3.7,5.2-5.8c1.6-2.2,2.9-4.5,4-6.9c1,1,2.4,1.3,3.7,1.5
					c1.5,0.3,2.8,0.6,4,1.6c1.1,0.8,2,1.9,3.2,2.5c1,0.6,2.2,0.8,3.4,0.6C288.7,178.9,278.6,182.8,272,190.7z M311.8,143.4
					c-0.6-3.9-1.2-7.8-1.7-11.8c-1.3-8.8-2.6-17.7-3.9-26.5c-0.1-0.8-1.3-0.4-1.2,0.3c1.1,7.3,2.2,14.7,3.2,22
					c0.5,3.6,1.1,7.3,1.6,10.9c0.5,3.6,1.2,7.1,1.3,10.7c0.1,3.3-0.3,6.5-2,9.3c-1.4,2.5-3.5,4.6-5.7,6.5c-1.1,1-2.3,1.9-3.5,2.7
					c-1.2,0.9-2.5,2-4,2.5c-2.9,0.9-4.7-1.7-6.8-3.2c-1.3-0.9-2.7-1.2-4.2-1.4c-1.5-0.3-3-0.7-3.5-2.3c-1-3.4,2.4-5.6,5.2-6.4
					c0.4-0.1,0.6-0.7,0.3-1c-0.3-0.2-0.5-0.5-0.8-0.7c2.2-1.3,4.4-2.8,5.4-5.1c0.7-1.6,0.6-3.3,0.3-4.9c-0.3-1.8-0.9-3.6-1.4-5.4
					c0,0,0,0,0,0c0-0.1,0-0.2-0.1-0.3c-1-3.6-1.9-7.2-2.9-10.7c-0.9-3.4-1.8-6.9-3.4-10.1c-1.6-3.1-3.9-6.2-3.9-9.8
					c0-0.8-1.2-0.8-1.2,0c0,3.1,1.5,5.9,3,8.5c0.8,1.4,1.6,2.8,2.1,4.3c0.6,1.6,1.1,3.3,1.6,5c1,3.6,1.9,7.2,2.9,10.8
					c0.2,0.8,0.4,1.7,0.7,2.5c-0.9,4-1.6,8-2.2,12.1c-0.1,0.8,1,1.1,1.2,0.3c0.5-3.3,1.1-6.6,1.8-9.9c0,0.1,0.1,0.2,0.1,0.3
					c0.4,1.7,1,3.4,0.9,5.1c-0.2,3.4-3.4,5.3-6.1,6.8c-0.3,0.2-0.4,0.7-0.1,0.9c0.2,0.2,0.4,0.4,0.6,0.6c-2.4,0.9-4.8,2.6-5.2,5.3
					c-0.1,0.9-0.1,1.9,0.3,2.8c-2.2,4.9-5.3,9.4-9.3,13c-1,0.9-2.1,1.8-3.2,2.6c-0.4,0.3-0.8,0.6-1.1,0.9c-0.1-0.2-0.4-0.4-0.7-0.3
					c-7.7,1.7-15.6-0.3-22.8-3c-2.1-0.8-4.2-1.6-6.2-2.5c-0.4-0.2-0.7,0.2-0.7,0.6c0,0-0.1,0-0.1,0c0.1-0.1,0.2-0.2,0.2-0.3
					c1.3-7.8,2.6-15.6,2.9-23.4c0.2-3.9,0.1-7.9-0.4-11.8c-0.5-3.9-1.4-7.6-2.5-11.3c-1.1-3.6-2.2-7.3-2.5-11.1
					c-0.3-3.8,0.4-7.6,1.6-11.2c1.1-3.6,2.6-7.1,4.1-10.5c1.4-3.3,3.1-6.6,5.5-9.2c2.2-2.4,4.9-4.2,8.1-4.9c1.2-0.3,2.5-0.4,3.8-0.6
					c0,1.8,1.6,3,3.2,3.5c2.1,0.6,4.4,0.7,6.5,0.4c4.5-0.6,8.6-2.6,12.7-4.2c2.3-0.9,4.7-1.8,7.2-2.2c0.8-0.1,0.4-1.3-0.3-1.2
					c-7.9,1.4-14.9,7.1-23.2,6.5c-1.1-0.1-2.2-0.3-3.2-0.7c-0.9-0.4-2-1.2-1.8-2.4c1.1-0.3,2.2-0.7,3.1-1.3c0.6-0.4,1-0.9,1.5-1.4
					c0.1-0.1,0.1-0.2,0.1-0.2c0.3,0,0.6-0.2,0.6-0.6c-0.2-2.7-0.5-5.4-0.9-8.1c0.1,0,0.3-0.1,0.4-0.1c3.8-1.4,6.7-4.5,9-7.7
					c0.5-0.6-0.6-1.2-1-0.6c-2,2.7-4.4,5.2-7.4,6.7c-0.4,0.2-0.9,0.4-1.4,0.6c-0.2-0.1-0.6,0-0.7,0.2c-2.4,0.7-5.1,0.5-7.3-0.7
					c-2.9-1.7-4.4-5.1-5.5-8.2c-1.2-3.5-1.9-7.3-2.2-11c-0.2-2.4-0.3-4.7-0.4-7.1c0.3,0.2,0.7,0.3,0.9-0.1c0.7-1.2,2.3-1.3,3.1-0.1
					c0.4,0.6,1.5,0,1-0.6c-1.3-1.8-3.9-1.8-5.1,0c0-1.6,0-3.3,0-4.9c0-0.8-1.2-0.8-1.2,0c0,8,0.1,16.3,2.7,24
					c1.1,3.3,2.6,6.7,5.6,8.7c2.5,1.6,5.6,1.9,8.4,1.2c0.4,2.6,0.7,5.1,0.9,7.7c-0.2,0-0.4,0.1-0.5,0.3c-1.7,2.3-5.1,2.4-7.7,2.9
					c-3.2,0.5-5.9,1.8-8.3,4c-2.6,2.3-4.5,5.3-6,8.4c-1.6,3.3-3,6.9-4.3,10.3c-1.3,3.5-2.4,7.2-2.7,11c-0.3,3.8,0.5,7.5,1.5,11.2
					c1,3.7,2.2,7.4,2.9,11.2c0.6,3.1,0.9,6.2,1,9.3c-5.7,1.1-11.5,1.6-17.3,1.6c-0.8,0-0.8,1.2,0,1.2c5.8,0.1,11.6-0.5,17.3-1.6
					c0,0.4,0,0.8,0,1.3c0,2.5-0.1,5-0.3,7.6c-2.4-0.2-4.9-0.5-7.3-0.9c-2.4-0.4-4.9-0.8-7.4-0.3c-4.7,1-7.2,5.7-11.6,7.1
					c-2,0.6-4.5,0.4-5.8-1.4c-0.4-0.6-1.5,0-1,0.6c0.8,1.2,2,1.9,3.3,2.2c0,0-0.1,0-0.1,0c-3.3,1.8-6.8-0.8-9.4-2.8
					c-0.6-0.5-1.2,0.6-0.6,1c3,2.3,6.8,4.8,10.6,2.8c0.4-0.2,0.3-0.7,0.1-1c0.3,0,0.7,0.1,1,0.1c2.3,0,4.3-1.2,6.1-2.6
					c1.9-1.5,3.6-3.2,5.8-4.3c2.4-1.2,5.2-0.9,7.8-0.5c2.8,0.4,5.6,0.8,8.4,1.1c-0.4,5-1.2,10-2,14.9c-0.2,1-0.3,2-0.5,3
					c-0.1,0.4,0.2,0.7,0.6,0.7c-0.2,0.1-0.3,0.3-0.2,0.5c0.6,9.7,1.7,19.3,3.3,28.9c0.5,2.7,1,5.5,1.5,8.2c0.2,0.8,1.3,0.4,1.2-0.3
					c-1.9-9.4-3.3-19-4.2-28.6c-0.2-2.7-0.4-5.4-0.6-8.1c7.4,3,15,6,23,6.1c2,0,4-0.1,5.9-0.5c-0.3,0.3-0.6,0.6-0.8,0.9
					c-1.6,2.1-2,4.9-1.5,7.4c0.6,3.2,2.5,6.1,4.3,8.7c0.3,0.4,0.9,0.4,1.1-0.1c3.3-9.8,13.1-14.7,20.9-20.4c1.9,9,1.6,18.3-0.7,27.2
					c-0.7,2.5-1.5,5.1-2.5,7.5c-0.3,0.7,0.9,1,1.2,0.3c3.6-8.8,5-18.5,4.2-28c-0.2-2.6-0.6-5.3-1.2-7.9c2.4-1.8,4.6-3.8,6.6-6
					c0.1-0.1,0.2-0.3,0.2-0.5c1.1-0.6,2.1-1.4,3.1-2.1c4.9-3.7,10-8,11.3-14.4C312.8,150.7,312.4,147,311.8,143.4L311.8,143.4z"/>
				<path id="Fill-65" class="st2" d="M204,165.3c-3.4,1.1-6.5-1.2-9.1-3.2c-0.6-0.5-1.2,0.6-0.6,1.1c2.9,2.2,6.3,4.5,10,3.3
					C205,166.3,204.7,165.1,204,165.3"/>
				<path id="Fill-66" class="st2" d="M218.4,149.1c0.7,0.3,1.3-0.7,0.6-1.1c-3.7-1.7-7.4,0.6-10.3,2.8c-1.5,1.1-3.1,2.4-5,2.9
					c-0.9,0.3-1.9,0.3-2.7,0.8c-0.7,0.4-1.2,1.1-1.1,2c0.1,0.8,1.3,0.8,1.2,0c-0.1-0.9,1-1.2,1.7-1.3c0.8-0.2,1.6-0.4,2.3-0.7
					c1.5-0.7,2.9-1.7,4.2-2.6C211.8,150.1,215.1,147.7,218.4,149.1"/>
				<path id="Fill-67" class="st2" d="M206.5,159.1c0.5-0.2,0.9-0.5,1.4-0.9c0.4-0.3,1-0.8,0.7-1.5c-0.3-0.7-1-0.5-1.6-0.4
					c-0.3,0.1-0.6,0.2-0.9,0.2c-0.1,0-0.3,0.1-0.4,0.1c-0.1,0-0.3,0-0.1,0c-0.8-0.2-1.1,1.1-0.3,1.3c0.2,0.1,0.4,0,0.7,0
					C205.5,158.5,205.8,159.4,206.5,159.1"/>
				<path id="Fill-68" class="st2" d="M243.4,198.9c-2-2-2.1-5.1-2.2-7.8c-0.1-3.7-0.3-7.3-0.4-11c0-0.8-1.1-0.8-1.1,0
					c0.1,3.9,0.3,7.7,0.4,11.6c0.1,2.8,0.4,6,2.5,8.1C243.1,200.3,243.9,199.4,243.4,198.9"/>
				<path id="Fill-69" class="st2" d="M244.6,199.4c-0.1-0.8-1.1-0.4-1,0.3c0.6,4.4,1.3,8.9,1.9,13.3c0.1,0.8,1.1,0.5,1-0.3
					C245.8,208.3,245.2,203.8,244.6,199.4"/>
				<path id="Fill-70" class="st2" d="M251.5,57c1.1,0.5,2.4,0.3,3.4-0.3c0.7-0.4,0.1-1.4-0.6-1c-0.4,0.2-0.9,0.4-1.4,0.4
					c-0.4,0-1-0.1-1.3-0.4c-0.3-0.3-0.1-0.9,0-1.3c0.1-0.6,0.2-1.1,0.3-1.7c0.4-2.1,0.8-4.3,1.2-6.4c0.1-0.8-1-1.1-1.1-0.3
					c-0.5,2.8-1.1,5.7-1.5,8.5C250.2,55.6,250.5,56.6,251.5,57"/>
				<path id="Fill-71" class="st2" d="M253.2,60.4c-0.7-0.3-1.3,0.7-0.6,1c1.4,0.7,3,0.9,4.5,0.5c1.6-0.5,2.8-1.5,3.8-2.8
					c0.4-0.6-0.6-1.2-1-0.6C258.3,60.6,255.7,61.6,253.2,60.4"/>
				<path id="Fill-72" class="st2" d="M256,40.8c2-1.6,4.8-0.8,5.9,1.6c0.3,0.7,1.3,0.1,1-0.6c-1.3-2.9-4.9-3.9-7.5-2
					C254.9,40.3,255.4,41.3,256,40.8"/>
				<path id="Fill-73" class="st2" d="M258,47.5c0.8-0.1,1.2-1.1,1-2.2c-0.2-1.1-1-1.8-1.8-1.7c-0.8,0.1-1.2,1.1-1,2.2
					C256.4,46.9,257.2,47.7,258,47.5"/>
				<path id="Fill-74" class="st2" d="M250.3,45.4c-0.2-1.1-1-1.8-1.8-1.7c-0.8,0.1-1.2,1.1-1,2.2c0.2,1.1,1,1.8,1.8,1.7
					C250,47.4,250.5,46.4,250.3,45.4"/>
				<path id="Fill-75" class="st2" d="M90.4,105.6c2.4-5.2,4.8-10.3,7.2-15.5c0.1-0.3,0.1-0.5-0.1-0.7c0.1,0,0.2,0.1,0.3,0.1
					c8,0.5,16,1.3,24,2.6c2.2,0.4,4.4,0.7,6.6,1.2c-4.8,6.7-9.6,13.4-14.3,20.1c-1.4,1.9-2.8,3.9-4.2,5.8c-0.1-0.1-0.2-0.1-0.3-0.2
					c-2.4-1.7-5.5-0.8-8,0.2c-0.7,0.3-0.4,1.4,0.3,1.2c2-0.8,4.2-1.7,6.3-0.8c0.8,0.4,1.5,1,1.8,1.9c0.1,0.5,0.1,1.1-0.1,1.6
					c-0.3,0-0.7,0.2-0.7,0.6c0,0.1,0,0.2,0,0.4c-0.1,0.1-0.1,0.2-0.1,0.4c-0.7,3.7-3.9,6.4-7.7,6.4c-0.8,0-0.8,1.2,0,1.2
					c4.4,0,8-3.2,8.8-7.4c1.2-1.2,1.2-3.1,0.4-4.5c0,0,0.1-0.1,0.1-0.1c5-7,9.9-13.9,14.9-20.9c1.4-2,2.9-4,4.3-6
					c0.4-0.5-0.3-1.1-0.8-0.8c-0.1,0-0.1-0.1-0.2-0.1c-8-1.5-16.1-2.6-24.2-3.4c-2.3-0.2-4.6-0.4-6.9-0.5c-0.6,0-0.7,0.6-0.4,1
					c-0.3-0.2-0.6-0.2-0.8,0.2c-2.4,5.2-4.8,10.3-7.2,15.5C89,105.6,90,106.3,90.4,105.6"/>
				<path id="Fill-76" class="st2" d="M100.8,123.1c1.8-1.5,4.1-1.9,6.2-1.1c0.7,0.3,1-1,0.3-1.2c-2.4-0.9-5.1-0.4-7.1,1.2
					C99.6,122.5,100.2,123.6,100.8,123.1"/>
				<path id="Fill-77" class="st2" d="M98.9,126.1c1.6-0.9,3.4-1.5,5.3-1.7c0.8-0.1,0.8-1.2,0-1.2c-2.1,0.2-4.1,0.8-5.9,1.8
					C97.6,125.4,98.2,126.4,98.9,126.1"/>
				<path id="Fill-78" class="st2" d="M97.8,128.1c1.8-0.3,3.7-0.6,5.5-0.9c0.8-0.1,0.5-1.1-0.3-1c-1.8,0.3-3.7,0.6-5.5,0.9
					C96.7,127.2,97,128.2,97.8,128.1"/>
				<path id="Fill-79" class="st2" d="M288.5,78.7c7.5,3.3,13.3,9.9,15.7,17.7c0.7,2.2,1.1,4.5,1.2,6.8c0,0.8,1.2,0.8,1.2,0
					c-0.4-8.5-4.7-16.6-11.4-21.9c-1.9-1.5-3.9-2.7-6.1-3.7C288.4,77.4,287.8,78.4,288.5,78.7"/>
				<path id="Fill-81" class="st2" d="M55.4,8.6c6.9-5.2,15.4-6.5,23.7-7.3c0.8-0.1,0.6-1.3-0.2-1.3c-8.5,0.8-17.2,2.2-24.3,7.6
					C53.9,8.1,54.7,9.1,55.4,8.6"/>
			</g>
		</g>
	</g>
</g>
</svg>
