<svg xmlns="http://www.w3.org/2000/svg" width="14.986" height="22.056" viewBox="0 0 14.986 22.056">
  <path id="_-e-Shape_958" data-name="-e-Shape 958" d="M136.014,492.164H127.84a.689.689,0,0,0,0,1.378h8.174a.689.689,0,0,0,0-1.378Zm.681-13.785V477h-1.362v1.378h-2.725V477h-1.362v1.378h-2.725V477h-1.362v1.378a2.741,2.741,0,0,0-2.725,2.757V496.3a2.741,2.741,0,0,0,2.725,2.757H136.7a2.741,2.741,0,0,0,2.725-2.757V481.136A2.741,2.741,0,0,0,136.7,478.379Zm1.362,17.92a1.371,1.371,0,0,1-1.362,1.379h-9.537A1.371,1.371,0,0,1,125.8,496.3V481.136a1.371,1.371,0,0,1,1.362-1.378H136.7a1.37,1.37,0,0,1,1.362,1.378Zm-2.044-8.271H127.84a.689.689,0,0,0,0,1.379h8.174a.689.689,0,0,0,0-1.379Zm0-4.135H127.84a.689.689,0,0,0,0,1.378h8.174a.689.689,0,0,0,0-1.378Z" transform="translate(-124.434 -477)" fill="#a1835c"/>
</svg>
