<svg xmlns="http://www.w3.org/2000/svg" width="15.422" height="22.698" viewBox="0 0 15.422 22.698">
  <path id="_-e-Shape_959" data-name="-e-Shape 959" d="M419.929,498.28h-1.4v-4.965a4.936,4.936,0,0,0-4.907-4.965,4.936,4.936,0,0,0,4.907-4.965v-4.965h1.4a.709.709,0,0,0,0-1.419h-14.02a.709.709,0,0,0,0,1.419h1.4v4.965a4.936,4.936,0,0,0,4.907,4.965,4.936,4.936,0,0,0-4.907,4.965v4.965h-1.4a.709.709,0,0,0,0,1.419h14.02a.709.709,0,0,0,0-1.419Zm-11.216-14.9v-4.965h8.412v4.965a3.615,3.615,0,0,1-3.68,3.547h-1.052A3.615,3.615,0,0,1,408.712,483.384Zm8.412,14.9h-8.412v-4.965a3.615,3.615,0,0,1,3.68-3.547h1.052a3.615,3.615,0,0,1,3.68,3.547Z" transform="translate(-405.207 -477)" fill="#a1835c"/>
</svg>
