<svg xmlns="http://www.w3.org/2000/svg" width="13.668" height="18" viewBox="0 0 13.668 18">
  <path id="Fill_1100" data-name="Fill 1100" d="M6.834,18a1.45,1.45,0,0,1-.972-.376,23.31,23.31,0,0,1-3.456-3.956A12.3,12.3,0,0,1,0,6.834a6.834,6.834,0,0,1,13.668,0,12.31,12.31,0,0,1-2.406,6.835,23.319,23.319,0,0,1-3.457,3.956A1.447,1.447,0,0,1,6.834,18Zm0-16.481A5.321,5.321,0,0,0,1.518,6.834,10.756,10.756,0,0,0,3.662,12.81a21.351,21.351,0,0,0,3.172,3.645,21.224,21.224,0,0,0,3.172-3.645,10.756,10.756,0,0,0,2.144-5.976A5.321,5.321,0,0,0,6.834,1.518Zm0,8.353A3.037,3.037,0,1,1,9.871,6.834,3.04,3.04,0,0,1,6.834,9.871Zm0-4.556A1.519,1.519,0,1,0,8.353,6.834,1.52,1.52,0,0,0,6.834,5.315Z" fill="#a1835c"/>
</svg>
