<svg xmlns="http://www.w3.org/2000/svg" width="21.351" height="21.351" viewBox="0 0 21.351 21.351">
  <path id="Icon_awesome-info-circle" data-name="Icon awesome-info-circle" d="M11.238.563A10.675,10.675,0,1,0,21.913,11.238,10.677,10.677,0,0,0,11.238.563Zm0,4.735A1.808,1.808,0,1,1,9.43,7.105,1.808,1.808,0,0,1,11.238,5.3Zm2.411,10.934a.517.517,0,0,1-.517.517H9.344a.517.517,0,0,1-.517-.517V15.2a.517.517,0,0,1,.517-.517H9.86V11.927H9.344a.517.517,0,0,1-.517-.517V10.377a.517.517,0,0,1,.517-.517H12.1a.517.517,0,0,1,.517.517v4.3h.517a.517.517,0,0,1,.517.517Z" transform="translate(-0.563 -0.563)" fill="#968e3b"/>
</svg>
