<svg xmlns="http://www.w3.org/2000/svg" width="22.12" height="19.658" viewBox="0 0 22.12 19.658">
  <path id="Icon_awesome-edit" data-name="Icon awesome-edit" d="M15.461,3.2l3.464,3.464a.375.375,0,0,1,0,.53l-8.387,8.387-3.564.4a.747.747,0,0,1-.826-.826l.4-3.564L14.931,3.2A.375.375,0,0,1,15.461,3.2Zm6.221-.879L19.808.445a1.5,1.5,0,0,0-2.12,0L16.329,1.8a.375.375,0,0,0,0,.53L19.793,5.8a.375.375,0,0,0,.53,0l1.359-1.359a1.5,1.5,0,0,0,0-2.12ZM14.747,13.3v3.909H2.458V4.919h8.825a.472.472,0,0,0,.326-.134l1.536-1.536a.461.461,0,0,0-.326-.787H1.843A1.844,1.844,0,0,0,0,4.3V17.822a1.844,1.844,0,0,0,1.843,1.843H15.361A1.844,1.844,0,0,0,17.2,17.822v-6.06a.462.462,0,0,0-.787-.326l-1.536,1.536A.472.472,0,0,0,14.747,13.3Z" transform="translate(0 -0.007)" fill="#682300"/>
</svg>
