<svg xmlns="http://www.w3.org/2000/svg" width="21" height="21" viewBox="0 0 21 21">
  <path id="Icon_awesome-question-circle" data-name="Icon awesome-question-circle" d="M21.563,11.063a10.5,10.5,0,1,1-10.5-10.5A10.5,10.5,0,0,1,21.563,11.063ZM11.344,4.034a5.484,5.484,0,0,0-4.935,2.7.509.509,0,0,0,.115.688L7.994,8.536a.508.508,0,0,0,.706-.09c.756-.959,1.275-1.516,2.426-1.516.865,0,1.935.557,1.935,1.4,0,.634-.523.96-1.377,1.439-1,.558-2.314,1.253-2.314,2.992v.169a.508.508,0,0,0,.508.508h2.371a.508.508,0,0,0,.508-.508v-.056c0-1.205,3.522-1.255,3.522-4.516C16.278,5.9,13.731,4.034,11.344,4.034Zm-.282,10.5a1.948,1.948,0,1,0,1.948,1.948A1.95,1.95,0,0,0,11.063,14.534Z" transform="translate(-0.563 -0.563)" fill="#968e3b"/>
</svg>
