<svg xmlns="http://www.w3.org/2000/svg" width="30" height="31.667" viewBox="0 0 30 31.667">
  <path id="Icon_material-location-city" data-name="Icon material-location-city" d="M24.5,18V8l-5-5-5,5v3.333H4.5V34.667h30V18ZM11.167,31.333H7.833V28h3.333Zm0-6.667H7.833V21.333h3.333Zm0-6.667H7.833V14.667h3.333Zm10,13.333H17.833V28h3.333Zm0-6.667H17.833V21.333h3.333Zm0-6.667H17.833V14.667h3.333Zm0-6.667H17.833V8h3.333Zm10,20H27.833V28h3.333Zm0-6.667H27.833V21.333h3.333Z" transform="translate(-4.5 -3)" fill="#a1835c"/>
</svg>
