<svg xmlns="http://www.w3.org/2000/svg" width="23.432" height="20.541" viewBox="0 0 23.432 20.541">
  <path id="Icon_map-food" data-name="Icon map-food" d="M24.1,8.307,22.179,23.365H15.691L13.778,8.232H21.7l1.566-5.407.887.268-1.5,5.2Zm-11.24,8.712s.243-1.953-3.122-1.953H4.381c-3.36,0-3.122,1.953-3.122,1.953Zm-11.6,4.393s-.238,1.953,3.122,1.953H9.739c3.364,0,3.122-1.953,3.122-1.953H1.259Zm11.1-.976a1.123,1.123,0,0,0,1-1.22,1.121,1.121,0,0,0-1-1.221H1.716a1.123,1.123,0,0,0-1,1.221,1.125,1.125,0,0,0,1,1.22H12.357Z" transform="translate(-0.72 -2.825)" fill="#682300"/>
</svg>
