<svg xmlns="http://www.w3.org/2000/svg" width="23.414" height="23.414" viewBox="0 0 23.414 23.414">
  <g id="Icon_feather-image" data-name="Icon feather-image" transform="translate(-3.5 -3.5)">
    <path id="Path_4042" data-name="Path 4042" d="M6.833,4.5H23.167A2.333,2.333,0,0,1,25.5,6.833V23.167A2.333,2.333,0,0,1,23.167,25.5H6.833A2.333,2.333,0,0,1,4.5,23.167V6.833A2.333,2.333,0,0,1,6.833,4.5Z" fill="none" stroke="#c8d1db" stroke-linecap="round" stroke-linejoin="round" stroke-width="2"/>
    <path id="Path_4043" data-name="Path 4043" d="M14,12.25a1.75,1.75,0,1,1-1.75-1.75A1.75,1.75,0,0,1,14,12.25Z" transform="translate(-1.333 -1.333)" fill="none" stroke="#c8d1db" stroke-linecap="round" stroke-linejoin="round" stroke-width="2"/>
    <path id="Path_4044" data-name="Path 4044" d="M26.167,20.833,20.333,15,7.5,27.833" transform="translate(-0.667 -2.333)" fill="none" stroke="#c8d1db" stroke-linecap="round" stroke-linejoin="round" stroke-width="2"/>
  </g>
</svg>
