<svg xmlns="http://www.w3.org/2000/svg" width="26" height="24.909" viewBox="0 0 26 24.909">
  <g id="Icon_feather-shopping-cart" data-name="Icon feather-shopping-cart" transform="translate(-0.5 -0.5)">
    <path id="Path_21" data-name="Path 21" d="M14.182,31.091A1.091,1.091,0,1,1,13.091,30,1.091,1.091,0,0,1,14.182,31.091Z" transform="translate(-2.864 -7.773)" fill="none" stroke="#682300" stroke-linecap="round" stroke-linejoin="round" stroke-width="2"/>
    <path id="Path_22" data-name="Path 22" d="M30.682,31.091A1.091,1.091,0,1,1,29.591,30,1.091,1.091,0,0,1,30.682,31.091Z" transform="translate(-7.364 -7.773)" fill="none" stroke="#682300" stroke-linecap="round" stroke-linejoin="round" stroke-width="2"/>
    <path id="Path_23" data-name="Path 23" d="M1.5,1.5H5.864L8.787,16.107a2.182,2.182,0,0,0,2.182,1.756h10.6a2.182,2.182,0,0,0,2.182-1.756L25.5,6.955H6.955" fill="none" stroke="#682300" stroke-linecap="round" stroke-linejoin="round" stroke-width="2"/>
  </g>
</svg>
