<svg xmlns="http://www.w3.org/2000/svg" width="197.252" height="56.679" viewBox="0 0 197.252 56.679">
  <g id="logo_شغل_بيت" data-name="logo شغل بيت" transform="translate(-589.14 -171.233)">
    <path id="Path_484" data-name="Path 484" d="M64.662,548.675h.649v1.176h-2v-4.236H58.838v4.227H56.77v-1.176h.7V540h1.373v4.445h4.473V540h1.351Z" transform="translate(532.411 -323.983)" fill="#d1aa67"/>
    <path id="Path_485" data-name="Path 485" d="M121.993,549.36a2.464,2.464,0,0,1-1.248-1.447,12.012,12.012,0,0,1,.012-6.283,2.611,2.611,0,0,1,1.248-1.5,5.025,5.025,0,0,1,2.184-.4,5.244,5.244,0,0,1,2.227.4,2.5,2.5,0,0,1,1.248,1.491,9.513,9.513,0,0,1,.406,3.157,9.358,9.358,0,0,1-.409,3.147,2.464,2.464,0,0,1-1.248,1.447,6.531,6.531,0,0,1-4.42-.009Zm3.725-1.064a1.672,1.672,0,0,0,.758-1.064,8.987,8.987,0,0,0,.246-2.458,9.43,9.43,0,0,0-.246-2.533,1.635,1.635,0,0,0-.758-1.07,3.462,3.462,0,0,0-1.51-.256,3.331,3.331,0,0,0-1.457.256,1.7,1.7,0,0,0-.783,1.086,8.8,8.8,0,0,0-.268,2.517,9.315,9.315,0,0,0,.237,2.464,1.628,1.628,0,0,0,.742,1.057,3.409,3.409,0,0,0,1.529.265A3.357,3.357,0,0,0,125.717,548.3Z" transform="translate(488.68 -323.794)" fill="#d1aa67"/>
    <path id="Path_486" data-name="Path 486" d="M191.228,548.675h.727v1.176h-1.912l-.833-7.3-2.112,7.3h-1.2l-2.152-7.237-.8,7.237h-1.75v-1.176h.565l.989-8.672h1.323l2.433,7.883,2.38-7.886h1.338Z" transform="translate(446.802 -323.983)" fill="#d1aa67"/>
    <path id="Path_487" data-name="Path 487" d="M256.745,541.219H254.3q-.936,0-.936,1.017v2.143l4.283.062v1.051l-4.283.066v2.124a.982.982,0,0,0,.262.811,1.2,1.2,0,0,0,.736.2h2.393v-.537h1.466v1.61q-2.63.14-4.108.14a2.614,2.614,0,0,1-1.491-.415,1.75,1.75,0,0,1-.624-1.56V542.07a1.915,1.915,0,0,1,.593-1.56,2.2,2.2,0,0,1,1.457-.493q2.087.037,3.254.09l.917.031v1.516h-1.466Z" transform="translate(398.081 -323.994)" fill="#d1aa67"/>
    <path id="Path_488" data-name="Path 488" d="M317.851,548.675h.724v1.176h-1.909l-.833-7.3-2.115,7.3h-1.2l-2.152-7.237-.8,7.237H307.81v-1.176h.568l.986-8.672h1.326l2.43,7.883,2.4-7.886h1.335Z" transform="translate(359.68 -323.983)" fill="#d1aa67"/>
    <path id="Path_489" data-name="Path 489" d="M383.347,548.675l-.555-1.56H379.17l-.605,1.56h.8v1.164h-2.52L380.215,540h1.56l3.366,9.848h-2.552v-1.176Zm-.9-2.748L381,541.56l-1.472,4.367Z" transform="translate(312.184 -323.983)" fill="#d1aa67"/>
    <path id="Path_490" data-name="Path 490" d="M443.489,540a2.757,2.757,0,0,1,2.549,1.248,7.1,7.1,0,0,1,.767,3.675,6.689,6.689,0,0,1-.836,3.625,2.751,2.751,0,0,1-2.48,1.3H438.81v-1.176h.711v-7.487h-.459V540Zm-.078,8.672a1.65,1.65,0,0,0,1.525-.976,5.957,5.957,0,0,0,.518-2.773,8.974,8.974,0,0,0-.221-2.23,2.136,2.136,0,0,0-.664-1.16,1.825,1.825,0,0,0-1.157-.34H440.9v7.487Z" transform="translate(269.545 -323.983)" fill="#d1aa67"/>
    <path id="Path_491" data-name="Path 491" d="M507.071,541.219h-2.446q-.936,0-.936,1.017v2.143l4.283.062v1.051l-4.283.066v2.124a.973.973,0,0,0,.265.811,1.182,1.182,0,0,0,.733.2h2.4v-.537h1.463v1.61q-2.63.14-4.105.14a2.617,2.617,0,0,1-1.5-.418,1.75,1.75,0,0,1-.624-1.56V542.07a1.9,1.9,0,0,1,.593-1.56,2.208,2.208,0,0,1,1.457-.493c1.394.025,2.477.056,3.254.09l.917.031v1.516h-1.463Z" transform="translate(225.846 -323.994)" fill="#d1aa67"/>
    <path id="Path_492" data-name="Path 492" d="M76.969,449.044h4.607c.39.09.586.278.586.555v12.946h4.963c.39.1.586.29.586.568v2.021c0,.368-.212.555-.624.555h-21.6q-5.992,0-8.463-5.8a14.574,14.574,0,0,1-.384-2.714q0-5.362,5.98-7.892a4.414,4.414,0,0,0,1.307-.368l.312.624v2.084q0,.312-2.28,1.51a5.238,5.238,0,0,0-2.006,4.18q0,3.912,4.164,5.131a3.583,3.583,0,0,0,1,.109H78.885v-9.389h-1.9Zm-7.833-1.111a1.806,1.806,0,0,1,.624,1.373,1.741,1.741,0,0,1-.6,1.326,2.025,2.025,0,0,1-1.494.624,1.965,1.965,0,0,1-1.494-.624,1.756,1.756,0,0,1-.586-1.326,1.822,1.822,0,0,1,.6-1.373,2.124,2.124,0,0,1,1.485-.555A2.233,2.233,0,0,1,69.136,447.934Zm6,0a1.812,1.812,0,0,1,.624,1.373,1.747,1.747,0,0,1-.6,1.326,2.037,2.037,0,0,1-1.5.624,1.965,1.965,0,0,1-1.494-.624,1.766,1.766,0,0,1-.586-1.326,1.822,1.822,0,0,1,.6-1.373,2.131,2.131,0,0,1,1.479-.555A2.212,2.212,0,0,1,75.135,447.934Z" transform="translate(532.5 -260.253)" fill="#7b3200"/>
    <path id="Path_493" data-name="Path 493" d="M162.887,469.437H148.1c-.421,0-.624-.187-.624-.555v-2.049a.624.624,0,0,1,.624-.54h6.6v-9.361h-1.709V452.82h5.225v13.47h4.732c.381.1.571.29.571.568v2.021C163.52,469.25,163.308,469.437,162.887,469.437ZM153.915,471a1.8,1.8,0,0,1,.624,1.369,1.756,1.756,0,0,1-.6,1.329,2.046,2.046,0,0,1-1.494.624,1.981,1.981,0,0,1-1.5-.624,1.753,1.753,0,0,1-.6-1.329,1.8,1.8,0,0,1,.624-1.369,2.134,2.134,0,0,1,1.482-.555,2.246,2.246,0,0,1,1.463.568Zm5.365,0a1.806,1.806,0,0,1,.624,1.369,1.753,1.753,0,0,1-.6,1.329,2.049,2.049,0,0,1-1.5.624,1.978,1.978,0,0,1-1.494-.624,1.775,1.775,0,0,1-.586-1.329,1.816,1.816,0,0,1,.6-1.369,2.13,2.13,0,0,1,1.479-.555,2.212,2.212,0,0,1,1.472.568Z" transform="translate(469.997 -263.998)" fill="#7b3200"/>
    <path id="Path_494" data-name="Path 494" d="M203.539,452.82h5.228v16.109a.561.561,0,0,1-.624.508H195.494c-.421,0-.624-.187-.624-.555v-2.049a.624.624,0,0,1,.624-.54h9.758v-9.361h-1.713Zm-1.51,17.634a2.268,2.268,0,0,1,1.5.555,1.825,1.825,0,0,1,.6,1.369,1.753,1.753,0,0,1-.6,1.329,2.049,2.049,0,0,1-1.5.624,1.978,1.978,0,0,1-1.494-.624,1.775,1.775,0,0,1-.586-1.329,1.816,1.816,0,0,1,.6-1.369A2.131,2.131,0,0,1,202.029,470.454Z" transform="translate(437.39 -263.998)" fill="#7b3200"/>
    <path id="Path_495" data-name="Path 495" d="M280.238,461.042q-6.273,0-9.34-6.492a12.55,12.55,0,0,1-.649-3.852v-6.027a.624.624,0,0,1,.624-.524h2.106c.39.09.586.278.586.555v6.5q-.016,4.648,5.028,6.52a7.608,7.608,0,0,0,1.872.231q4.679,0,6.445-5.178a3.99,3.99,0,0,0,.246-1.56V438.6h-2.23V434.48h4.963c.381.094.571.278.571.555V450.7a8.754,8.754,0,0,1-.356,2.976h4.33c.381.1.571.29.571.568v1.99c0,.368-.209.555-.624.555h-5.849A9.537,9.537,0,0,1,280.238,461.042Z" transform="translate(385.524 -251.379)" fill="#7b3200"/>
    <path id="Path_496" data-name="Path 496" d="M352.286,455.741h13.688c.39.1.586.29.586.568v2.021c0,.368-.212.555-.624.555H339.784c-.421,0-.624-.187-.624-.555V456.28a.6.6,0,0,1,.624-.54h6.189v.278a8.288,8.288,0,0,1-2.143-5.643q0-5.362,5.927-7.877a12.678,12.678,0,0,1,2.929-.4h8.232l.047,5.459h-3.375v-2.315h-5.3q-3.837,0-5.057,4.18a4.181,4.181,0,0,0-.109,1.079q0,3.912,4.164,5.131A3.5,3.5,0,0,0,352.286,455.741Zm2.184-16.324a1.744,1.744,0,0,1-.6,1.323,2.04,2.04,0,0,1-1.5.624,1.968,1.968,0,0,1-1.494-.624,1.759,1.759,0,0,1-.586-1.323,1.828,1.828,0,0,1,.6-1.373,2.131,2.131,0,0,1,1.479-.555,2.246,2.246,0,0,1,1.482.555,1.8,1.8,0,0,1,.624,1.376Z" transform="translate(338.11 -253.449)" fill="#7b3200"/>
    <path id="Path_497" data-name="Path 497" d="M449.933,451.244H419.1c-.424,0-.624-.187-.624-.555v-2.049a.624.624,0,0,1,.624-.54h6.07a10.131,10.131,0,0,1-2.973-7.646V435a.624.624,0,0,1,.646-.54h2.065c.393.1.586.293.586.571V440.7q0,5.393,5.659,7.29a14.252,14.252,0,0,0,1.663.109h2.237V434.627h3.516V448.1h8.479v-9.358h-1.713v-4.111h5.225v16.109a.558.558,0,0,1-.63.508ZM434.024,430.4a1.828,1.828,0,0,1,.6,1.373,1.744,1.744,0,0,1-.6,1.323,2.037,2.037,0,0,1-1.494.624,1.972,1.972,0,0,1-1.5-.624,1.759,1.759,0,0,1-.586-1.323,1.828,1.828,0,0,1,.6-1.373,2.165,2.165,0,0,1,1.482-.555A2.268,2.268,0,0,1,434.024,430.4Zm4.1-3.484a1.837,1.837,0,0,1,.6,1.388,1.766,1.766,0,0,1-.586,1.326,2.031,2.031,0,0,1-1.494.624,1.981,1.981,0,0,1-1.51-.624,1.756,1.756,0,0,1-.586-1.326,1.784,1.784,0,0,1,.6-1.372,2.184,2.184,0,0,1,1.494-.555,2.28,2.28,0,0,1,1.479.54Zm4.1,3.484a1.828,1.828,0,0,1,.6,1.373,1.759,1.759,0,0,1-.586,1.323,2.04,2.04,0,0,1-1.5.624,1.94,1.94,0,0,1-1.494-.624,1.744,1.744,0,0,1-.6-1.323,1.828,1.828,0,0,1,.6-1.373,2.184,2.184,0,0,1,1.494-.555,2.246,2.246,0,0,1,1.482.555Z" transform="translate(283.533 -245.805)" fill="#7b3200"/>
    <path id="Path_498" data-name="Path 498" d="M290.154,347.623a1.716,1.716,0,0,1-1.31.59,1.672,1.672,0,0,1-1.266-.574,1.946,1.946,0,0,1-.58-1.429,1.872,1.872,0,0,1,.59-1.429,1.681,1.681,0,0,1,1.266-.561,1.738,1.738,0,0,1,1.31.577,2.021,2.021,0,0,1,.53,1.413,2.1,2.1,0,0,1-.54,1.413Z" transform="translate(472.887 -135.893)" fill="#d1aa67"/>
    <path id="Path_499" data-name="Path 499" d="M305.1,347.623a1.716,1.716,0,0,1-1.31.59,1.678,1.678,0,0,1-1.267-.574,1.943,1.943,0,0,1-.586-1.429,1.872,1.872,0,0,1,.586-1.429,1.688,1.688,0,0,1,1.266-.561,1.737,1.737,0,0,1,1.31.577,2.022,2.022,0,0,1,.533,1.413A2.1,2.1,0,0,1,305.1,347.623Z" transform="translate(462.607 -135.893)" fill="#d1aa67"/>
    <path id="Path_500" data-name="Path 500" d="M290.134,362.733a1.716,1.716,0,0,1-1.31.59,1.672,1.672,0,0,1-1.266-.574,1.946,1.946,0,0,1-.59-1.429,1.872,1.872,0,0,1,.59-1.429,1.681,1.681,0,0,1,1.266-.562,1.738,1.738,0,0,1,1.31.577,2.024,2.024,0,0,1,.53,1.413A2.1,2.1,0,0,1,290.134,362.733Z" transform="translate(472.907 -146.289)" fill="#d1aa67"/>
    <path id="Path_501" data-name="Path 501" d="M305.1,362.733a1.716,1.716,0,0,1-1.31.59,1.678,1.678,0,0,1-1.267-.574,1.943,1.943,0,0,1-.586-1.429,1.872,1.872,0,0,1,.586-1.429,1.688,1.688,0,0,1,1.266-.561,1.738,1.738,0,0,1,1.31.577,2.028,2.028,0,0,1,.533,1.413A2.1,2.1,0,0,1,305.1,362.733Z" transform="translate(462.607 -146.289)" fill="#d1aa67"/>
    <path id="Path_502" data-name="Path 502" d="M278.854,321.32h-2v3.494h1.666c.162,0,.312.022.487.022a.29.29,0,0,1,.312.312,2.5,2.5,0,0,1,0,.265v7.671a11.576,11.576,0,0,1-.677,4.158,10.685,10.685,0,0,1-1.376,2.6A11.435,11.435,0,0,1,275,342.2a9.46,9.46,0,0,1-1.959,1.213q-.8.356-1.625.668a6.167,6.167,0,0,1-.724.193,12.224,12.224,0,0,1-3.269.256,9.335,9.335,0,0,1-2.421-.44,10.843,10.843,0,0,1-2.315-1,11.632,11.632,0,0,1-2.311-1.747,8.91,8.91,0,0,1-1.6-2.009c-.368-.661-.708-1.344-1.033-2.034a5.014,5.014,0,0,1-.268-.861c-.1-.4-.2-.8-.275-1.2a5.619,5.619,0,0,1-.1-.789c-.031-.471-.059-.936-.059-1.413V328.7H253.59v5.237a12.559,12.559,0,0,0,.1,1.609,11.07,11.07,0,0,0,.293,1.377,15.246,15.246,0,0,0,.449,1.538,11.761,11.761,0,0,0,.671,1.5,21.391,21.391,0,0,0,1.192,2,11.917,11.917,0,0,0,2.184,2.411c.6.493,1.229.936,1.872,1.4a8.953,8.953,0,0,0,1.064.624c.449.231.9.459,1.369.646s.936.312,1.4.462a10.883,10.883,0,0,0,2.418.477,20.067,20.067,0,0,0,2.252.056,7.21,7.21,0,0,0,1.3-.1c.742-.137,1.479-.312,2.212-.5a7.973,7.973,0,0,0,1.31-.437,18.533,18.533,0,0,0,2.012-1.033,15.849,15.849,0,0,0,1.975-1.391,14.088,14.088,0,0,0,2.711-3.057,13.747,13.747,0,0,0,1.385-2.617,19.457,19.457,0,0,0,.739-2.393,10.871,10.871,0,0,0,.281-2.583V321.32Z" transform="translate(495.872 -120.136)" fill="#009ab5"/>
    <path id="Path_503" data-name="Path 503" d="M271.044,235.279a10.375,10.375,0,0,0-5.771-4.367,9.76,9.76,0,0,0-4.411-.312,12.331,12.331,0,0,0-4.7-3.921,14.157,14.157,0,0,0-4.526-1.307,13.1,13.1,0,0,0-11.876,5.269c-.206-.028-.427-.05-.686-.072a10.426,10.426,0,0,0-11.3,9.717,10.416,10.416,0,0,0,2.549,7.643,10.294,10.294,0,0,0,5.409,3.313V257.2h0v1.6h20.451v-3.5H239.21v-3.846a10.375,10.375,0,0,0,2.885-.68,11.279,11.279,0,0,0,2.549-1.472,1.023,1.023,0,0,0,.168-1.56c-.215-.246-.418-.5-.624-.758a1.064,1.064,0,0,0-1.56-.193,8.08,8.08,0,0,1-2.471,1.248,6.551,6.551,0,0,1-4.333-.112,7.225,7.225,0,0,1-4.118-3.594,7.378,7.378,0,0,1,3.475-9.963,6.108,6.108,0,0,1,2.848-.664h.047a13.139,13.139,0,0,0-.867,4.32,1.167,1.167,0,0,0,.284.936,1.114,1.114,0,0,0,.827.312h.926a1.082,1.082,0,0,0,1.164-1.076l.041-.384a15.528,15.528,0,0,1,.225-1.65,9.477,9.477,0,0,1,2.355-4.451,10.007,10.007,0,0,1,4.866-2.932,8.909,8.909,0,0,1,4.423-.075,15.02,15.02,0,0,1,2.218.733,9.771,9.771,0,0,1,5.68,8.6,1.157,1.157,0,0,0,.346.883,1.223,1.223,0,0,0,.883.312c.287-.016.565,0,.9,0a1.326,1.326,0,0,0,.78-.312,1.089,1.089,0,0,0,.312-.8,10.991,10.991,0,0,0-.446-3.119c-.134-.455-.312-.9-.468-1.338a7.284,7.284,0,0,1,6.348,4.3,7.33,7.33,0,0,1-3.787,9.751,6.922,6.922,0,0,1-4.626.393,6.632,6.632,0,0,1-2.439-1.132,1.058,1.058,0,0,0-1.681.231l-.237.312c-.1.122-.193.243-.3.362a1.12,1.12,0,0,0-.271.855,1.064,1.064,0,0,0,.462.736,9.321,9.321,0,0,0,3.431,1.681,13.223,13.223,0,0,0,5.571-.047,11.542,11.542,0,0,0,1.706-.624,9.982,9.982,0,0,0,4.645-4.3,10.762,10.762,0,0,0,1.363-4.586A10.294,10.294,0,0,0,271.044,235.279Z" transform="translate(513.662 -54.072)" fill="#d1aa67"/>
  </g>
</svg>
