<svg id="noun_notification_3187825" xmlns="http://www.w3.org/2000/svg" width="23.831" height="27.911" viewBox="0 0 23.831 27.911">
  <g id="Group_11766" data-name="Group 11766" transform="translate(0 0)">
    <path id="Path_4037" data-name="Path 4037" d="M24.643,18.919l-.355-.363a4.7,4.7,0,0,1-1.32-2.931l-.4-5.377a7.747,7.747,0,0,0-6.729-7.322v-1a.911.911,0,1,0-1.821,0v1a7.737,7.737,0,0,0-6.729,7.3l-.4,5.4a4.7,4.7,0,0,1-1.32,2.931l-.355.363A4.233,4.233,0,0,0,4,21.9v.5a2.762,2.762,0,0,0,2.732,2.791h4.553a3.643,3.643,0,1,0,7.285,0h4.553A2.762,2.762,0,0,0,25.854,22.4v-.5A4.233,4.233,0,0,0,24.643,18.919ZM14.927,27.05a1.841,1.841,0,0,1-1.821-1.861h3.642A1.841,1.841,0,0,1,14.927,27.05ZM24.033,22.4a.921.921,0,0,1-.911.93H6.732a.921.921,0,0,1-.911-.93v-.5A2.371,2.371,0,0,1,6.5,20.23l.355-.363a6.577,6.577,0,0,0,1.821-4.112L9.108,10.3a5.822,5.822,0,0,1,11.637,0l.4,5.4a6.577,6.577,0,0,0,1.821,4.112l.355.363a2.37,2.37,0,0,1,.71,1.721Z" transform="translate(-2.989 -1)" fill="#682300"/>
    <path id="Path_4038" data-name="Path 4038" d="M4.418,11.568H4.185a1.224,1.224,0,0,1-.991-1.42A14.529,14.529,0,0,1,6.315,3.441,1.226,1.226,0,1,1,8.2,5.008a12.093,12.093,0,0,0-2.583,5.545A1.224,1.224,0,0,1,4.418,11.568Z" transform="translate(-3.174 -0.552)" fill="#682300"/>
    <path id="Path_4039" data-name="Path 4039" d="M28.552,11.556a1.224,1.224,0,0,1-1.224-1A12.093,12.093,0,0,0,24.733,5a1.224,1.224,0,0,1,1.885-1.554,14.553,14.553,0,0,1,3.109,6.683,1.224,1.224,0,0,1-.942,1.432Z" transform="translate(-5.919 -0.54)" fill="#682300"/>
  </g>
</svg>
