<svg xmlns="http://www.w3.org/2000/svg" width="22.736" height="16.493" viewBox="0 0 22.736 16.493">
  <path id="Path_482" data-name="Path 482" d="M26.11,8.013a.318.318,0,0,0-.284-.216L8.018,6.173a.553.553,0,0,1-.41-.242,5.229,5.229,0,0,0-.667-.959C6.52,4.488,5.728,4.5,4.273,4.493c-.492-.005-.891.268-.891.727a.765.765,0,0,0,.853.727,7.7,7.7,0,0,1,1.421.1c.257.072.465.469.541.814a.018.018,0,0,0,.005.015c.011.062.109.526.109.531L8.5,18.311a3.887,3.887,0,0,0,.793,1.84,2.231,2.231,0,0,0,1.8.835H24.027a.76.76,0,0,0,.787-.691.739.739,0,0,0-.765-.752H11.08a.662.662,0,0,1-.454-.144A2.262,2.262,0,0,1,10,18.058l-.235-1.222a.028.028,0,0,1,.022-.031l15.183-2.422a.309.309,0,0,0,.268-.268l.875-5.968A.278.278,0,0,0,26.11,8.013Z" transform="translate(-3.382 -4.493)" fill="#968e3b"/>
</svg>
