<svg xmlns="http://www.w3.org/2000/svg" width="24.38" height="12.235" viewBox="0 0 24.38 12.235">
  <path id="Path_2" data-name="Path 2" d="M20.279,91.534l-2.146-.328-.631-.692a7.976,7.976,0,0,0-5.877-2.592H9.947A7.6,7.6,0,0,0,8.868,88L8.85,88a7.55,7.55,0,0,0-5.181,3.253A5.421,5.421,0,0,0,0,96.076a1.587,1.587,0,0,0,1.585,1.585h.927a2.854,2.854,0,0,0,5.6,0h8.1a2.853,2.853,0,0,0,5.6,0H22.6a1.587,1.587,0,0,0,1.585-1.585A4.569,4.569,0,0,0,20.279,91.534ZM11.625,89a6.9,6.9,0,0,1,5.018,2.175H10.6L9.725,89C9.8,89,9.873,89,9.947,89Zm-3.006.139.824,2.036H5.1A6.471,6.471,0,0,1,8.619,89.135ZM5.311,98.882A1.779,1.779,0,1,1,7.09,97.1,1.781,1.781,0,0,1,5.311,98.882Zm13.694,0A1.779,1.779,0,1,1,20.784,97.1,1.781,1.781,0,0,1,19.005,98.882Zm3.59-2.3H21.81a2.852,2.852,0,0,0-5.61,0H8.116a2.852,2.852,0,0,0-5.61,0H1.585a.511.511,0,0,1-.51-.51A4.392,4.392,0,0,1,4.1,92.246H17.824l2.293.35a3.5,3.5,0,0,1,2.989,3.48A.511.511,0,0,1,22.6,96.587Z" transform="translate(0.1 -87.822)" fill="#a1835c" stroke="#a1835c" stroke-width="0.2"/>
</svg>
