<svg xmlns="http://www.w3.org/2000/svg" xmlns:xlink="http://www.w3.org/1999/xlink" width="28" height="23" viewBox="0 0 28 23">
  <defs>
    <clipPath id="clip-path">
      <rect id="Rectangle_753" data-name="Rectangle 753" width="28" height="23" rx="5" transform="translate(394 350)" fill="#fff"/>
    </clipPath>
  </defs>
  <g id="Mask_Group_1" data-name="Mask Group 1" transform="translate(-394 -350)" clip-path="url(#clip-path)">
    <g id="g4701" transform="translate(390.12 349.32)">
      <path id="_x32_1461584" d="M36.84,20.671V-3.889H0v24.56Z" transform="translate(0 3.889)" fill="#006c35"/>
      <g id="g4699" transform="translate(10.88 7.973)">
        <g id="g4695" transform="translate(0 0)">
          <g id="g4623" transform="translate(7.862 0)">
            <path id="path4621" d="M22.917,6.066a3.8,3.8,0,0,1,.483-.329.981.981,0,0,1-.357.487c-.079.062-.043.175-.054.26-.043-.01-.083-.021-.126-.034.04.514.1,1.025.123,1.539a.194.194,0,0,0,.058.158,3.494,3.494,0,0,1,.656.692,1.328,1.328,0,0,1,.141.346,1.9,1.9,0,0,0,.018-.607q-.13-1.172-.234-2.351a1.577,1.577,0,0,1-.011-.291.181.181,0,0,1,.187-.158.45.45,0,0,1,.112.168,1.035,1.035,0,0,1,.119.518c-.043-.014-.086-.031-.133-.048.065.531.13,1.063.169,1.6a4.164,4.164,0,0,1,0,1.08,1.3,1.3,0,0,1-.515.85,2.321,2.321,0,0,1-.8.305.738.738,0,0,1-.346,0c.119-.065.252-.113.378-.168a3.3,3.3,0,0,0,.526-.274,1.694,1.694,0,0,0,.432-.356,2.067,2.067,0,0,0-.721-.98,6.278,6.278,0,0,1-.029,1.134.39.39,0,0,1-.112.23,3.62,3.62,0,0,1-.061-.483c-.032-.35-.061-.7-.086-1.052a.217.217,0,0,0-.1-.168c-.213-.178-.411-.377-.616-.562.007.216.04.428.054.641.025.288.029.576.058.864a1.33,1.33,0,0,1-.054.607.55.55,0,0,1-.447.35,1.252,1.252,0,0,1-.321-.017.357.357,0,0,1-.249-.2c-.061-.117-.094-.247-.144-.367a.477.477,0,0,0-.259.113,1.335,1.335,0,0,0-.256.524.492.492,0,0,1-.191.281.356.356,0,0,1-.346-.021.666.666,0,0,1-.3-.418c-.047-.13.018-.281-.061-.4a.525.525,0,0,1,0-.363,1.257,1.257,0,0,1,.346-.538l-.616-.535a8.791,8.791,0,0,1-.007,1.477.429.429,0,0,1-.119.264,1.872,1.872,0,0,1-.043-.284q-.076-.812-.13-1.625a.229.229,0,0,0-.065-.171,7.874,7.874,0,0,1-.6-.634,1.6,1.6,0,0,1-.277-.442c-.022-.069-.04-.165.025-.216a.564.564,0,0,1,.209.075,1.459,1.459,0,0,1,.328.26.387.387,0,0,1,.083.161c-.061,0-.119,0-.18,0a2.4,2.4,0,0,0,.432.473c-.014-.459-.065-.922-.086-1.381a.27.27,0,0,1,.043-.182.372.372,0,0,1,.155-.082,1.493,1.493,0,0,1,.216.487.7.7,0,0,1,.011.213c-.043-.01-.086-.024-.126-.038.029.374.068.744.094,1.117a.79.79,0,0,0,.022.158.4.4,0,0,0,.083.089c.256.216.512.432.771.641.155-.134.306-.271.461-.4a.845.845,0,0,0,.1-.093c.029-.031.018-.075.018-.113-.05-.449-.086-.9-.126-1.347-.011-.165-.036-.326-.036-.487a.188.188,0,0,1,.169-.2c.043,0,.061.045.083.072a1.487,1.487,0,0,1,.159.408.471.471,0,0,1,0,.213l-.123-.055c.054.422.1.843.137,1.265.112-.082.213-.178.317-.267s.238-.2.35-.3c-.133-.144-.274-.278-.411-.418a.766.766,0,0,1-.227-.3.53.53,0,0,1,.007-.271,1.048,1.048,0,0,1,.432.219,2.534,2.534,0,0,1,.249.226c-.007-.178-.029-.356-.043-.535a.291.291,0,0,1,.04-.2.438.438,0,0,1,.151-.086,1.316,1.316,0,0,1,.213.466A.687.687,0,0,1,22,6.47l-.133-.031c.014.137.029.271.047.408.169-.127.324-.271.494-.4.058-.055.162-.1.162-.192a3,3,0,0,1,0-.312.181.181,0,0,1,.187-.154A.919.919,0,0,1,22.917,6.066Zm-.879.991c-.029.031-.083.058-.079.11a.517.517,0,0,0,.1.117c.209.189.407.387.627.559-.007-.2-.029-.4-.04-.6s-.025-.425-.047-.638c-.195.141-.371.305-.562.456Zm-.53-.374c.047.051.09.1.137.154,0-.051,0-.1,0-.154ZM21,7.934c-.036.031-.079.065-.076.117a3.329,3.329,0,0,1-.04.781.292.292,0,0,1-.108.151c-.058-.25-.061-.507-.1-.761-.155.123-.3.257-.447.391a.738.738,0,0,1,.195.319.482.482,0,0,1-.151.494,1.179,1.179,0,0,1-.634.2,1.145,1.145,0,0,0,.148.418.231.231,0,0,0,.234.113.331.331,0,0,0,.2-.213,2.867,2.867,0,0,1,.259-.524.5.5,0,0,1,.393-.254c.054,0,.126-.014.159.045a3.083,3.083,0,0,0,.187.377.459.459,0,0,0,.652.038.252.252,0,0,0,.054-.219c-.083-.682-.144-1.371-.216-2.053C21.465,7.539,21.238,7.738,21,7.934ZM19.732,9.1a.522.522,0,0,0-.079.182.77.77,0,0,0,.468-.1c.043-.027.094-.072.083-.13a.424.424,0,0,0-.195-.267A2.66,2.66,0,0,0,19.732,9.1Z" transform="translate(-17.964 -5.737)" fill="#fff"/>
          </g>
          <path id="path4625" d="M11,5.782c.043-.027.083.021.112.051a1.322,1.322,0,0,1,.231.343l-.133.021c.011.206.184.346.234.542a.759.759,0,0,1,.014.37.437.437,0,0,1-.342.336.654.654,0,0,1-.569-.161.882.882,0,0,1-.177-.356,1.1,1.1,0,0,1-.234.459.846.846,0,0,1-.249.182,9.74,9.74,0,0,1,.032,1.374.482.482,0,0,1-.141.37,4.744,4.744,0,0,1-.072-.559c-.04-.38-.068-.761-.108-1.141a.678.678,0,0,1-.321-.134.64.64,0,0,1-.18-.518,2.164,2.164,0,0,1,.083-.425.522.522,0,0,0-.123.192,5.756,5.756,0,0,1-.231.689.313.313,0,0,1-.209.178.374.374,0,0,1-.342-.072.593.593,0,0,1-.133-.37.8.8,0,0,1,.043-.4A.4.4,0,0,1,8.362,6.6a.619.619,0,0,0-.1.226,1.14,1.14,0,0,0,.029.35.335.335,0,0,0,.083.192.231.231,0,0,0,.3-.007.5.5,0,0,0,.086-.168c.072-.219.13-.446.22-.658A.626.626,0,0,1,9.4,6.142c-.022.243-.133.47-.141.716a.46.46,0,0,0,.079.315.4.4,0,0,0,.227.12c-.022-.332-.054-.665-.076-1a1.62,1.62,0,0,1-.007-.374c.018-.086.112-.117.184-.144a1.225,1.225,0,0,1,.234.689l-.137-.031c.029.284.058.572.09.857a.54.54,0,0,0,.3-.216.825.825,0,0,0,.094-.7c-.029-.1-.076-.192-.1-.295a.206.206,0,0,1,.133-.226c.04-.017.058.031.076.058a1.635,1.635,0,0,1,.1.374,2.922,2.922,0,0,0,.061.5.623.623,0,0,0,.27.336.524.524,0,0,0,.346.051.155.155,0,0,0,.119-.117.482.482,0,0,0-.058-.322,3.065,3.065,0,0,1-.292-.689.255.255,0,0,1,.1-.267Z" transform="translate(-8.136 -5.744)" fill="#fff"/>
          <path id="path4627" d="M17.89,6.048a.682.682,0,0,1,.3-.264,1.351,1.351,0,0,1-.13.233.367.367,0,0,0-.04.185,1.175,1.175,0,0,0,.245-.038.307.307,0,0,1-.1.175.2.2,0,0,1-.241.021A.269.269,0,0,1,17.89,6.048Z" transform="translate(-10.08 -5.746)" fill="#fff"/>
          <g id="g4631" transform="translate(0.071 0.051)">
            <path id="path4629" d="M11.5,5.9a.334.334,0,0,1,.159-.1,1.317,1.317,0,0,1,.223.494.564.564,0,0,1,0,.206l-.123-.041c.047.332.1.661.144.994.191-.093.368-.206.566-.288a.621.621,0,0,1,.195-.048.235.235,0,0,1-.112.134c-.209.106-.422.2-.627.315.018.165.036.332.058.5.094-.12.177-.271.339-.308.007.089-.022.2.043.267a.275.275,0,0,0,.331-.041A1.543,1.543,0,0,1,12.75,7.6c.04.017.09.024.1.072a.629.629,0,0,1,0,.374.482.482,0,0,1-.267.3.309.309,0,0,1-.252.024.537.537,0,0,1-.2-.189A1.085,1.085,0,0,0,12,8.557a1.47,1.47,0,0,1-.306.809,2.391,2.391,0,0,1-1.25.781,2.727,2.727,0,0,1-.847.13.888.888,0,0,1-.447-.12c-.058-.038-.108-.089-.166-.123a1.227,1.227,0,0,0-.223.007,2.552,2.552,0,0,1-.537-.017c.216-.072.436-.127.649-.206a1.723,1.723,0,0,1,.216-1.124,1.164,1.164,0,0,1,.195-.236,1.818,1.818,0,0,0-.169.38,1.613,1.613,0,0,0,.014.877c.148-.048.292-.113.432-.175a6.172,6.172,0,0,0,.948-.5,1.051,1.051,0,0,0,.3-.281.349.349,0,0,0,.029-.192,2.189,2.189,0,0,1-.468.1.4.4,0,0,1-.281-.106.349.349,0,0,1-.061-.291.562.562,0,0,1,.184-.346.417.417,0,0,1,.432-.034.648.648,0,0,1,.274.315c.2-.075.339-.254.537-.339a.454.454,0,0,0,.076.305c.047.058.126.055.191.062-.011-.165-.036-.326-.058-.487-.068-.538-.137-1.08-.195-1.621A.4.4,0,0,1,11.5,5.9ZM10.264,8.241c-.018.038.025.062.054.075a.668.668,0,0,0,.339-.007.335.335,0,0,0-.22-.134c-.061,0-.148,0-.173.065Zm.785.223a.806.806,0,0,1-.025.322,1.015,1.015,0,0,1-.328.432,5,5,0,0,1-.872.514,3.624,3.624,0,0,1-.422.2A3.642,3.642,0,0,0,9.95,9.9a2.579,2.579,0,0,0,.8-.2,2.249,2.249,0,0,0,.735-.456.968.968,0,0,0,.27-.452,1.287,1.287,0,0,0,.025-.264.682.682,0,0,1-.321-.055.538.538,0,0,1-.169-.206,1.774,1.774,0,0,1-.241.192Z" transform="translate(-8.224 -5.801)" fill="#fff"/>
          </g>
          <path id="path4633" d="M15.412,5.9a.125.125,0,0,1,.159-.007.363.363,0,0,1,.159.319.6.6,0,0,1-.047.161.84.84,0,0,0-.047-.233c-.054-.075-.155-.089-.22-.151A.057.057,0,0,1,15.412,5.9Z" transform="translate(-9.587 -5.764)" fill="#fff"/>
          <path id="path4635" d="M16.571,5.944c.007-.048.054-.1.1-.072a.687.687,0,0,1,.306.339c-.05,0-.1,0-.148-.007a1.969,1.969,0,0,0,.09.281,1.721,1.721,0,0,1,.151.4.51.51,0,0,1-.922.4,1,1,0,0,1-.141-.3.877.877,0,0,1-.386.562.649.649,0,0,1-.685-.024.439.439,0,0,1-.205-.36,2.978,2.978,0,0,1,.1-.617.451.451,0,0,0-.119.182,4.672,4.672,0,0,1-.245.692.373.373,0,0,1-.277.206.355.355,0,0,1-.317-.141.6.6,0,0,1-.076-.326,1.129,1.129,0,0,1,.123-.5,1.339,1.339,0,0,0,.043.655.233.233,0,0,0,.31.117.5.5,0,0,0,.184-.284,4.485,4.485,0,0,1,.267-.668.727.727,0,0,1,.177-.236.309.309,0,0,1,.148-.045,2.235,2.235,0,0,1-.133.545.553.553,0,0,0,.068.487.537.537,0,0,0,.526.127.658.658,0,0,0,.44-.59.8.8,0,0,0-.068-.459c-.036-.072-.1-.147-.076-.236a.3.3,0,0,1,.159-.2.664.664,0,0,1,.112.281,3.112,3.112,0,0,0,.115.706.557.557,0,0,0,.259.326.452.452,0,0,0,.393.01.177.177,0,0,0,.076-.206,6.011,6.011,0,0,0-.3-.679.682.682,0,0,1-.05-.367Z" transform="translate(-9.269 -5.762)" fill="#fff"/>
          <path id="path4637" d="M20.2,5.9a.171.171,0,0,1,.22.072.081.081,0,0,1-.04.093A.691.691,0,0,1,20.229,6a1.877,1.877,0,0,0-.13.377.848.848,0,0,0-.086-.182c-.05-.069-.13-.1-.187-.165a.085.085,0,0,1,.1-.1.366.366,0,0,1,.173.161C20.121,6.023,20.132,5.937,20.2,5.9Z" transform="translate(-10.473 -5.766)" fill="#fff"/>
          <path id="path4639" d="M8.169,6.187a.634.634,0,0,1,.31-.288,1.9,1.9,0,0,1-.13.236.364.364,0,0,0-.036.185,1.07,1.07,0,0,0,.249-.051.373.373,0,0,1-.112.182.206.206,0,0,1-.231.027A.256.256,0,0,1,8.169,6.187Z" transform="translate(-8.138 -5.769)" fill="#fff"/>
          <g id="g4643" transform="translate(4.283 0.157)">
            <path id="path4641" d="M13.846,6.019c.022-.113.191-.11.245-.024.036.062.054.127.09.189a.266.266,0,0,1,.05.2c-.032.113-.115.2-.126.322.04-.017.079-.038.119-.058-.011.062,0,.144-.065.178A.125.125,0,0,1,13.99,6.7c.011-.154.162-.274.115-.439a.99.99,0,0,1-.616.422,3.422,3.422,0,0,0,.339-.254.911.911,0,0,0,.151-.216c-.054-.055-.148-.106-.133-.2Zm.1-.01a.284.284,0,0,0,.094.089A.14.14,0,0,0,13.951,6.009Z" transform="translate(-13.489 -5.932)" fill="#fff"/>
          </g>
          <path id="path4645" d="M12.935,6.127c.054-.014.119-.034.162.014a.506.506,0,0,1,.148.483c-.029-.065-.05-.134-.083-.2C13.108,6.312,12.99,6.243,12.935,6.127Z" transform="translate(-9.096 -5.811)" fill="#fff"/>
          <path id="path4647" d="M11.41,6.221a.25.25,0,0,1,.068.209c-.086.014-.173.038-.259.058a.09.09,0,0,1-.108-.069.551.551,0,0,1,.025-.151c.018.051.036.1.054.158.022-.01.047-.017.068-.027V6.258h.05c.007.041.014.086.022.127l.083-.01c0-.051,0-.1,0-.154Z" transform="translate(-8.731 -5.833)" fill="#fff"/>
          <path id="path4649" d="M20.436,6.355a.763.763,0,0,1,.216-.027.347.347,0,0,1-.126.1,7.242,7.242,0,0,0-.742.3c.022.045.043.086.065.13a.273.273,0,0,1-.169-.058.1.1,0,0,1,0-.144.578.578,0,0,1,.13-.069c.205-.075.411-.161.623-.23Z" transform="translate(-10.439 -5.855)" fill="#fff"/>
          <path id="path4651" d="M15.806,6.57a.667.667,0,0,1,.09-.058.539.539,0,0,0,.068.257.153.153,0,0,1-.09.219.233.233,0,0,1-.216-.072c-.047.041-.1.1-.166.086a.209.209,0,0,1-.162-.264.286.286,0,0,1,.119-.161.687.687,0,0,0-.018.226c.014.051.076.051.119.069.014-.082.018-.168.04-.254.007-.045.061-.048.09-.069a1.04,1.04,0,0,0,.025.212c.018.051.079.069.123.093a1.233,1.233,0,0,0-.022-.284Z" transform="translate(-9.574 -5.892)" fill="#fff"/>
          <path id="path4653" d="M11.251,6.747c.054,0,.119-.01.162.034a.5.5,0,0,1,.137.476.787.787,0,0,0-.173-.322A.327.327,0,0,1,11.251,6.747Z" transform="translate(-8.759 -5.939)" fill="#fff"/>
          <path id="path4655" d="M20.455,7.269a.467.467,0,0,1,.09-.075.557.557,0,0,0,.065.24c.036.075.036.2-.054.23a.245.245,0,0,1-.238-.055.232.232,0,0,1-.195.072.217.217,0,0,1-.141-.257c.007-.075.072-.123.123-.171a.588.588,0,0,0-.022.236c.018.051.079.041.123.051a1.066,1.066,0,0,1,.043-.264.37.37,0,0,1,.09-.048.524.524,0,0,0,.029.236c.025.045.079.048.123.062C20.488,7.44,20.463,7.354,20.455,7.269Z" transform="translate(-10.505 -6.028)" fill="#fff"/>
          <path id="path4657" d="M24.316,7.414a.081.081,0,0,1,.079-.11.259.259,0,0,1,.2.147.6.6,0,0,1,.05.483c-.032-.141-.029-.319-.159-.411A.608.608,0,0,1,24.316,7.414Z" transform="translate(-11.371 -6.05)" fill="#fff"/>
          <path id="path4659" d="M18.026,7.815a.166.166,0,0,1,.162-.045.2.2,0,0,1,0,.264.557.557,0,0,1-.447.2,2.164,2.164,0,0,0,.317-.175c.043-.031.036-.089.043-.137-.05.007-.1.017-.148.024a.692.692,0,0,1,.072-.134Z" transform="translate(-10.057 -6.142)" fill="#fff"/>
          <path id="path4661" d="M20.9,7.957c.032-.007.076-.027.1.007-.025.082-.112.117-.18.151-.259.12-.512.254-.767.384-.011-.024-.025-.045-.036-.069a4.066,4.066,0,0,1,.458-.271,3.724,3.724,0,0,1,.429-.2Z" transform="translate(-10.512 -6.178)" fill="#fff"/>
          <g id="g4665" transform="translate(2.506 1.854)">
            <path id="path4663" d="M14.27,8.181a.282.282,0,0,1,.072-.127,2.037,2.037,0,0,1,.458.751,7.248,7.248,0,0,1,.162.833.879.879,0,0,0,.148.4.737.737,0,0,0,.238.175.33.33,0,0,1,.123-.236,3.307,3.307,0,0,1,.832-.363c-.234-.007-.472,0-.706,0a3.5,3.5,0,0,1-.569-.021.441.441,0,0,1,.05-.213.9.9,0,0,1,.382-.3,3.528,3.528,0,0,1,.681-.278c-.061-.065-.155-.137-.13-.243a.331.331,0,0,1,.288-.243.876.876,0,0,1,.429.137c.079.051.177.106.205.2a.358.358,0,0,1-.079.185c-.083.1-.231.1-.353.11-.007.082-.018.182-.1.219-.025-.065-.05-.127-.079-.192a1.849,1.849,0,0,0-.8.394c.663,0,1.322-.014,1.985-.01.043,0,.086.007.13.014-.029.175-.205.26-.36.3-.313.069-.627.13-.94.192a2.765,2.765,0,0,0-.685.209.557.557,0,0,0-.2.175,2.885,2.885,0,0,0,.479.123c.054.014.13.024.144.089a.239.239,0,0,1-.058.26A.826.826,0,0,1,15.7,10.7a1.074,1.074,0,0,1-.731-.442,1.4,1.4,0,0,1-.195-.614,2.057,2.057,0,0,1-.274.329,3.375,3.375,0,0,1-.973.61.434.434,0,0,1-.4,0,.463.463,0,0,1-.155-.247,3.844,3.844,0,0,1-1.027.4,3.466,3.466,0,0,1-.677.069c.119-.058.241-.1.36-.151.4-.165.785-.35,1.167-.548a.422.422,0,0,0,.137-.1,1.828,1.828,0,0,1,.094-.3.686.686,0,0,1,.256-.274,1.7,1.7,0,0,0-.162.47,3.5,3.5,0,0,0,.645-.49c.05-.055.123-.123.094-.206-.036-.117-.1-.219-.141-.332a1.134,1.134,0,0,1-.126-.518.324.324,0,0,1,.076-.147,1.162,1.162,0,0,1,.35.432l-.1.021a2.789,2.789,0,0,1,.191.5A.466.466,0,0,1,14,9.545a6.189,6.189,0,0,1-.832.679.325.325,0,0,0,.166.062.989.989,0,0,0,.342-.089,4.879,4.879,0,0,0,1.056-.737,4.307,4.307,0,0,0-.386-.919.611.611,0,0,1-.076-.36Zm1.913.425a.345.345,0,0,0,.159.123.323.323,0,0,0,.263-.1.522.522,0,0,0-.31-.123.111.111,0,0,0-.112.1Z" transform="translate(-11.269 -8.054)" fill="#fff"/>
          </g>
          <g id="g4669" transform="translate(0.013 1.898)">
            <path id="path4667" d="M8.689,8.192a.085.085,0,0,1,.083-.082c.123-.014.209.086.285.165a.142.142,0,0,1,.047.154c-.014.065-.09.062-.141.075-.108.007-.151.123-.234.175a.856.856,0,0,1-.577.175.375.375,0,0,1,.213-.127.97.97,0,0,0,.375-.264A.594.594,0,0,1,8.689,8.192Zm.068.014a.417.417,0,0,0,.054.171c.022-.048.043-.1.061-.147A1.131,1.131,0,0,0,8.758,8.206Zm.162.223c.04,0,.079-.01.119-.014A.55.55,0,0,0,9,8.264C8.949,8.3,8.941,8.37,8.92,8.429Z" transform="translate(-8.152 -8.109)" fill="#fff"/>
          </g>
          <path id="path4671" d="M16.353,8.232a.3.3,0,0,1,.086-.062c0,.12.086.213.1.329s-.144.182-.238.127c-.029-.021-.054-.045-.079-.065-.05.045-.1.11-.18.093a.222.222,0,0,1-.155-.264.287.287,0,0,1,.126-.168.867.867,0,0,0-.029.216c.007.055.068.072.112.1a1.521,1.521,0,0,0,.05-.26c.007-.048.065-.055.1-.079a.863.863,0,0,0,.022.216c.022.048.072.072.112.1C16.418,8.417,16.357,8.324,16.353,8.232Z" transform="translate(-9.685 -6.223)" fill="#fff"/>
          <path id="path4673" d="M9.094,8.778a.655.655,0,0,1,.195-.069.08.08,0,0,1,.047.137,1.124,1.124,0,0,1-.252.12c-.2.1-.4.189-.6.295a.209.209,0,0,1-.144.014.341.341,0,0,1,.126-.147C8.672,9,8.881,8.885,9.094,8.778Z" transform="translate(-8.176 -6.331)" fill="#fff"/>
          <path id="path4675" d="M18.655,8.9c.014-.069.094-.079.151-.1a.6.6,0,0,0,.086.284L18.8,9.1a.448.448,0,0,1-.162.171.763.763,0,0,1-.382.051c.137-.038.306-.048.4-.171.061-.072,0-.165,0-.247Z" transform="translate(-10.16 -6.35)" fill="#fff"/>
          <g id="g4679" transform="translate(10.668 2.602)">
            <path id="path4677" d="M22.018,9.04c.018-.055.083-.055.13-.048a.455.455,0,0,1,.238.175.135.135,0,0,1,.018.178c-.065.051-.169.021-.227.089a.846.846,0,0,1-.706.3.373.373,0,0,1,.216-.127.994.994,0,0,0,.371-.264.512.512,0,0,1-.04-.3Zm.068.041a.787.787,0,0,0,.043.182.769.769,0,0,0,.065-.147C22.159,9.1,22.119,9.091,22.087,9.081Zm.209.075a1.065,1.065,0,0,0-.05.151c.04,0,.079-.01.119-.014a.629.629,0,0,0-.04-.141Z" transform="translate(-21.471 -8.989)" fill="#fff"/>
          </g>
          <path id="path4681" d="M13.547,9.177a.158.158,0,0,1,.234.048c.022.045-.025.079-.043.113a.493.493,0,0,0-.112-.058c-.036-.01-.047.031-.058.055a3.267,3.267,0,0,0-.1.319.889.889,0,0,0-.083-.189,1.134,1.134,0,0,0-.169-.147c-.05-.041,0-.13.061-.12.083.01.133.086.191.141a.514.514,0,0,1,.076-.161Z" transform="translate(-9.149 -6.418)" fill="#fff"/>
          <path id="path4683" d="M8.211,9.865a.682.682,0,0,1,.3-.264,1.383,1.383,0,0,1-.13.236.354.354,0,0,0-.04.182,1.548,1.548,0,0,0,.249-.034.3.3,0,0,1-.108.175.2.2,0,0,1-.238.021.276.276,0,0,1-.032-.315Z" transform="translate(-8.144 -6.51)" fill="#fff"/>
          <path id="path4685" d="M15.373,10.586c.061-.01.133-.038.187.007a.114.114,0,0,1,.022.171c-.076.041-.173.017-.238.075.011.089.079.161.094.247,0,.055-.04.1-.065.144a.775.775,0,0,0-.079-.254c-.029-.055-.072-.11-.058-.175s.09-.106.144-.141A.45.45,0,0,1,15.373,10.586Z" transform="translate(-9.556 -6.703)" fill="#fff"/>
          <path id="path4687" d="M18.856,10.688a.333.333,0,0,1,.159-.144.674.674,0,0,0-.076.182c.029.051.076.089.1.144.007.089-.123.1-.169.048A.219.219,0,0,1,18.856,10.688Z" transform="translate(-10.275 -6.698)" fill="#fff"/>
          <path id="path4689" d="M17.984,10.6a.372.372,0,0,1,.3.051c-.065.134-.216.168-.328.25a.286.286,0,0,1,.007.055.4.4,0,0,0,.231-.027,1.067,1.067,0,0,1,.285-.113c-.079.069-.155.137-.234.2a.374.374,0,0,1-.335.045c-.054-.017-.123-.065-.1-.134.029-.086.115-.13.184-.182l-.148-.01C17.879,10.678,17.915,10.61,17.984,10.6Z" transform="translate(-10.069 -6.706)" fill="#fff"/>
          <path id="path4691" d="M21.291,10.874a.074.074,0,0,1,.047-.117.232.232,0,0,1,.223.141.385.385,0,0,1,.007.36.853.853,0,0,0-.058-.233c-.054-.072-.155-.086-.22-.151Z" transform="translate(-10.764 -6.74)" fill="#fff"/>
          <path id="path4693" d="M23.177,10.943a.96.96,0,0,1,.411-.1.262.262,0,0,1-.133.12c-.223.082-.45.158-.67.25a1.135,1.135,0,0,1-.216.072c-.007-.021-.018-.041-.025-.062a4.736,4.736,0,0,1,.634-.284Z" transform="translate(-11.017 -6.758)" fill="#fff"/>
        </g>
        <path id="path4697" d="M20.911-5.626H19.8v-.105c.05-.043.118-.1.118-.136,0-.059-.14-.179-.172-.179s-.172.124-.172.179c0,.037.061.09.111.133l0,0v.108H10.937c.311.309.773.306,1.7.316.827.012.823.012,7.049,0V-5.2c-.05.043-.111.1-.111.136,0,.059.132.179.172.179a.378.378,0,0,0,.15-.127h.383a.168.168,0,0,0,.15.068.176.176,0,0,0,.15-.068h.458a.229.229,0,0,0,.183.068c.175-.006.215-.1.215-.405,0-.26-.179-.288-.526-.282Zm.079.523h-.408a.17.17,0,0,0-.15-.071.17.17,0,0,0-.15.071h-.376a.449.449,0,0,0-.1-.1v-.111h1.189a.342.342,0,0,0,0,.207Z" transform="translate(-9.188 14.214)" fill="#fff"/>
      </g>
    </g>
  </g>
</svg>
