<svg xmlns="http://www.w3.org/2000/svg" width="649.79" height="181.708" viewBox="0 0 649.79 181.708">
  <g id="Group_6" data-name="Group 6" transform="translate(-56.129 -408.249)">
    <g id="text" transform="translate(0 -4)">
      <g id="en" transform="translate(2 13)">
        <path id="Path_1" data-name="Path 1" d="M82.07,567.806h2.082v3.775H77.744v-13.55H63.4v13.55H56.765v-3.775H59.03v-27.8H63.4v14.244H77.744V540.011H82.07Z" fill="#009ab5" stroke="#009ab5" stroke-width="2"/>
        <path id="Path_2" data-name="Path 2" d="M125.669,570.612a7.9,7.9,0,0,1-3.948-4.643q-1.317-3.429-1.316-10.06,0-6.573,1.357-10.082a8.335,8.335,0,0,1,4.009-4.8,16.167,16.167,0,0,1,7-1.286,16.8,16.8,0,0,1,7.142,1.265,8.036,8.036,0,0,1,3.949,4.776,30.6,30.6,0,0,1,1.3,10.123q0,6.632-1.316,10.06a7.9,7.9,0,0,1-3.949,4.643,17.277,17.277,0,0,1-7.122,1.214A17.225,17.225,0,0,1,125.669,570.612Zm11.939-3.408a5.38,5.38,0,0,0,2.429-3.419,28.725,28.725,0,0,0,.795-7.876,30.252,30.252,0,0,0-.795-8.123,5.277,5.277,0,0,0-2.429-3.428,11.186,11.186,0,0,0-4.836-.817,10.79,10.79,0,0,0-4.674.817,5.473,5.473,0,0,0-2.51,3.479,28.245,28.245,0,0,0-.857,8.072,30.128,30.128,0,0,0,.755,7.9,5.238,5.238,0,0,0,2.387,3.4,11.009,11.009,0,0,0,4.9.846A10.824,10.824,0,0,0,137.608,567.2Z" fill="#009ab5" stroke="#009ab5" stroke-width="2"/>
        <path id="Path_3" data-name="Path 3" d="M213.37,567.806H215.7v3.775h-6.122L206.9,548.194l-6.775,23.387h-3.857l-6.9-23.2-2.572,23.2h-5.612v-3.775H183l3.163-27.8h4.244l7.8,25.265,7.632-25.265h4.286Z" fill="#009ab5" stroke="#009ab5" stroke-width="2"/>
        <path id="Path_4" data-name="Path 4" d="M267.214,543.868h-7.836q-3.042,0-3.041,3.264v6.878l13.734.2v3.368l-13.734.2V564.6a3.148,3.148,0,0,0,.847,2.6,3.823,3.823,0,0,0,2.357.642h7.673v-1.714h4.694v5.163q-8.43.449-13.163.449a8.329,8.329,0,0,1-4.8-1.346q-1.98-1.347-1.98-5.041V546.6q0-3.429,1.9-5.011a7.061,7.061,0,0,1,4.674-1.581q6.693.121,10.428.285l2.939.1v4.857h-4.694Z" fill="#009ab5" stroke="#009ab5" stroke-width="2"/>
        <path id="Path_5" data-name="Path 5" d="M340.037,567.806h2.326v3.775H336.24l-2.673-23.387-6.775,23.387h-3.857l-6.9-23.2-2.571,23.2h-5.612v-3.775h1.815l3.163-27.8h4.245l7.795,25.265,7.634-25.265h4.285Z" fill="#009ab5" stroke="#009ab5" stroke-width="2"/>
        <path id="Path_6" data-name="Path 6" d="M397.7,567.806l-1.776-5H384.31l-1.94,5.04h2.552v3.735H376.84l10.816-31.57h5.04l10.8,31.57h-8.183v-3.775Zm-2.878-8.837-4.653-14.04-4.714,14.04Z" fill="#009ab5" stroke="#009ab5" stroke-width="2"/>
        <path id="Path_7" data-name="Path 7" d="M453.806,540.011q5.713,0,8.173,4t2.459,11.775q0,7.447-2.673,11.622a8.837,8.837,0,0,1-7.959,4.173H438.848v-3.775h2.285v-24.02h-1.469v-3.775Zm-.245,27.8a5.276,5.276,0,0,0,4.888-3.123q1.662-3.121,1.662-8.9a28.336,28.336,0,0,0-.714-7.143,6.8,6.8,0,0,0-2.122-3.724,5.894,5.894,0,0,0-3.714-1.092H445.5v23.979Z" fill="#009ab5" stroke="#009ab5" stroke-width="2"/>
        <path id="Path_8" data-name="Path 8" d="M517.548,543.868h-7.837q-3.041,0-3.04,3.264v6.878l13.734.2v3.368l-13.734.2V564.6a3.145,3.145,0,0,0,.847,2.6,3.822,3.822,0,0,0,2.356.642h7.674v-1.714h4.693v5.163q-8.429.449-13.163.449a8.328,8.328,0,0,1-4.8-1.346q-1.979-1.347-1.979-5.041V546.6q0-3.429,1.9-5.011a7.058,7.058,0,0,1,4.673-1.581q6.694.121,10.429.285l2.938.1v4.857h-4.693Z" fill="#009ab5" stroke="#009ab5" stroke-width="2"/>
      </g>
      <g id="ar" transform="translate(0 -6)">
        <path id="Path_9" data-name="Path 9" d="M121.808,452.719h14.775q1.877.444,1.878,1.778v41.51h15.911q1.878.494,1.878,1.827v6.474q0,1.779-2.026,1.779H84.993q-19.222,0-27.129-18.58a46.416,46.416,0,0,1-1.235-8.7q0-17.2,19.173-25.3a14.123,14.123,0,0,0,4.151-1.186l.988,1.977v6.671q0,1.036-7.313,4.843A16.789,16.789,0,0,0,67.2,479.2q0,12.552,13.342,16.456a11.6,11.6,0,0,0,3.212.346h44.128V465.913h-6.078Zm-25.1-3.559a5.786,5.786,0,0,1,1.977,4.4,5.591,5.591,0,0,1-1.928,4.251,6.529,6.529,0,0,1-4.793,1.976,6.322,6.322,0,0,1-4.793-1.976,5.652,5.652,0,0,1-1.878-4.251,5.849,5.849,0,0,1,1.927-4.4,6.85,6.85,0,0,1,4.744-1.779A7.213,7.213,0,0,1,96.705,449.16Zm19.223,0a5.789,5.789,0,0,1,1.976,4.4,5.59,5.59,0,0,1-1.927,4.251,6.53,6.53,0,0,1-4.793,1.976,6.324,6.324,0,0,1-4.794-1.976,5.656,5.656,0,0,1-1.878-4.251,5.85,5.85,0,0,1,1.928-4.4,6.848,6.848,0,0,1,4.744-1.779A7.091,7.091,0,0,1,115.928,449.16Z" fill="#682300"/>
        <path id="Path_10" data-name="Path 10" d="M196.87,506.087H149.48q-2.025,0-2.026-1.779v-6.573a1.982,1.982,0,0,1,2.026-1.728h21.15v-30h-5.485V452.817H181.9v43.19h15.17q1.828.494,1.829,1.827v6.474Q198.9,506.087,196.87,506.087Zm-28.76,5.041a5.776,5.776,0,0,1,1.976,4.4,5.587,5.587,0,0,1-1.927,4.25,6.525,6.525,0,0,1-4.793,1.976,6.318,6.318,0,0,1-4.793-1.976,5.587,5.587,0,0,1-1.927-4.25,5.772,5.772,0,0,1,1.976-4.4,6.84,6.84,0,0,1,4.744-1.78A7.2,7.2,0,0,1,168.11,511.128Zm17.2,0a5.773,5.773,0,0,1,1.977,4.4,5.59,5.59,0,0,1-1.927,4.25,6.527,6.527,0,0,1-4.794,1.976,6.32,6.32,0,0,1-4.793-1.976,5.651,5.651,0,0,1-1.877-4.25,5.839,5.839,0,0,1,1.927-4.4,6.839,6.839,0,0,1,4.743-1.78A7.076,7.076,0,0,1,185.306,511.128Z" fill="#682300"/>
        <path id="Path_11" data-name="Path 11" d="M222.664,452.817h16.752v51.64a1.794,1.794,0,0,1-2.026,1.63H196.87q-2.026,0-2.026-1.779v-6.573a1.981,1.981,0,0,1,2.026-1.728h31.28v-30h-5.486Zm-4.842,56.531a7.266,7.266,0,0,1,4.793,1.78,5.839,5.839,0,0,1,1.927,4.4,5.587,5.587,0,0,1-1.927,4.25,6.525,6.525,0,0,1-4.793,1.976,6.322,6.322,0,0,1-4.794-1.976,5.651,5.651,0,0,1-1.877-4.25,5.839,5.839,0,0,1,1.927-4.4A6.84,6.84,0,0,1,217.822,509.348Z" fill="#682300"/>
        <path id="Path_12" data-name="Path 12" d="M302.273,519.627q-20.113,0-29.946-20.8a40.474,40.474,0,0,1-2.075-12.354V467.148a1.965,1.965,0,0,1,2.026-1.68h6.671q1.877.444,1.877,1.779V488.1q0,14.874,16.209,20.853a24.773,24.773,0,0,0,6.029.741q15.023,0,20.656-16.6a12.872,12.872,0,0,0,.79-4.991V447.679H317.3V434.485h15.911q1.83.444,1.83,1.778v50.206q0,6.722-1.138,9.538h13.886q1.83.494,1.83,1.827v6.375q0,1.779-2.027,1.779H328.859Q319.371,519.626,302.273,519.627Z" fill="#682300"/>
        <path id="Path_13" data-name="Path 13" d="M381.238,496.007h43.881Q427,496.5,427,497.834v6.474q0,1.779-2.026,1.779H341.163q-2.026,0-2.026-1.779v-6.573a1.937,1.937,0,0,1,2.026-1.728h19.815v.889a26.549,26.549,0,0,1-6.869-18.087q0-17.2,18.975-25.251a40.8,40.8,0,0,1,9.389-1.284h26.388l.149,17.493H398.237v-7.413h-17q-12.3,0-16.208,13.391a13.452,13.452,0,0,0-.346,3.46q0,12.552,13.343,16.456A11.265,11.265,0,0,0,381.238,496.007Zm7.017-52.332a5.587,5.587,0,0,1-1.927,4.25,6.528,6.528,0,0,1-4.794,1.977,6.321,6.321,0,0,1-4.793-1.977,5.651,5.651,0,0,1-1.877-4.25,5.849,5.849,0,0,1,1.927-4.4,6.845,6.845,0,0,1,4.743-1.778,7.208,7.208,0,0,1,4.744,1.778A5.786,5.786,0,0,1,388.255,443.675Z" fill="#682300"/>
        <path id="Path_14" data-name="Path 14" d="M519.306,506.087H420.475q-2.027,0-2.026-1.779v-6.573a1.98,1.98,0,0,1,2.026-1.728h19.469q-9.537-9.192-9.537-24.511V454a2.009,2.009,0,0,1,2.076-1.729H439.1q1.878.494,1.878,1.829v18.184q0,17.295,18.136,23.374a45.694,45.694,0,0,0,5.336.346h7.166v-43.19h11.267v43.19h27.178v-30h-5.486V452.817h16.753v51.64A1.8,1.8,0,0,1,519.306,506.087Zm-51-66.81a5.849,5.849,0,0,1,1.927,4.4,5.587,5.587,0,0,1-1.927,4.25,6.527,6.527,0,0,1-4.793,1.977,6.321,6.321,0,0,1-4.794-1.977,5.651,5.651,0,0,1-1.877-4.25,5.849,5.849,0,0,1,1.927-4.4,6.962,6.962,0,0,1,4.744-1.778A7.276,7.276,0,0,1,468.309,439.277Zm13.144-11.168a5.9,5.9,0,0,1,1.927,4.448,5.651,5.651,0,0,1-1.877,4.25,6.528,6.528,0,0,1-4.793,1.976,6.382,6.382,0,0,1-4.844-1.976,5.651,5.651,0,0,1-1.877-4.25,5.746,5.746,0,0,1,1.927-4.4,7.026,7.026,0,0,1,4.794-1.779A7.332,7.332,0,0,1,481.453,428.109ZM494.6,439.277a5.852,5.852,0,0,1,1.927,4.4,5.652,5.652,0,0,1-1.878,4.25,6.528,6.528,0,0,1-4.793,1.977,6.224,6.224,0,0,1-4.794-1.977,5.589,5.589,0,0,1-1.926-4.25,5.851,5.851,0,0,1,1.926-4.4,7.033,7.033,0,0,1,4.794-1.778A7.214,7.214,0,0,1,494.6,439.277Z" fill="#682300"/>
      </g>
      <line id="Line_3" data-name="Line 3" x1="467" transform="translate(56.129 532.699)" fill="none" stroke="#009ab5" stroke-width="2"/>
    </g>
    <g id="Icon" transform="translate(334 183.05)">
      <g id="Group_4" data-name="Group 4">
        <path id="Path_15" data-name="Path 15" d="M297.12,355.128a5.519,5.519,0,0,1-4.2,1.891,5.343,5.343,0,0,1-4.059-1.842,6.234,6.234,0,0,1-1.888-4.579,6.029,6.029,0,0,1,1.888-4.579,5.4,5.4,0,0,1,4.059-1.8,5.581,5.581,0,0,1,4.2,1.841,6.532,6.532,0,0,1,1.7,4.533A6.754,6.754,0,0,1,297.12,355.128Z" fill="#cb9952"/>
        <path id="Path_16" data-name="Path 16" d="M312.084,355.128a5.518,5.518,0,0,1-4.2,1.891,5.344,5.344,0,0,1-4.06-1.842,6.238,6.238,0,0,1-1.888-4.579,6.033,6.033,0,0,1,1.888-4.579,5.4,5.4,0,0,1,4.06-1.8,5.58,5.58,0,0,1,4.2,1.841,6.527,6.527,0,0,1,1.7,4.533A6.749,6.749,0,0,1,312.084,355.128Z" fill="#cb9952"/>
        <path id="Path_17" data-name="Path 17" d="M297.12,370.239a5.521,5.521,0,0,1-4.2,1.89,5.342,5.342,0,0,1-4.059-1.841,6.234,6.234,0,0,1-1.888-4.579,6.033,6.033,0,0,1,1.888-4.58,5.4,5.4,0,0,1,4.059-1.794,5.581,5.581,0,0,1,4.2,1.841,6.529,6.529,0,0,1,1.7,4.533A6.754,6.754,0,0,1,297.12,370.239Z" fill="#cb9952"/>
        <path id="Path_18" data-name="Path 18" d="M312.084,370.239a5.521,5.521,0,0,1-4.2,1.89,5.343,5.343,0,0,1-4.06-1.841,6.238,6.238,0,0,1-1.888-4.579,6.036,6.036,0,0,1,1.888-4.58,5.4,5.4,0,0,1,4.06-1.794,5.58,5.58,0,0,1,4.2,1.841,6.524,6.524,0,0,1,1.7,4.533A6.749,6.749,0,0,1,312.084,370.239Z" fill="#cb9952"/>
      </g>
      <path id="Path_19" data-name="Path 19" d="M334.583,321.319h-6.42v11.2c3.491,0,1.85,0,5.341,0,.518,0,1.036.074,1.554.077a.928.928,0,0,1,1,.96,8.011,8.011,0,0,1,.029.849c0,8.2.026,16.395-.017,24.592a40.433,40.433,0,0,1-.409,6.353,39.9,39.9,0,0,1-1.764,6.968,34.033,34.033,0,0,1-4.412,8.323,36.692,36.692,0,0,1-7.236,7.579,30.3,30.3,0,0,1-6.281,3.894c-1.713.762-3.455,1.464-5.207,2.135a19.068,19.068,0,0,1-2.319.619,38.943,38.943,0,0,1-10.48.819,30.154,30.154,0,0,1-7.769-1.4,34.9,34.9,0,0,1-7.419-3.219,36.925,36.925,0,0,1-7.407-5.6,28.5,28.5,0,0,1-5.138-6.432c-1.184-2.13-2.267-4.319-3.308-6.523a15.411,15.411,0,0,1-.858-2.761c-.328-1.274-.631-2.556-.886-3.845a19.309,19.309,0,0,1-.324-2.525c-.1-1.506-.18-3.017-.184-4.527q-.015-6.953-.006-13.907H253.587c0,5.6-.011,11.194.01,16.791a41.679,41.679,0,0,0,.329,5.154,36.687,36.687,0,0,0,.939,4.417,50.178,50.178,0,0,0,1.443,4.931,37.062,37.062,0,0,0,2.157,4.814,67.011,67.011,0,0,0,3.815,6.409,38.428,38.428,0,0,0,7.024,7.726c1.914,1.585,3.937,3.045,5.971,4.476a28.2,28.2,0,0,0,3.418,1.968c1.439.738,2.891,1.467,4.391,2.064,1.46.581,2.995.972,4.485,1.48a34.914,34.914,0,0,0,7.752,1.536,67.847,67.847,0,0,0,7.219.181,23.715,23.715,0,0,0,4.162-.324c2.379-.438,4.74-.99,7.084-1.59a25.2,25.2,0,0,0,4.207-1.4,60.64,60.64,0,0,0,6.443-3.307,51,51,0,0,0,6.331-4.459,45.128,45.128,0,0,0,8.692-9.808,43.667,43.667,0,0,0,4.438-8.389,62.758,62.758,0,0,0,2.373-7.664,35.314,35.314,0,0,0,.9-8.287q-.011-20.173,0-40.347Z" fill="#009ab5"/>
      <path id="Path_20" data-name="Path 20" d="M366.571,257.284a33.291,33.291,0,0,0-18.5-14.055,31.168,31.168,0,0,0-14.135-1.045,39.512,39.512,0,0,0-15.085-12.576,45.4,45.4,0,0,0-14.506-4.187,42,42,0,0,0-38.076,16.889c-.657-.1-1.361-.158-2.192-.229a32.182,32.182,0,0,0-19.248,4.147c-10.589,6.236-16.319,15.33-17.031,27.035a33.734,33.734,0,0,0,25.513,35.186v19c-.007.033-.009.066-.017.1h.017v5.117h10.177v-.013l11.848-.025H318.9v-11.2H264.524V309.1a33.013,33.013,0,0,0,9.244-2.179,36.366,36.366,0,0,0,8.167-4.724,3.278,3.278,0,0,0,.546-4.971c-.688-.791-1.337-1.6-1.994-2.429a3.4,3.4,0,0,0-4.978-.617,25.824,25.824,0,0,1-7.922,4.012,21.022,21.022,0,0,1-13.89-.364,23.207,23.207,0,0,1-13.2-11.515,22.609,22.609,0,0,1-2.548-10.392c-.1-9.821,4.353-16.889,13.612-21.59a19.584,19.584,0,0,1,9.133-2.137h.151a42.092,42.092,0,0,0-2.786,13.85,3.782,3.782,0,0,0,.91,2.968,3.6,3.6,0,0,0,2.651.981l1.306.016c.562-.016,1.077,0,1.662.016a3.472,3.472,0,0,0,3.736-3.443l.126-1.234a49.587,49.587,0,0,1,.721-5.287,30.4,30.4,0,0,1,7.55-14.269,32.1,32.1,0,0,1,15.6-9.4,28.554,28.554,0,0,1,14.182-.246,48.57,48.57,0,0,1,7.107,2.359c7,2.944,12.1,8.128,15.583,15.852a29.383,29.383,0,0,1,2.628,11.713,3.712,3.712,0,0,0,1.116,2.833,3.92,3.92,0,0,0,2.825.95c.918-.047,1.813-.032,2.873-.008a4.311,4.311,0,0,0,2.5-.973,3.508,3.508,0,0,0,.974-2.58,35.32,35.32,0,0,0-1.425-9.972c-.435-1.457-.966-2.9-1.5-4.29A23.333,23.333,0,0,1,359.527,265.8c3.126,7.012,2.857,13.874-.831,20.973-2.319,4.44-5.912,7.7-11.3,10.257-4.44,2.1-9.291,2.5-14.839,1.258a21.286,21.286,0,0,1-7.819-3.633c-2.121-1.543-3.8-1.3-5.382.744l-.768.982c-.308.388-.617.775-.942,1.163a3.527,3.527,0,0,0-.87,2.739,3.417,3.417,0,0,0,1.472,2.358,30.034,30.034,0,0,0,11.025,5.389,42.318,42.318,0,0,0,17.862-.153,37.032,37.032,0,0,0,5.469-1.968,32.052,32.052,0,0,0,14.887-13.778,34.486,34.486,0,0,0,4.368-14.7A32.939,32.939,0,0,0,366.571,257.284Z" fill="#cb9952"/>
    </g>
  </g>
</svg>
