<svg xmlns="http://www.w3.org/2000/svg" xmlns:xlink="http://www.w3.org/1999/xlink" viewBox="0 0 373.93 381.34"><defs><style>.cls-1{fill:url(#linear-gradient);}.cls-2{fill:url(#linear-gradient-2);}.cls-3{fill:url(#linear-gradient-3);}.cls-4{fill:url(#linear-gradient-4);}.cls-5{fill:#434343;}.cls-6{fill:url(#linear-gradient-5);}.cls-7{fill:url(#linear-gradient-6);}.cls-8{fill:url(#linear-gradient-7);}.cls-9{fill:url(#linear-gradient-8);}.cls-10{fill:url(#linear-gradient-9);}.cls-11{fill:url(#linear-gradient-10);}.cls-12{fill:url(#linear-gradient-11);}.cls-13{fill:url(#linear-gradient-12);}.cls-14{fill:url(#linear-gradient-13);}.cls-15{fill:#3f4140;}.cls-16,.cls-17{fill:none;}.cls-17{stroke:#231f20;stroke-miterlimit:10;stroke-width:0.25px;}</style><linearGradient id="linear-gradient" x1="144.03" y1="285.77" x2="165.58" y2="285.77" gradientUnits="userSpaceOnUse"><stop offset="0" stop-color="#fab234"/><stop offset="0.53" stop-color="#f8bc1a"/><stop offset="0.76" stop-color="#e4a331"/><stop offset="1" stop-color="#c78f2c"/></linearGradient><linearGradient id="linear-gradient-2" x1="234.07" y1="285.77" x2="255.63" y2="285.77" xlink:href="#linear-gradient"/><linearGradient id="linear-gradient-3" x1="30.09" y1="136.65" x2="346.76" y2="143.1" gradientUnits="userSpaceOnUse"><stop offset="0" stop-color="#e4a331"/><stop offset="0.2" stop-color="#fab234"/><stop offset="0.38" stop-color="#e4a331"/><stop offset="0.53" stop-color="#f8bc1a"/><stop offset="0.76" stop-color="#e4a331"/><stop offset="1" stop-color="#c5752c"/></linearGradient><linearGradient id="linear-gradient-4" x1="96.43" y1="242.05" x2="276.19" y2="251.12" xlink:href="#linear-gradient"/><linearGradient id="linear-gradient-5" x1="92.92" y1="312.07" x2="272.65" y2="321.13" xlink:href="#linear-gradient"/><linearGradient id="linear-gradient-6" x1="95.86" y1="257.85" x2="274.57" y2="266.86" xlink:href="#linear-gradient"/><linearGradient id="linear-gradient-7" x1="-37.78" y1="56.27" x2="99.85" y2="53.44" gradientUnits="userSpaceOnUse"><stop offset="0.2" stop-color="#fab234"/><stop offset="0.53" stop-color="#f8bc1a"/></linearGradient><linearGradient id="linear-gradient-8" x1="-34.02" y1="242.74" x2="103.72" y2="239.9" xlink:href="#linear-gradient-7"/><linearGradient id="linear-gradient-9" x1="93.75" y1="237.74" x2="94.39" y2="237.73" xlink:href="#linear-gradient-7"/><linearGradient id="linear-gradient-10" x1="-37.1" y1="89.66" x2="100.54" y2="86.83" xlink:href="#linear-gradient-7"/><linearGradient id="linear-gradient-11" x1="-24.44" y1="124.5" x2="113.19" y2="121.67" xlink:href="#linear-gradient-7"/><linearGradient id="linear-gradient-12" x1="-23.69" y1="160.79" x2="113.94" y2="157.96" xlink:href="#linear-gradient-7"/><linearGradient id="linear-gradient-13" x1="-34.79" y1="201.43" x2="102.84" y2="198.6" xlink:href="#linear-gradient-7"/></defs><g id="Layer_2" data-name="Layer 2"><g id="Layer_1-2" data-name="Layer 1"><path class="cls-1" d="M165.58,285.77a10.64,10.64,0,0,1-.41,3,10.77,10.77,0,1,1-16.69-11.66,9.08,9.08,0,0,1,1-.63,9.64,9.64,0,0,1,2.24-1,10.27,10.27,0,0,1,3.11-.46,10.81,10.81,0,0,1,9.7,6.05,11.44,11.44,0,0,1,.54,1.32A10.77,10.77,0,0,1,165.58,285.77Z"/><path class="cls-2" d="M249.63,276.13a10.79,10.79,0,1,1-4.79-1.11,10.42,10.42,0,0,1,2.39.27A10.83,10.83,0,0,1,249.63,276.13Z"/><path class="cls-3" d="M319.74,155a125,125,0,0,1-4.94,34.84,113.63,113.63,0,0,1-4,11.7,125.53,125.53,0,0,1-48.94,59,30.36,30.36,0,0,0-17-5.16c-.79,0-1.58,0-2.35.1h0a30.06,30.06,0,0,0-12,3.49,30.4,30.4,0,0,0-15.22,19.57,127.36,127.36,0,0,1-21.18,1.77c-1.39,0-2.78,0-4.16-.08-1.74-.05-3.48-.14-5.2-.27A30.5,30.5,0,0,0,143,257.77a30,30,0,0,0-9.93,6.77,125.93,125.93,0,0,1-19.51-13.38.89.89,0,0,1-.33-.68.88.88,0,0,1,.9-.89A8.94,8.94,0,0,0,116.3,232a9.58,9.58,0,0,0-2.52-.34h-4.73a27.59,27.59,0,0,1-6.62-.81,27.11,27.11,0,0,1-16.85-12.58c-1.27-2.18-2.49-4.39-3.62-6.65a3.06,3.06,0,0,1-.32-1.33,3,3,0,0,1,3-2.93,9,9,0,0,0,8.67-11.47,10.41,10.41,0,0,0-.67-1.8,9.28,9.28,0,0,0-7.68-4.7H79.67a8.28,8.28,0,0,1-8.09-6.41c-.86-3.7-1.54-7.47-2-11.28a.47.47,0,0,1,0-.17,3.16,3.16,0,0,1,2.71-3.06,6.48,6.48,0,0,1,1.07-.17h2a6.39,6.39,0,0,0,1.08,0h.16a9,9,0,0,0,8.89-10.44c-.67-4.17-5-7.53-9.22-7.53h-3.6a4.16,4.16,0,0,1-1.18-.17,3.93,3.93,0,0,1-2.74-4c.26-3.73.68-7.42,1.26-11a2.26,2.26,0,0,1,2.24-1.89H84.59a9.05,9.05,0,0,0,9-8.81c.11-5-4.34-9.16-9.4-9.16H82.78a5.48,5.48,0,0,1-5.1-7.54c.67-1.64,1.36-3.24,2.09-4.82l.06-.11a2.29,2.29,0,0,0,.1-.23s0,0,0,0c.41-.7,1.59-2.09,4.59-2.14h2.77a9,9,0,0,0,6.55-15.12h0c-2-2-.93-4.44,0-5.82,0,0,0-.06,0-.07.24-.32.47-.62.72-.93l.07-.09c.63-.83,1.29-1.64,1.95-2.45a22.17,22.17,0,0,1,17.15-8.18h8.49a9,9,0,0,0,9-9,8.75,8.75,0,0,0-1.62-5.1,5.08,5.08,0,0,1,1.75-7.26A125.05,125.05,0,0,1,176.66,30.8a.87.87,0,0,0,.77-.87V21a.89.89,0,0,0-.89-.89h-10a.88.88,0,0,1-.88-.89V11A11,11,0,0,1,176.62,0h34.83a11.05,11.05,0,0,1,11.06,11V19.1a.89.89,0,0,1-.89.89h-8.26a.89.89,0,0,0-.89.89v9.3a.88.88,0,0,0,.76.87A125.48,125.48,0,0,1,319.74,155Z"/><path class="cls-4" d="M301.86,229.92c-8.14,14.48-18.54,29.32-29.61,43.49a30.06,30.06,0,0,0-4.51-7.09c-.43-.49-.87-1-1.32-1.45s-1.13-1.11-1.72-1.63A135.11,135.11,0,0,0,301.86,229.92Z"/><path class="cls-5" d="M271.74,285.77a26.47,26.47,0,0,1-.24,3.58,26.9,26.9,0,0,1-26.66,23.26c-.35,0-.71,0-1.07,0A26.84,26.84,0,0,1,218,285.77c0-.27,0-.56,0-.84,0-.54.05-1.08.1-1.61a26.92,26.92,0,0,1,46.07-16.24c.41.42.8.86,1.19,1.3a26.74,26.74,0,0,1,6.41,17.39Zm-16.11,0a10.71,10.71,0,0,0-8.4-10.48,10.42,10.42,0,0,0-2.39-.27,10.75,10.75,0,1,0,10.79,10.75Z"/><path class="cls-6" d="M236.85,314.69l-3.53,3.8C213.16,340,197.4,354.38,197.4,354.38S179.94,338.54,158,315.61a30.17,30.17,0,0,0,23.58-16.2,30.41,30.41,0,0,0,3.29-13.64,30.25,30.25,0,0,0-.21-3.44q5.85.45,11.83.37a132.74,132.74,0,0,0,18.62-1.52c-.09.61-.17,1.22-.23,1.85s-.09,1.2-.1,1.81c0,.31,0,.63,0,.93A30,30,0,0,0,236.85,314.69Z"/><path class="cls-5" d="M181.7,285.45c0,.11,0,.22,0,.32a26.63,26.63,0,0,1-2.88,12.08,26.91,26.91,0,0,1-24,14.76c-.54,0-1.09,0-1.61-.06a26.85,26.85,0,0,1-25.28-26.78c0-.73,0-1.47.09-2.2a26.55,26.55,0,0,1,5.13-13.67c.15-.21.29-.4.45-.6a26.91,26.91,0,0,1,48.06,14.82C181.68,284.57,181.7,285,181.7,285.45Zm-16.53,3.28a10.64,10.64,0,0,0,.41-3,10.77,10.77,0,0,0-.53-3.38,11.44,11.44,0,0,0-.54-1.32,10.81,10.81,0,0,0-9.7-6.05,10.27,10.27,0,0,0-3.11.46,9.64,9.64,0,0,0-2.24,1,9.08,9.08,0,0,0-1,.63,10.76,10.76,0,1,0,16.69,11.66Zm-2.68-12.41a12,12,0,0,0-7.68-2.72c-.41,0-.82,0-1.23,0C156.51,274.65,159.47,275.53,162.49,276.32Z"/><path class="cls-5" d="M154.81,273.6a12,12,0,0,1,7.68,2.72c-3-.79-6-1.67-8.91-2.67C154,273.61,154.4,273.6,154.81,273.6Z"/><path class="cls-7" d="M131.42,266.92a30,30,0,0,0-6,12.41,431.74,431.74,0,0,1-31.08-41.42.35.35,0,0,0,0-.13A135.13,135.13,0,0,0,131.42,266.92Z"/><path class="cls-8" d="M117.21,53.43a9,9,0,0,1-9,9H92a9,9,0,1,1,0-18h16.21A9,9,0,0,1,117.21,53.43Z"/><path class="cls-9" d="M94.53,239.59v2a8,8,0,0,1-8,8H53.18a8,8,0,0,1-8-8v-2a8,8,0,0,1,8-8H86.56a8,8,0,0,1,7.76,6.16c-.07-.07-.13-.15-.2-.23.08.12.15.25.23.36A7.86,7.86,0,0,1,94.53,239.59Z"/><path class="cls-10" d="M94.35,237.91c-.08-.11-.15-.24-.23-.36.07.08.13.16.2.23A.35.35,0,0,1,94.35,237.91Z"/><path class="cls-11" d="M82.27,87.67a9,9,0,0,1-9,9H45.41a9,9,0,0,1,0-18H73.26A9,9,0,0,1,82.27,87.67Z"/><path class="cls-12" d="M78.81,122.87a9,9,0,0,1-9,9H39.3a9,9,0,1,1,0-18H69.82A9,9,0,0,1,78.81,122.87Z"/><path d="M75.35,168.25h1.08A6.39,6.39,0,0,1,75.35,168.25Z"/><path class="cls-13" d="M76.59,159.27a8.89,8.89,0,0,1-2.65,6.34,9.3,9.3,0,0,1-2.07,1.56,9,9,0,0,1-4.29,1.08H33a9,9,0,0,1-9-9,9,9,0,0,1,9-9H67.58a8.86,8.86,0,0,1,3.5.71A9,9,0,0,1,76.59,159.27Z"/><path class="cls-14" d="M73.54,199.85a9,9,0,0,1-9,9H20.31a9,9,0,0,1-9-9A8.92,8.92,0,0,1,14,193.5a8.67,8.67,0,0,1,1.83-1.41,8.93,8.93,0,0,1,4.53-1.23H64.54a9,9,0,0,1,8,5A8.83,8.83,0,0,1,73.54,199.85Z"/><path class="cls-5" d="M279.1,187.69v5.52c0,20.6-15.19,37.47-33.74,37.47H185.7v-.07l-21.78-.79c-3.54-.13-6.09-2.72-5.39-5.44L165.31,198v0l74.6-.24c4.82,0,8.78-4.39,8.78-9.76v-1.42c0-5.36-4-9.75-8.78-9.75l-72.67-.62c-.78,0-1.38-.54-1.31-1.14l2.43-19a1,1,0,0,1,.48-.71,30.94,30.94,0,0,1,16.86-5h59.66C263.91,150.21,279.1,167.07,279.1,187.69Z"/><polygon class="cls-15" points="182.66 96.97 167.31 153.18 167.29 153.19 157.7 188.34 157.7 188.35 147.1 227.13 146.92 227.08 125.58 226.48 125.58 225.75 182.38 96.84 182.66 96.97"/><path class="cls-16" d="M149,190.86l.89.16,74-.22c4.84,0,8.82-5.42,8.82-12.06V177c0-6.62-4-12.06-8.82-12.06l-74.49-.78"/><path class="cls-16" d="M152.33,139.87l.24-.18c5.09-4.12,10.69-6.42,17-6.42h60c18.66,0,33.93,20.57,33.93,45.73v6.75c0,25.13-15.27,45.71-33.93,45.71h-60"/><line class="cls-16" x1="149.83" y1="190.97" x2="141.56" y2="227.38"/><line class="cls-17" x1="170.26" y1="231.85" x2="170.07" y2="231.8"/><polyline class="cls-16" points="152.83 139.43 152.59 139.82 150.19 163.78"/><path class="cls-5" d="M144.14,139.1l12.05,7.11c-6.09,13.51-8.46,32.64-17.89,25.4C129.94,165.22,126,155.67,125,136.5c-.65-13.2,9.87-25.26,19.54-31.95a7.84,7.84,0,0,1,3.59-1.35Z"/><path class="cls-17" d="M144.14,139.1l12.05,7.11c-6.09,13.51-8.46,32.64-17.89,25.4C129.94,165.22,126,155.67,125,136.5c-.65-13.2,9.87-25.26,19.54-31.95a7.84,7.84,0,0,1,3.59-1.35Z"/><polygon class="cls-5" points="269.39 91.32 269.29 91.43 241.77 102.41 241.76 102.42 236.32 98.32 236.05 98.1 251.84 80.66 252.13 80.44 269.39 91.32"/><polygon class="cls-5" points="248.1 78.47 232.43 96.47 232.28 96.39 212.97 87.91 226.96 71.64 227.32 71.84 247.8 78.23 248.1 78.47"/><polygon class="cls-5" points="220.81 70.61 209.38 88.2 209.01 88.05 188.52 84.89 188.53 84.85 195.52 72.22 197.22 69.14 197.88 68.85 220.82 70.48 220.81 70.61"/><polygon class="cls-5" points="192.16 68.87 183.76 86.26 166.62 87.53 166.6 87.33 166.87 72.47 166.86 72.43 191.93 68.8 192.16 68.87"/><polygon class="cls-5" points="162.67 74.41 163.06 88.74 162.86 88.74 145.34 94.4 141.99 83.47 162.46 74.41 162.67 74.41"/><polygon class="cls-5" points="138.12 86.34 142.95 95.35 142.75 95.42 127.45 104.81 127.3 104.76 137.73 86.21 138.12 86.34"/><polyline class="cls-17" points="222.09 70.57 220.82 70.48 197.88 68.85"/><polyline class="cls-17" points="188.53 84.85 195.52 72.22 197.22 69.14"/><line class="cls-17" x1="209.01" y1="87.8" x2="188.53" y2="84.85"/><line class="cls-17" x1="220.81" y1="70.61" x2="209.32" y2="87.56"/><polyline class="cls-17" points="227 71.6 226.96 71.64 212.97 87.91 212.43 88.53"/><line class="cls-17" x1="247.8" y1="78.23" x2="227.32" y2="71.84"/><polyline class="cls-17" points="232.28 96.63 232.43 96.47 248.1 78.47"/><polyline class="cls-17" points="212.73 87.8 212.97 87.91 232.28 96.39"/><polyline class="cls-17" points="192.2 68.8 192.16 68.87 183.76 86.26"/><polyline class="cls-17" points="166.6 72.47 166.86 72.43 191.93 68.8"/><line class="cls-17" x1="166.6" y1="87.33" x2="166.87" y2="72.47"/><polyline class="cls-17" points="183.76 86.26 166.62 87.53 166.33 87.55"/><line class="cls-17" x1="251.84" y1="80.66" x2="236.05" y2="98.1"/><polyline class="cls-17" points="269.56 91.43 269.39 91.32 252.13 80.44"/><polyline class="cls-17" points="242.32 102.84 241.76 102.42 236.32 98.32"/><line class="cls-17" x1="269.29" y1="91.43" x2="241.77" y2="102.41"/><polyline class="cls-17" points="162.67 74.41 163.06 88.74 163.06 88.9"/><polyline class="cls-17" points="141.94 83.49 141.99 83.47 162.46 74.41"/><polyline class="cls-17" points="145.36 94.46 145.34 94.4 141.99 83.47 141.94 83.33"/><polyline class="cls-17" points="162.86 88.74 145.34 94.4 145.16 94.46"/><polyline class="cls-17" points="138.12 86.34 142.95 95.35 143.15 95.74"/><polyline class="cls-17" points="127.26 104.81 127.3 104.76 137.73 86.21 137.92 85.87"/><line class="cls-17" x1="142.74" y1="95.42" x2="127.45" y2="104.81"/><text/></g></g></svg>